<?xml version="1.0" encoding="utf-8"?>
<svg xmlns="http://www.w3.org/2000/svg" xmlns:xlink="http://www.w3.org/1999/xlink" width="600" height="400" viewBox="0 0 2400 1600">
<defs>
  <clipPath id="clip890">
    <rect x="0" y="0" width="2400" height="1600"/>
  </clipPath>
</defs>
<path clip-path="url(#clip890)" d="M0 1600 L2400 1600 L2400 0 L0 0  Z" fill="#ffffff" fill-rule="evenodd" fill-opacity="1"/>
<defs>
  <clipPath id="clip891">
    <rect x="480" y="0" width="1681" height="1600"/>
  </clipPath>
</defs>
<path clip-path="url(#clip890)" d="M175.445 1423.18 L2352.76 1423.18 L2352.76 123.472 L175.445 123.472  Z" fill="#ffffff" fill-rule="evenodd" fill-opacity="1"/>
<defs>
  <clipPath id="clip892">
    <rect x="175" y="123" width="2178" height="1301"/>
  </clipPath>
</defs>
<polyline clip-path="url(#clip892)" style="stroke:#000000; stroke-linecap:round; stroke-linejoin:round; stroke-width:2; stroke-opacity:0.1; fill:none" points="175.445,1423.18 175.445,123.472 "/>
<polyline clip-path="url(#clip892)" style="stroke:#000000; stroke-linecap:round; stroke-linejoin:round; stroke-width:2; stroke-opacity:0.1; fill:none" points="719.773,1423.18 719.773,123.472 "/>
<polyline clip-path="url(#clip892)" style="stroke:#000000; stroke-linecap:round; stroke-linejoin:round; stroke-width:2; stroke-opacity:0.1; fill:none" points="1264.1,1423.18 1264.1,123.472 "/>
<polyline clip-path="url(#clip892)" style="stroke:#000000; stroke-linecap:round; stroke-linejoin:round; stroke-width:2; stroke-opacity:0.1; fill:none" points="1808.43,1423.18 1808.43,123.472 "/>
<polyline clip-path="url(#clip892)" style="stroke:#000000; stroke-linecap:round; stroke-linejoin:round; stroke-width:2; stroke-opacity:0.1; fill:none" points="2352.76,1423.18 2352.76,123.472 "/>
<polyline clip-path="url(#clip890)" style="stroke:#000000; stroke-linecap:round; stroke-linejoin:round; stroke-width:4; stroke-opacity:1; fill:none" points="175.445,1423.18 2352.76,1423.18 "/>
<polyline clip-path="url(#clip890)" style="stroke:#000000; stroke-linecap:round; stroke-linejoin:round; stroke-width:4; stroke-opacity:1; fill:none" points="175.445,1423.18 175.445,1404.28 "/>
<polyline clip-path="url(#clip890)" style="stroke:#000000; stroke-linecap:round; stroke-linejoin:round; stroke-width:4; stroke-opacity:1; fill:none" points="719.773,1423.18 719.773,1404.28 "/>
<polyline clip-path="url(#clip890)" style="stroke:#000000; stroke-linecap:round; stroke-linejoin:round; stroke-width:4; stroke-opacity:1; fill:none" points="1264.1,1423.18 1264.1,1404.28 "/>
<polyline clip-path="url(#clip890)" style="stroke:#000000; stroke-linecap:round; stroke-linejoin:round; stroke-width:4; stroke-opacity:1; fill:none" points="1808.43,1423.18 1808.43,1404.28 "/>
<polyline clip-path="url(#clip890)" style="stroke:#000000; stroke-linecap:round; stroke-linejoin:round; stroke-width:4; stroke-opacity:1; fill:none" points="2352.76,1423.18 2352.76,1404.28 "/>
<path clip-path="url(#clip890)" d="M152.83 1454.1 Q149.218 1454.1 147.39 1457.66 Q145.584 1461.2 145.584 1468.33 Q145.584 1475.44 147.39 1479.01 Q149.218 1482.55 152.83 1482.55 Q156.464 1482.55 158.269 1479.01 Q160.098 1475.44 160.098 1468.33 Q160.098 1461.2 158.269 1457.66 Q156.464 1454.1 152.83 1454.1 M152.83 1450.39 Q158.64 1450.39 161.695 1455 Q164.774 1459.58 164.774 1468.33 Q164.774 1477.06 161.695 1481.67 Q158.64 1486.25 152.83 1486.25 Q147.019 1486.25 143.941 1481.67 Q140.885 1477.06 140.885 1468.33 Q140.885 1459.58 143.941 1455 Q147.019 1450.39 152.83 1450.39 Z" fill="#000000" fill-rule="nonzero" fill-opacity="1" /><path clip-path="url(#clip890)" d="M172.992 1479.7 L177.876 1479.7 L177.876 1485.58 L172.992 1485.58 L172.992 1479.7 Z" fill="#000000" fill-rule="nonzero" fill-opacity="1" /><path clip-path="url(#clip890)" d="M198.061 1454.1 Q194.45 1454.1 192.621 1457.66 Q190.815 1461.2 190.815 1468.33 Q190.815 1475.44 192.621 1479.01 Q194.45 1482.55 198.061 1482.55 Q201.695 1482.55 203.501 1479.01 Q205.329 1475.44 205.329 1468.33 Q205.329 1461.2 203.501 1457.66 Q201.695 1454.1 198.061 1454.1 M198.061 1450.39 Q203.871 1450.39 206.927 1455 Q210.005 1459.58 210.005 1468.33 Q210.005 1477.06 206.927 1481.67 Q203.871 1486.25 198.061 1486.25 Q192.251 1486.25 189.172 1481.67 Q186.116 1477.06 186.116 1468.33 Q186.116 1459.58 189.172 1455 Q192.251 1450.39 198.061 1450.39 Z" fill="#000000" fill-rule="nonzero" fill-opacity="1" /><path clip-path="url(#clip890)" d="M697.771 1454.1 Q694.16 1454.1 692.331 1457.66 Q690.525 1461.2 690.525 1468.33 Q690.525 1475.44 692.331 1479.01 Q694.16 1482.55 697.771 1482.55 Q701.405 1482.55 703.21 1479.01 Q705.039 1475.44 705.039 1468.33 Q705.039 1461.2 703.21 1457.66 Q701.405 1454.1 697.771 1454.1 M697.771 1450.39 Q703.581 1450.39 706.636 1455 Q709.715 1459.58 709.715 1468.33 Q709.715 1477.06 706.636 1481.67 Q703.581 1486.25 697.771 1486.25 Q691.961 1486.25 688.882 1481.67 Q685.826 1477.06 685.826 1468.33 Q685.826 1459.58 688.882 1455 Q691.961 1450.39 697.771 1450.39 Z" fill="#000000" fill-rule="nonzero" fill-opacity="1" /><path clip-path="url(#clip890)" d="M717.933 1479.7 L722.817 1479.7 L722.817 1485.58 L717.933 1485.58 L717.933 1479.7 Z" fill="#000000" fill-rule="nonzero" fill-opacity="1" /><path clip-path="url(#clip890)" d="M733.812 1481.64 L741.451 1481.64 L741.451 1455.28 L733.141 1456.95 L733.141 1452.69 L741.405 1451.02 L746.081 1451.02 L746.081 1481.64 L753.719 1481.64 L753.719 1485.58 L733.812 1485.58 L733.812 1481.64 Z" fill="#000000" fill-rule="nonzero" fill-opacity="1" /><path clip-path="url(#clip890)" d="M1242.28 1454.1 Q1238.67 1454.1 1236.84 1457.66 Q1235.04 1461.2 1235.04 1468.33 Q1235.04 1475.44 1236.84 1479.01 Q1238.67 1482.55 1242.28 1482.55 Q1245.92 1482.55 1247.72 1479.01 Q1249.55 1475.44 1249.55 1468.33 Q1249.55 1461.2 1247.72 1457.66 Q1245.92 1454.1 1242.28 1454.1 M1242.28 1450.39 Q1248.09 1450.39 1251.15 1455 Q1254.23 1459.58 1254.23 1468.33 Q1254.23 1477.06 1251.15 1481.67 Q1248.09 1486.25 1242.28 1486.25 Q1236.47 1486.25 1233.39 1481.67 Q1230.34 1477.06 1230.34 1468.33 Q1230.34 1459.58 1233.39 1455 Q1236.47 1450.39 1242.28 1450.39 Z" fill="#000000" fill-rule="nonzero" fill-opacity="1" /><path clip-path="url(#clip890)" d="M1262.45 1479.7 L1267.33 1479.7 L1267.33 1485.58 L1262.45 1485.58 L1262.45 1479.7 Z" fill="#000000" fill-rule="nonzero" fill-opacity="1" /><path clip-path="url(#clip890)" d="M1281.54 1481.64 L1297.86 1481.64 L1297.86 1485.58 L1275.92 1485.58 L1275.92 1481.64 Q1278.58 1478.89 1283.16 1474.26 Q1287.77 1469.61 1288.95 1468.27 Q1291.2 1465.74 1292.07 1464.01 Q1292.98 1462.25 1292.98 1460.56 Q1292.98 1457.8 1291.03 1456.07 Q1289.11 1454.33 1286.01 1454.33 Q1283.81 1454.33 1281.36 1455.09 Q1278.93 1455.86 1276.15 1457.41 L1276.15 1452.69 Q1278.97 1451.55 1281.43 1450.97 Q1283.88 1450.39 1285.92 1450.39 Q1291.29 1450.39 1294.48 1453.08 Q1297.68 1455.77 1297.68 1460.26 Q1297.68 1462.39 1296.87 1464.31 Q1296.08 1466.2 1293.97 1468.8 Q1293.39 1469.47 1290.29 1472.69 Q1287.19 1475.88 1281.54 1481.64 Z" fill="#000000" fill-rule="nonzero" fill-opacity="1" /><path clip-path="url(#clip890)" d="M1786.14 1454.1 Q1782.53 1454.1 1780.7 1457.66 Q1778.89 1461.2 1778.89 1468.33 Q1778.89 1475.44 1780.7 1479.01 Q1782.53 1482.55 1786.14 1482.55 Q1789.77 1482.55 1791.58 1479.01 Q1793.41 1475.44 1793.41 1468.33 Q1793.41 1461.2 1791.58 1457.66 Q1789.77 1454.1 1786.14 1454.1 M1786.14 1450.39 Q1791.95 1450.39 1795 1455 Q1798.08 1459.58 1798.08 1468.33 Q1798.08 1477.06 1795 1481.67 Q1791.95 1486.25 1786.14 1486.25 Q1780.33 1486.25 1777.25 1481.67 Q1774.19 1477.06 1774.19 1468.33 Q1774.19 1459.58 1777.25 1455 Q1780.33 1450.39 1786.14 1450.39 Z" fill="#000000" fill-rule="nonzero" fill-opacity="1" /><path clip-path="url(#clip890)" d="M1806.3 1479.7 L1811.18 1479.7 L1811.18 1485.58 L1806.3 1485.58 L1806.3 1479.7 Z" fill="#000000" fill-rule="nonzero" fill-opacity="1" /><path clip-path="url(#clip890)" d="M1835.53 1466.95 Q1838.89 1467.66 1840.77 1469.93 Q1842.66 1472.2 1842.66 1475.53 Q1842.66 1480.65 1839.15 1483.45 Q1835.63 1486.25 1829.15 1486.25 Q1826.97 1486.25 1824.65 1485.81 Q1822.36 1485.39 1819.91 1484.54 L1819.91 1480.02 Q1821.85 1481.16 1824.17 1481.74 Q1826.48 1482.32 1829.01 1482.32 Q1833.4 1482.32 1835.7 1480.58 Q1838.01 1478.84 1838.01 1475.53 Q1838.01 1472.48 1835.86 1470.77 Q1833.73 1469.03 1829.91 1469.03 L1825.88 1469.03 L1825.88 1465.19 L1830.09 1465.19 Q1833.54 1465.19 1835.37 1463.82 Q1837.2 1462.43 1837.2 1459.84 Q1837.2 1457.18 1835.3 1455.77 Q1833.43 1454.33 1829.91 1454.33 Q1827.99 1454.33 1825.79 1454.75 Q1823.59 1455.16 1820.95 1456.04 L1820.95 1451.88 Q1823.61 1451.14 1825.93 1450.77 Q1828.27 1450.39 1830.33 1450.39 Q1835.65 1450.39 1838.75 1452.83 Q1841.85 1455.23 1841.85 1459.35 Q1841.85 1462.22 1840.21 1464.21 Q1838.57 1466.18 1835.53 1466.95 Z" fill="#000000" fill-rule="nonzero" fill-opacity="1" /><path clip-path="url(#clip890)" d="M2329.9 1454.1 Q2326.29 1454.1 2324.46 1457.66 Q2322.65 1461.2 2322.65 1468.33 Q2322.65 1475.44 2324.46 1479.01 Q2326.29 1482.55 2329.9 1482.55 Q2333.53 1482.55 2335.34 1479.01 Q2337.17 1475.44 2337.17 1468.33 Q2337.17 1461.2 2335.34 1457.66 Q2333.53 1454.1 2329.9 1454.1 M2329.9 1450.39 Q2335.71 1450.39 2338.76 1455 Q2341.84 1459.58 2341.84 1468.33 Q2341.84 1477.06 2338.76 1481.67 Q2335.71 1486.25 2329.9 1486.25 Q2324.09 1486.25 2321.01 1481.67 Q2317.95 1477.06 2317.95 1468.33 Q2317.95 1459.58 2321.01 1455 Q2324.09 1450.39 2329.9 1450.39 Z" fill="#000000" fill-rule="nonzero" fill-opacity="1" /><path clip-path="url(#clip890)" d="M2350.06 1479.7 L2354.94 1479.7 L2354.94 1485.58 L2350.06 1485.58 L2350.06 1479.7 Z" fill="#000000" fill-rule="nonzero" fill-opacity="1" /><path clip-path="url(#clip890)" d="M2377.98 1455.09 L2366.17 1473.54 L2377.98 1473.54 L2377.98 1455.09 M2376.75 1451.02 L2382.63 1451.02 L2382.63 1473.54 L2387.56 1473.54 L2387.56 1477.43 L2382.63 1477.43 L2382.63 1485.58 L2377.98 1485.58 L2377.98 1477.43 L2362.37 1477.43 L2362.37 1472.92 L2376.75 1451.02 Z" fill="#000000" fill-rule="nonzero" fill-opacity="1" /><path clip-path="url(#clip890)" d="M1263.16 1522.27 L1263.16 1532.4 L1275.22 1532.4 L1275.22 1536.95 L1263.16 1536.95 L1263.16 1556.3 Q1263.16 1560.66 1264.34 1561.9 Q1265.55 1563.14 1269.21 1563.14 L1275.22 1563.14 L1275.22 1568.04 L1269.21 1568.04 Q1262.43 1568.04 1259.85 1565.53 Q1257.27 1562.98 1257.27 1556.3 L1257.27 1536.95 L1252.98 1536.95 L1252.98 1532.4 L1257.27 1532.4 L1257.27 1522.27 L1263.16 1522.27 Z" fill="#000000" fill-rule="nonzero" fill-opacity="1" /><polyline clip-path="url(#clip892)" style="stroke:#000000; stroke-linecap:round; stroke-linejoin:round; stroke-width:2; stroke-opacity:0.1; fill:none" points="175.445,1348.84 2352.76,1348.84 "/>
<polyline clip-path="url(#clip892)" style="stroke:#000000; stroke-linecap:round; stroke-linejoin:round; stroke-width:2; stroke-opacity:0.1; fill:none" points="175.445,1160.29 2352.76,1160.29 "/>
<polyline clip-path="url(#clip892)" style="stroke:#000000; stroke-linecap:round; stroke-linejoin:round; stroke-width:2; stroke-opacity:0.1; fill:none" points="175.445,971.749 2352.76,971.749 "/>
<polyline clip-path="url(#clip892)" style="stroke:#000000; stroke-linecap:round; stroke-linejoin:round; stroke-width:2; stroke-opacity:0.1; fill:none" points="175.445,783.206 2352.76,783.206 "/>
<polyline clip-path="url(#clip892)" style="stroke:#000000; stroke-linecap:round; stroke-linejoin:round; stroke-width:2; stroke-opacity:0.1; fill:none" points="175.445,594.663 2352.76,594.663 "/>
<polyline clip-path="url(#clip892)" style="stroke:#000000; stroke-linecap:round; stroke-linejoin:round; stroke-width:2; stroke-opacity:0.1; fill:none" points="175.445,406.12 2352.76,406.12 "/>
<polyline clip-path="url(#clip892)" style="stroke:#000000; stroke-linecap:round; stroke-linejoin:round; stroke-width:2; stroke-opacity:0.1; fill:none" points="175.445,217.577 2352.76,217.577 "/>
<polyline clip-path="url(#clip890)" style="stroke:#000000; stroke-linecap:round; stroke-linejoin:round; stroke-width:4; stroke-opacity:1; fill:none" points="175.445,1423.18 175.445,123.472 "/>
<polyline clip-path="url(#clip890)" style="stroke:#000000; stroke-linecap:round; stroke-linejoin:round; stroke-width:4; stroke-opacity:1; fill:none" points="175.445,1348.84 194.343,1348.84 "/>
<polyline clip-path="url(#clip890)" style="stroke:#000000; stroke-linecap:round; stroke-linejoin:round; stroke-width:4; stroke-opacity:1; fill:none" points="175.445,1160.29 194.343,1160.29 "/>
<polyline clip-path="url(#clip890)" style="stroke:#000000; stroke-linecap:round; stroke-linejoin:round; stroke-width:4; stroke-opacity:1; fill:none" points="175.445,971.749 194.343,971.749 "/>
<polyline clip-path="url(#clip890)" style="stroke:#000000; stroke-linecap:round; stroke-linejoin:round; stroke-width:4; stroke-opacity:1; fill:none" points="175.445,783.206 194.343,783.206 "/>
<polyline clip-path="url(#clip890)" style="stroke:#000000; stroke-linecap:round; stroke-linejoin:round; stroke-width:4; stroke-opacity:1; fill:none" points="175.445,594.663 194.343,594.663 "/>
<polyline clip-path="url(#clip890)" style="stroke:#000000; stroke-linecap:round; stroke-linejoin:round; stroke-width:4; stroke-opacity:1; fill:none" points="175.445,406.12 194.343,406.12 "/>
<polyline clip-path="url(#clip890)" style="stroke:#000000; stroke-linecap:round; stroke-linejoin:round; stroke-width:4; stroke-opacity:1; fill:none" points="175.445,217.577 194.343,217.577 "/>
<path clip-path="url(#clip890)" d="M119.538 1362.18 L127.177 1362.18 L127.177 1335.81 L118.867 1337.48 L118.867 1333.22 L127.13 1331.56 L131.806 1331.56 L131.806 1362.18 L139.445 1362.18 L139.445 1366.12 L119.538 1366.12 L119.538 1362.18 Z" fill="#000000" fill-rule="nonzero" fill-opacity="1" /><path clip-path="url(#clip890)" d="M123.126 1173.64 L139.445 1173.64 L139.445 1177.57 L117.501 1177.57 L117.501 1173.64 Q120.163 1170.88 124.746 1166.25 Q129.353 1161.6 130.533 1160.26 Q132.779 1157.73 133.658 1156 Q134.561 1154.24 134.561 1152.55 Q134.561 1149.79 132.617 1148.06 Q130.695 1146.32 127.593 1146.32 Q125.394 1146.32 122.941 1147.09 Q120.51 1147.85 117.732 1149.4 L117.732 1144.68 Q120.556 1143.54 123.01 1142.97 Q125.464 1142.39 127.501 1142.39 Q132.871 1142.39 136.066 1145.07 Q139.26 1147.76 139.26 1152.25 Q139.26 1154.38 138.45 1156.3 Q137.663 1158.2 135.556 1160.79 Q134.978 1161.46 131.876 1164.68 Q128.774 1167.87 123.126 1173.64 Z" fill="#000000" fill-rule="nonzero" fill-opacity="1" /><path clip-path="url(#clip890)" d="M132.316 970.395 Q135.672 971.112 137.547 973.381 Q139.445 975.649 139.445 978.983 Q139.445 984.098 135.927 986.899 Q132.408 989.7 125.927 989.7 Q123.751 989.7 121.436 989.26 Q119.144 988.844 116.691 987.987 L116.691 983.473 Q118.635 984.608 120.95 985.186 Q123.265 985.765 125.788 985.765 Q130.186 985.765 132.478 984.029 Q134.792 982.293 134.792 978.983 Q134.792 975.927 132.64 974.214 Q130.51 972.478 126.691 972.478 L122.663 972.478 L122.663 968.636 L126.876 968.636 Q130.325 968.636 132.154 967.27 Q133.982 965.881 133.982 963.288 Q133.982 960.626 132.084 959.214 Q130.209 957.779 126.691 957.779 Q124.769 957.779 122.57 958.196 Q120.371 958.612 117.732 959.492 L117.732 955.325 Q120.394 954.585 122.709 954.214 Q125.047 953.844 127.107 953.844 Q132.431 953.844 135.533 956.274 Q138.635 958.682 138.635 962.802 Q138.635 965.673 136.992 967.663 Q135.348 969.631 132.316 970.395 Z" fill="#000000" fill-rule="nonzero" fill-opacity="1" /><path clip-path="url(#clip890)" d="M129.862 770 L118.056 788.449 L129.862 788.449 L129.862 770 M128.635 765.926 L134.515 765.926 L134.515 788.449 L139.445 788.449 L139.445 792.338 L134.515 792.338 L134.515 800.486 L129.862 800.486 L129.862 792.338 L114.26 792.338 L114.26 787.824 L128.635 765.926 Z" fill="#000000" fill-rule="nonzero" fill-opacity="1" /><path clip-path="url(#clip890)" d="M118.543 577.383 L136.899 577.383 L136.899 581.318 L122.825 581.318 L122.825 589.79 Q123.843 589.443 124.862 589.281 Q125.88 589.096 126.899 589.096 Q132.686 589.096 136.066 592.267 Q139.445 595.438 139.445 600.855 Q139.445 606.434 135.973 609.535 Q132.501 612.614 126.181 612.614 Q124.005 612.614 121.737 612.244 Q119.492 611.873 117.084 611.133 L117.084 606.434 Q119.168 607.568 121.39 608.123 Q123.612 608.679 126.089 608.679 Q130.093 608.679 132.431 606.572 Q134.769 604.466 134.769 600.855 Q134.769 597.244 132.431 595.137 Q130.093 593.031 126.089 593.031 Q124.214 593.031 122.339 593.448 Q120.487 593.864 118.543 594.744 L118.543 577.383 Z" fill="#000000" fill-rule="nonzero" fill-opacity="1" /><path clip-path="url(#clip890)" d="M127.917 404.256 Q124.769 404.256 122.918 406.409 Q121.089 408.562 121.089 412.312 Q121.089 416.039 122.918 418.215 Q124.769 420.367 127.917 420.367 Q131.066 420.367 132.894 418.215 Q134.746 416.039 134.746 412.312 Q134.746 408.562 132.894 406.409 Q131.066 404.256 127.917 404.256 M137.2 389.604 L137.2 393.863 Q135.441 393.03 133.635 392.59 Q131.853 392.15 130.093 392.15 Q125.464 392.15 123.01 395.275 Q120.58 398.4 120.232 404.719 Q121.598 402.705 123.658 401.641 Q125.718 400.553 128.195 400.553 Q133.404 400.553 136.413 403.724 Q139.445 406.872 139.445 412.312 Q139.445 417.636 136.297 420.853 Q133.149 424.071 127.917 424.071 Q121.922 424.071 118.751 419.488 Q115.58 414.881 115.58 406.154 Q115.58 397.96 119.468 393.099 Q123.357 388.215 129.908 388.215 Q131.667 388.215 133.45 388.562 Q135.255 388.909 137.2 389.604 Z" fill="#000000" fill-rule="nonzero" fill-opacity="1" /><path clip-path="url(#clip890)" d="M117.223 200.297 L139.445 200.297 L139.445 202.287 L126.899 234.857 L122.015 234.857 L133.82 204.232 L117.223 204.232 L117.223 200.297 Z" fill="#000000" fill-rule="nonzero" fill-opacity="1" /><path clip-path="url(#clip890)" d="M14.479 962.228 L14.479 956.372 L64.0042 956.372 L64.0042 962.228 L14.479 962.228 Z" fill="#000000" fill-rule="nonzero" fill-opacity="1" /><path clip-path="url(#clip890)" d="M32.4621 930.304 Q32.4621 935.015 36.1542 937.752 Q39.8145 940.489 46.212 940.489 Q52.6095 940.489 56.3017 937.784 Q59.9619 935.047 59.9619 930.304 Q59.9619 925.626 56.2698 922.888 Q52.5777 920.151 46.212 920.151 Q39.8781 920.151 36.186 922.888 Q32.4621 925.626 32.4621 930.304 M27.4968 930.304 Q27.4968 922.665 32.4621 918.305 Q37.4273 913.944 46.212 913.944 Q54.9649 913.944 59.9619 918.305 Q64.9272 922.665 64.9272 930.304 Q64.9272 937.975 59.9619 942.335 Q54.9649 946.664 46.212 946.664 Q37.4273 946.664 32.4621 942.335 Q27.4968 937.975 27.4968 930.304 Z" fill="#000000" fill-rule="nonzero" fill-opacity="1" /><path clip-path="url(#clip890)" d="M45.7664 880.779 Q39.4007 880.779 35.8996 883.421 Q32.3984 886.031 32.3984 890.773 Q32.3984 895.484 35.8996 898.126 Q39.4007 900.736 45.7664 900.736 Q52.1003 900.736 55.6014 898.126 Q59.1026 895.484 59.1026 890.773 Q59.1026 886.031 55.6014 883.421 Q52.1003 880.779 45.7664 880.779 M59.58 874.923 Q68.683 874.923 73.1071 878.965 Q77.5631 883.007 77.5631 891.346 Q77.5631 894.434 77.0857 897.171 Q76.6401 899.908 75.6852 902.486 L69.9879 902.486 Q71.3884 899.908 72.0568 897.394 Q72.7252 894.879 72.7252 892.269 Q72.7252 886.508 69.7015 883.644 Q66.7096 880.779 60.6303 880.779 L57.7339 880.779 Q60.885 882.593 62.4446 885.426 Q64.0042 888.259 64.0042 892.206 Q64.0042 898.762 59.0071 902.773 Q54.01 906.783 45.7664 906.783 Q37.491 906.783 32.4939 902.773 Q27.4968 898.762 27.4968 892.206 Q27.4968 888.259 29.0564 885.426 Q30.616 882.593 33.7671 880.779 L28.3562 880.779 L28.3562 874.923 L59.58 874.923 Z" fill="#000000" fill-rule="nonzero" fill-opacity="1" /><path clip-path="url(#clip890)" d="M58.5933 860.918 L58.5933 850.415 L22.3406 850.415 L24.6323 861.841 L18.7758 861.841 L16.4842 850.478 L16.4842 844.049 L58.5933 844.049 L58.5933 833.546 L64.0042 833.546 L64.0042 860.918 L58.5933 860.918 Z" fill="#000000" fill-rule="nonzero" fill-opacity="1" /><path clip-path="url(#clip890)" d="M20.7174 806.81 Q20.7174 811.775 25.6189 814.289 Q30.4887 816.772 40.2919 816.772 Q50.0633 816.772 54.9649 814.289 Q59.8346 811.775 59.8346 806.81 Q59.8346 801.813 54.9649 799.33 Q50.0633 796.815 40.2919 796.815 Q30.4887 796.815 25.6189 799.33 Q20.7174 801.813 20.7174 806.81 M15.6248 806.81 Q15.6248 798.821 21.9587 794.619 Q28.2607 790.386 40.2919 790.386 Q52.2913 790.386 58.6251 794.619 Q64.9272 798.821 64.9272 806.81 Q64.9272 814.799 58.6251 819.032 Q52.2913 823.233 40.2919 823.233 Q28.2607 823.233 21.9587 819.032 Q15.6248 814.799 15.6248 806.81 Z" fill="#000000" fill-rule="nonzero" fill-opacity="1" /><path clip-path="url(#clip890)" d="M14.5426 765.846 Q21.8632 770.111 29.0246 772.18 Q36.186 774.249 43.5384 774.249 Q50.8908 774.249 58.1159 772.18 Q65.3091 770.079 72.5979 765.846 L72.5979 770.939 Q65.1182 775.713 57.8931 778.1 Q50.668 780.456 43.5384 780.456 Q36.4406 780.456 29.2474 778.1 Q22.0542 775.745 14.5426 770.939 L14.5426 765.846 Z" fill="#000000" fill-rule="nonzero" fill-opacity="1" /><path clip-path="url(#clip890)" d="M33.7671 731.026 L14.479 731.026 L14.479 725.169 L64.0042 725.169 L64.0042 731.026 L58.657 731.026 Q61.8398 732.872 63.3994 735.705 Q64.9272 738.506 64.9272 742.452 Q64.9272 748.913 59.771 752.988 Q54.6147 757.03 46.212 757.03 Q37.8093 757.03 32.6531 752.988 Q27.4968 748.913 27.4968 742.452 Q27.4968 738.506 29.0564 735.705 Q30.5842 732.872 33.7671 731.026 M46.212 750.982 Q52.6732 750.982 56.3653 748.341 Q60.0256 745.667 60.0256 741.02 Q60.0256 736.373 56.3653 733.699 Q52.6732 731.026 46.212 731.026 Q39.7508 731.026 36.0905 733.699 Q32.3984 736.373 32.3984 741.02 Q32.3984 745.667 36.0905 748.341 Q39.7508 750.982 46.212 750.982 Z" fill="#000000" fill-rule="nonzero" fill-opacity="1" /><path clip-path="url(#clip890)" d="M28.3562 683.474 L45.7028 696.365 L64.0042 682.806 L64.0042 689.712 L49.9996 700.089 L64.0042 710.465 L64.0042 717.371 L45.3526 703.526 L28.3562 716.194 L28.3562 709.287 L41.0558 699.834 L28.3562 690.381 L28.3562 683.474 Z" fill="#000000" fill-rule="nonzero" fill-opacity="1" /><path clip-path="url(#clip890)" d="M14.5426 660.462 Q21.8632 664.727 29.0246 666.796 Q36.186 668.865 43.5384 668.865 Q50.8908 668.865 58.1159 666.796 Q65.3091 664.695 72.5979 660.462 L72.5979 665.555 Q65.1182 670.329 57.8931 672.716 Q50.668 675.071 43.5384 675.071 Q36.4406 675.071 29.2474 672.716 Q22.0542 670.361 14.5426 665.555 L14.5426 660.462 Z" fill="#000000" fill-rule="nonzero" fill-opacity="1" /><path clip-path="url(#clip890)" d="M18.2347 643.306 L28.3562 643.306 L28.3562 631.243 L32.9077 631.243 L32.9077 643.306 L52.2594 643.306 Q56.6199 643.306 57.8613 642.129 Q59.1026 640.919 59.1026 637.259 L59.1026 631.243 L64.0042 631.243 L64.0042 637.259 Q64.0042 644.038 61.4897 646.617 Q58.9434 649.195 52.2594 649.195 L32.9077 649.195 L32.9077 653.492 L28.3562 653.492 L28.3562 649.195 L18.2347 649.195 L18.2347 643.306 Z" fill="#000000" fill-rule="nonzero" fill-opacity="1" /><path clip-path="url(#clip890)" d="M14.5426 624.464 L14.5426 619.371 Q22.0542 614.597 29.2474 612.242 Q36.4406 609.855 43.5384 609.855 Q50.668 609.855 57.8931 612.242 Q65.1182 614.597 72.5979 619.371 L72.5979 624.464 Q65.3091 620.231 58.1159 618.162 Q50.8908 616.061 43.5384 616.061 Q36.186 616.061 29.0246 618.162 Q21.8632 620.231 14.5426 624.464 Z" fill="#000000" fill-rule="nonzero" fill-opacity="1" /><path clip-path="url(#clip890)" d="M14.5426 599.033 L14.5426 593.94 Q22.0542 589.166 29.2474 586.811 Q36.4406 584.424 43.5384 584.424 Q50.668 584.424 57.8931 586.811 Q65.1182 589.166 72.5979 593.94 L72.5979 599.033 Q65.3091 594.8 58.1159 592.731 Q50.8908 590.63 43.5384 590.63 Q36.186 590.63 29.0246 592.731 Q21.8632 594.8 14.5426 599.033 Z" fill="#000000" fill-rule="nonzero" fill-opacity="1" /><path clip-path="url(#clip890)" d="M1160.86 12.096 L1195.62 12.096 L1195.62 18.9825 L1169.05 18.9825 L1169.05 36.8065 L1193.03 36.8065 L1193.03 43.6931 L1169.05 43.6931 L1169.05 72.576 L1160.86 72.576 L1160.86 12.096 Z" fill="#000000" fill-rule="nonzero" fill-opacity="1" /><path clip-path="url(#clip890)" d="M1202.22 27.2059 L1209.68 27.2059 L1209.68 72.576 L1202.22 72.576 L1202.22 27.2059 M1202.22 9.54393 L1209.68 9.54393 L1209.68 18.9825 L1202.22 18.9825 L1202.22 9.54393 Z" fill="#000000" fill-rule="nonzero" fill-opacity="1" /><path clip-path="url(#clip890)" d="M1255.13 49.3643 Q1255.13 41.2625 1251.77 36.8065 Q1248.44 32.3505 1242.41 32.3505 Q1236.41 32.3505 1233.05 36.8065 Q1229.73 41.2625 1229.73 49.3643 Q1229.73 57.4256 1233.05 61.8816 Q1236.41 66.3376 1242.41 66.3376 Q1248.44 66.3376 1251.77 61.8816 Q1255.13 57.4256 1255.13 49.3643 M1262.58 66.9452 Q1262.58 78.5308 1257.44 84.1616 Q1252.29 89.8329 1241.68 89.8329 Q1237.75 89.8329 1234.27 89.2252 Q1230.78 88.6581 1227.5 87.4428 L1227.5 80.1917 Q1230.78 81.9741 1233.98 82.8248 Q1237.18 83.6755 1240.5 83.6755 Q1247.84 83.6755 1251.48 79.8271 Q1255.13 76.0193 1255.13 68.282 L1255.13 64.5957 Q1252.82 68.6061 1249.21 70.5911 Q1245.61 72.576 1240.59 72.576 Q1232.24 72.576 1227.14 66.2161 Q1222.03 59.8562 1222.03 49.3643 Q1222.03 38.832 1227.14 32.472 Q1232.24 26.1121 1240.59 26.1121 Q1245.61 26.1121 1249.21 28.0971 Q1252.82 30.082 1255.13 34.0924 L1255.13 27.2059 L1262.58 27.2059 L1262.58 66.9452 Z" fill="#000000" fill-rule="nonzero" fill-opacity="1" /><path clip-path="url(#clip890)" d="M1278.99 62.2867 L1287.54 62.2867 L1287.54 72.576 L1278.99 72.576 L1278.99 62.2867 Z" fill="#000000" fill-rule="nonzero" fill-opacity="1" /><path clip-path="url(#clip890)" d="M1338.78 65.6895 L1367.34 65.6895 L1367.34 72.576 L1328.94 72.576 L1328.94 65.6895 Q1333.59 60.8689 1341.61 52.7671 Q1349.68 44.6248 1351.74 42.2752 Q1355.67 37.8598 1357.21 34.8216 Q1358.79 31.7429 1358.79 28.7857 Q1358.79 23.9651 1355.39 20.927 Q1352.03 17.8888 1346.6 17.8888 Q1342.75 17.8888 1338.45 19.2256 Q1334.2 20.5624 1329.34 23.2765 L1329.34 15.0127 Q1334.28 13.0277 1338.58 12.015 Q1342.87 11.0023 1346.44 11.0023 Q1355.83 11.0023 1361.42 15.7013 Q1367.01 20.4004 1367.01 28.2591 Q1367.01 31.9859 1365.6 35.3482 Q1364.22 38.6699 1360.53 43.2069 Q1359.52 44.3817 1354.09 50.0125 Q1348.66 55.6027 1338.78 65.6895 Z" fill="#000000" fill-rule="nonzero" fill-opacity="1" /><polyline clip-path="url(#clip892)" style="stroke:#009af9; stroke-linecap:round; stroke-linejoin:round; stroke-width:4; stroke-opacity:1; fill:none" points="1128.73,1386.4 1245.78,1374.43 1346.31,1362.55 1432.73,1350.74 1507.1,1339.01 1571.15,1327.35 1626.38,1315.77 1674.05,1304.26 1715.22,1292.82 1750.81,1281.46 1781.62,1270.16 1808.3,1258.94 1831.43,1247.78 1851.5,1236.69 1868.93,1225.66 1884.08,1214.71 1897.25,1203.81 1908.73,1192.99 1918.72,1182.22 1927.44,1171.52 1935.05,1160.88 1941.69,1150.3 1947.5,1139.79 1952.58,1129.33 1957.03,1118.93 1960.92,1108.59 1964.34,1098.31 1967.34,1088.08 1969.97,1077.91 1972.28,1067.8 1974.31,1057.74 1976.1,1047.74 1977.68,1037.79 1979.07,1027.9 1980.29,1018.05 1981.37,1008.26 1982.32,998.525 1983.16,988.837 1983.91,979.2 1984.57,969.613 1985.15,960.075 1985.67,950.587 1986.12,941.147 1986.53,931.754 1986.89,922.41 1987.21,913.112 1987.5,903.86 1987.75,894.655 1987.97,885.495 1988.17,876.38 1988.35,867.31 1988.51,858.284 1988.65,849.302 1988.78,840.363 1988.89,831.466 1988.99,822.613 1989.08,813.801 1989.16,805.031 1989.23,796.302 1989.3,787.614 1989.35,778.966 1989.41,770.358 1989.45,761.79 1989.49,753.262 1989.53,744.772 1989.56,736.321 1989.59,727.908 1989.62,719.532 1989.64,711.195 1989.67,702.894 1989.69,694.63 1989.7,686.403 1989.72,678.212 1989.73,670.057 1989.75,661.937 1989.76,653.852 1989.77,645.803 1989.78,637.787 1989.79,629.807 1989.79,621.86 1989.8,613.946 1989.81,606.067 1989.81,598.22 1989.82,590.406 1989.82,582.624 1989.83,574.875 1989.83,567.158 1989.84,559.472 1989.84,551.818 1989.84,544.196 1989.84,536.604 1989.85,529.042 1989.85,521.511 1989.85,514.011 1989.85,506.54 1989.85,499.099 1989.86,491.687 1989.86,484.305 1989.86,476.951 1989.86,469.626 1989.86,462.33 1989.86,455.062 1989.86,447.822 1989.86,440.61 1989.86,433.426 1989.86,426.268 1989.86,419.139 1989.86,412.036 1989.87,404.959 1989.87,397.91 1989.87,390.887 1989.87,383.889 1989.87,376.918 1989.87,369.973 1989.87,363.053 1989.87,356.159 1989.87,349.289 1989.87,342.445 1989.87,335.626 1989.87,328.831 1989.87,322.06 1989.87,315.314 1989.87,308.592 1989.87,301.894 1989.87,295.22 1989.87,288.569 1989.87,281.942 1989.87,275.338 1989.87,268.757 1989.87,262.199 1989.87,255.663 1989.87,249.15 1989.87,242.66 1989.87,236.192 1989.87,229.746 1989.87,223.322 1989.87,216.92 1989.87,210.539 1989.87,204.18 1989.87,197.842 1989.87,191.526 1989.87,185.23 1989.87,178.956 1989.87,172.702 1989.87,166.469 1989.87,160.256 "/>
<circle clip-path="url(#clip892)" cx="1128.73" cy="1386.4" r="14.4" fill="#009af9" fill-rule="evenodd" fill-opacity="1" stroke="#000000" stroke-opacity="1" stroke-width="3.2"/>
<circle clip-path="url(#clip892)" cx="1245.78" cy="1374.43" r="14.4" fill="#009af9" fill-rule="evenodd" fill-opacity="1" stroke="#000000" stroke-opacity="1" stroke-width="3.2"/>
<circle clip-path="url(#clip892)" cx="1346.31" cy="1362.55" r="14.4" fill="#009af9" fill-rule="evenodd" fill-opacity="1" stroke="#000000" stroke-opacity="1" stroke-width="3.2"/>
<circle clip-path="url(#clip892)" cx="1432.73" cy="1350.74" r="14.4" fill="#009af9" fill-rule="evenodd" fill-opacity="1" stroke="#000000" stroke-opacity="1" stroke-width="3.2"/>
<circle clip-path="url(#clip892)" cx="1507.1" cy="1339.01" r="14.4" fill="#009af9" fill-rule="evenodd" fill-opacity="1" stroke="#000000" stroke-opacity="1" stroke-width="3.2"/>
<circle clip-path="url(#clip892)" cx="1571.15" cy="1327.35" r="14.4" fill="#009af9" fill-rule="evenodd" fill-opacity="1" stroke="#000000" stroke-opacity="1" stroke-width="3.2"/>
<circle clip-path="url(#clip892)" cx="1626.38" cy="1315.77" r="14.4" fill="#009af9" fill-rule="evenodd" fill-opacity="1" stroke="#000000" stroke-opacity="1" stroke-width="3.2"/>
<circle clip-path="url(#clip892)" cx="1674.05" cy="1304.26" r="14.4" fill="#009af9" fill-rule="evenodd" fill-opacity="1" stroke="#000000" stroke-opacity="1" stroke-width="3.2"/>
<circle clip-path="url(#clip892)" cx="1715.22" cy="1292.82" r="14.4" fill="#009af9" fill-rule="evenodd" fill-opacity="1" stroke="#000000" stroke-opacity="1" stroke-width="3.2"/>
<circle clip-path="url(#clip892)" cx="1750.81" cy="1281.46" r="14.4" fill="#009af9" fill-rule="evenodd" fill-opacity="1" stroke="#000000" stroke-opacity="1" stroke-width="3.2"/>
<circle clip-path="url(#clip892)" cx="1781.62" cy="1270.16" r="14.4" fill="#009af9" fill-rule="evenodd" fill-opacity="1" stroke="#000000" stroke-opacity="1" stroke-width="3.2"/>
<circle clip-path="url(#clip892)" cx="1808.3" cy="1258.94" r="14.4" fill="#009af9" fill-rule="evenodd" fill-opacity="1" stroke="#000000" stroke-opacity="1" stroke-width="3.2"/>
<circle clip-path="url(#clip892)" cx="1831.43" cy="1247.78" r="14.4" fill="#009af9" fill-rule="evenodd" fill-opacity="1" stroke="#000000" stroke-opacity="1" stroke-width="3.2"/>
<circle clip-path="url(#clip892)" cx="1851.5" cy="1236.69" r="14.4" fill="#009af9" fill-rule="evenodd" fill-opacity="1" stroke="#000000" stroke-opacity="1" stroke-width="3.2"/>
<circle clip-path="url(#clip892)" cx="1868.93" cy="1225.66" r="14.4" fill="#009af9" fill-rule="evenodd" fill-opacity="1" stroke="#000000" stroke-opacity="1" stroke-width="3.2"/>
<circle clip-path="url(#clip892)" cx="1884.08" cy="1214.71" r="14.4" fill="#009af9" fill-rule="evenodd" fill-opacity="1" stroke="#000000" stroke-opacity="1" stroke-width="3.2"/>
<circle clip-path="url(#clip892)" cx="1897.25" cy="1203.81" r="14.4" fill="#009af9" fill-rule="evenodd" fill-opacity="1" stroke="#000000" stroke-opacity="1" stroke-width="3.2"/>
<circle clip-path="url(#clip892)" cx="1908.73" cy="1192.99" r="14.4" fill="#009af9" fill-rule="evenodd" fill-opacity="1" stroke="#000000" stroke-opacity="1" stroke-width="3.2"/>
<circle clip-path="url(#clip892)" cx="1918.72" cy="1182.22" r="14.4" fill="#009af9" fill-rule="evenodd" fill-opacity="1" stroke="#000000" stroke-opacity="1" stroke-width="3.2"/>
<circle clip-path="url(#clip892)" cx="1927.44" cy="1171.52" r="14.4" fill="#009af9" fill-rule="evenodd" fill-opacity="1" stroke="#000000" stroke-opacity="1" stroke-width="3.2"/>
<circle clip-path="url(#clip892)" cx="1935.05" cy="1160.88" r="14.4" fill="#009af9" fill-rule="evenodd" fill-opacity="1" stroke="#000000" stroke-opacity="1" stroke-width="3.2"/>
<circle clip-path="url(#clip892)" cx="1941.69" cy="1150.3" r="14.4" fill="#009af9" fill-rule="evenodd" fill-opacity="1" stroke="#000000" stroke-opacity="1" stroke-width="3.2"/>
<circle clip-path="url(#clip892)" cx="1947.5" cy="1139.79" r="14.4" fill="#009af9" fill-rule="evenodd" fill-opacity="1" stroke="#000000" stroke-opacity="1" stroke-width="3.2"/>
<circle clip-path="url(#clip892)" cx="1952.58" cy="1129.33" r="14.4" fill="#009af9" fill-rule="evenodd" fill-opacity="1" stroke="#000000" stroke-opacity="1" stroke-width="3.2"/>
<circle clip-path="url(#clip892)" cx="1957.03" cy="1118.93" r="14.4" fill="#009af9" fill-rule="evenodd" fill-opacity="1" stroke="#000000" stroke-opacity="1" stroke-width="3.2"/>
<circle clip-path="url(#clip892)" cx="1960.92" cy="1108.59" r="14.4" fill="#009af9" fill-rule="evenodd" fill-opacity="1" stroke="#000000" stroke-opacity="1" stroke-width="3.2"/>
<circle clip-path="url(#clip892)" cx="1964.34" cy="1098.31" r="14.4" fill="#009af9" fill-rule="evenodd" fill-opacity="1" stroke="#000000" stroke-opacity="1" stroke-width="3.2"/>
<circle clip-path="url(#clip892)" cx="1967.34" cy="1088.08" r="14.4" fill="#009af9" fill-rule="evenodd" fill-opacity="1" stroke="#000000" stroke-opacity="1" stroke-width="3.2"/>
<circle clip-path="url(#clip892)" cx="1969.97" cy="1077.91" r="14.4" fill="#009af9" fill-rule="evenodd" fill-opacity="1" stroke="#000000" stroke-opacity="1" stroke-width="3.2"/>
<circle clip-path="url(#clip892)" cx="1972.28" cy="1067.8" r="14.4" fill="#009af9" fill-rule="evenodd" fill-opacity="1" stroke="#000000" stroke-opacity="1" stroke-width="3.2"/>
<circle clip-path="url(#clip892)" cx="1974.31" cy="1057.74" r="14.4" fill="#009af9" fill-rule="evenodd" fill-opacity="1" stroke="#000000" stroke-opacity="1" stroke-width="3.2"/>
<circle clip-path="url(#clip892)" cx="1976.1" cy="1047.74" r="14.4" fill="#009af9" fill-rule="evenodd" fill-opacity="1" stroke="#000000" stroke-opacity="1" stroke-width="3.2"/>
<circle clip-path="url(#clip892)" cx="1977.68" cy="1037.79" r="14.4" fill="#009af9" fill-rule="evenodd" fill-opacity="1" stroke="#000000" stroke-opacity="1" stroke-width="3.2"/>
<circle clip-path="url(#clip892)" cx="1979.07" cy="1027.9" r="14.4" fill="#009af9" fill-rule="evenodd" fill-opacity="1" stroke="#000000" stroke-opacity="1" stroke-width="3.2"/>
<circle clip-path="url(#clip892)" cx="1980.29" cy="1018.05" r="14.4" fill="#009af9" fill-rule="evenodd" fill-opacity="1" stroke="#000000" stroke-opacity="1" stroke-width="3.2"/>
<circle clip-path="url(#clip892)" cx="1981.37" cy="1008.26" r="14.4" fill="#009af9" fill-rule="evenodd" fill-opacity="1" stroke="#000000" stroke-opacity="1" stroke-width="3.2"/>
<circle clip-path="url(#clip892)" cx="1982.32" cy="998.525" r="14.4" fill="#009af9" fill-rule="evenodd" fill-opacity="1" stroke="#000000" stroke-opacity="1" stroke-width="3.2"/>
<circle clip-path="url(#clip892)" cx="1983.16" cy="988.837" r="14.4" fill="#009af9" fill-rule="evenodd" fill-opacity="1" stroke="#000000" stroke-opacity="1" stroke-width="3.2"/>
<circle clip-path="url(#clip892)" cx="1983.91" cy="979.2" r="14.4" fill="#009af9" fill-rule="evenodd" fill-opacity="1" stroke="#000000" stroke-opacity="1" stroke-width="3.2"/>
<circle clip-path="url(#clip892)" cx="1984.57" cy="969.613" r="14.4" fill="#009af9" fill-rule="evenodd" fill-opacity="1" stroke="#000000" stroke-opacity="1" stroke-width="3.2"/>
<circle clip-path="url(#clip892)" cx="1985.15" cy="960.075" r="14.4" fill="#009af9" fill-rule="evenodd" fill-opacity="1" stroke="#000000" stroke-opacity="1" stroke-width="3.2"/>
<circle clip-path="url(#clip892)" cx="1985.67" cy="950.587" r="14.4" fill="#009af9" fill-rule="evenodd" fill-opacity="1" stroke="#000000" stroke-opacity="1" stroke-width="3.2"/>
<circle clip-path="url(#clip892)" cx="1986.12" cy="941.147" r="14.4" fill="#009af9" fill-rule="evenodd" fill-opacity="1" stroke="#000000" stroke-opacity="1" stroke-width="3.2"/>
<circle clip-path="url(#clip892)" cx="1986.53" cy="931.754" r="14.4" fill="#009af9" fill-rule="evenodd" fill-opacity="1" stroke="#000000" stroke-opacity="1" stroke-width="3.2"/>
<circle clip-path="url(#clip892)" cx="1986.89" cy="922.41" r="14.4" fill="#009af9" fill-rule="evenodd" fill-opacity="1" stroke="#000000" stroke-opacity="1" stroke-width="3.2"/>
<circle clip-path="url(#clip892)" cx="1987.21" cy="913.112" r="14.4" fill="#009af9" fill-rule="evenodd" fill-opacity="1" stroke="#000000" stroke-opacity="1" stroke-width="3.2"/>
<circle clip-path="url(#clip892)" cx="1987.5" cy="903.86" r="14.4" fill="#009af9" fill-rule="evenodd" fill-opacity="1" stroke="#000000" stroke-opacity="1" stroke-width="3.2"/>
<circle clip-path="url(#clip892)" cx="1987.75" cy="894.655" r="14.4" fill="#009af9" fill-rule="evenodd" fill-opacity="1" stroke="#000000" stroke-opacity="1" stroke-width="3.2"/>
<circle clip-path="url(#clip892)" cx="1987.97" cy="885.495" r="14.4" fill="#009af9" fill-rule="evenodd" fill-opacity="1" stroke="#000000" stroke-opacity="1" stroke-width="3.2"/>
<circle clip-path="url(#clip892)" cx="1988.17" cy="876.38" r="14.4" fill="#009af9" fill-rule="evenodd" fill-opacity="1" stroke="#000000" stroke-opacity="1" stroke-width="3.2"/>
<circle clip-path="url(#clip892)" cx="1988.35" cy="867.31" r="14.4" fill="#009af9" fill-rule="evenodd" fill-opacity="1" stroke="#000000" stroke-opacity="1" stroke-width="3.2"/>
<circle clip-path="url(#clip892)" cx="1988.51" cy="858.284" r="14.4" fill="#009af9" fill-rule="evenodd" fill-opacity="1" stroke="#000000" stroke-opacity="1" stroke-width="3.2"/>
<circle clip-path="url(#clip892)" cx="1988.65" cy="849.302" r="14.4" fill="#009af9" fill-rule="evenodd" fill-opacity="1" stroke="#000000" stroke-opacity="1" stroke-width="3.2"/>
<circle clip-path="url(#clip892)" cx="1988.78" cy="840.363" r="14.4" fill="#009af9" fill-rule="evenodd" fill-opacity="1" stroke="#000000" stroke-opacity="1" stroke-width="3.2"/>
<circle clip-path="url(#clip892)" cx="1988.89" cy="831.466" r="14.4" fill="#009af9" fill-rule="evenodd" fill-opacity="1" stroke="#000000" stroke-opacity="1" stroke-width="3.2"/>
<circle clip-path="url(#clip892)" cx="1988.99" cy="822.613" r="14.4" fill="#009af9" fill-rule="evenodd" fill-opacity="1" stroke="#000000" stroke-opacity="1" stroke-width="3.2"/>
<circle clip-path="url(#clip892)" cx="1989.08" cy="813.801" r="14.4" fill="#009af9" fill-rule="evenodd" fill-opacity="1" stroke="#000000" stroke-opacity="1" stroke-width="3.2"/>
<circle clip-path="url(#clip892)" cx="1989.16" cy="805.031" r="14.4" fill="#009af9" fill-rule="evenodd" fill-opacity="1" stroke="#000000" stroke-opacity="1" stroke-width="3.2"/>
<circle clip-path="url(#clip892)" cx="1989.23" cy="796.302" r="14.4" fill="#009af9" fill-rule="evenodd" fill-opacity="1" stroke="#000000" stroke-opacity="1" stroke-width="3.2"/>
<circle clip-path="url(#clip892)" cx="1989.3" cy="787.614" r="14.4" fill="#009af9" fill-rule="evenodd" fill-opacity="1" stroke="#000000" stroke-opacity="1" stroke-width="3.2"/>
<circle clip-path="url(#clip892)" cx="1989.35" cy="778.966" r="14.4" fill="#009af9" fill-rule="evenodd" fill-opacity="1" stroke="#000000" stroke-opacity="1" stroke-width="3.2"/>
<circle clip-path="url(#clip892)" cx="1989.41" cy="770.358" r="14.4" fill="#009af9" fill-rule="evenodd" fill-opacity="1" stroke="#000000" stroke-opacity="1" stroke-width="3.2"/>
<circle clip-path="url(#clip892)" cx="1989.45" cy="761.79" r="14.4" fill="#009af9" fill-rule="evenodd" fill-opacity="1" stroke="#000000" stroke-opacity="1" stroke-width="3.2"/>
<circle clip-path="url(#clip892)" cx="1989.49" cy="753.262" r="14.4" fill="#009af9" fill-rule="evenodd" fill-opacity="1" stroke="#000000" stroke-opacity="1" stroke-width="3.2"/>
<circle clip-path="url(#clip892)" cx="1989.53" cy="744.772" r="14.4" fill="#009af9" fill-rule="evenodd" fill-opacity="1" stroke="#000000" stroke-opacity="1" stroke-width="3.2"/>
<circle clip-path="url(#clip892)" cx="1989.56" cy="736.321" r="14.4" fill="#009af9" fill-rule="evenodd" fill-opacity="1" stroke="#000000" stroke-opacity="1" stroke-width="3.2"/>
<circle clip-path="url(#clip892)" cx="1989.59" cy="727.908" r="14.4" fill="#009af9" fill-rule="evenodd" fill-opacity="1" stroke="#000000" stroke-opacity="1" stroke-width="3.2"/>
<circle clip-path="url(#clip892)" cx="1989.62" cy="719.532" r="14.4" fill="#009af9" fill-rule="evenodd" fill-opacity="1" stroke="#000000" stroke-opacity="1" stroke-width="3.2"/>
<circle clip-path="url(#clip892)" cx="1989.64" cy="711.195" r="14.4" fill="#009af9" fill-rule="evenodd" fill-opacity="1" stroke="#000000" stroke-opacity="1" stroke-width="3.2"/>
<circle clip-path="url(#clip892)" cx="1989.67" cy="702.894" r="14.4" fill="#009af9" fill-rule="evenodd" fill-opacity="1" stroke="#000000" stroke-opacity="1" stroke-width="3.2"/>
<circle clip-path="url(#clip892)" cx="1989.69" cy="694.63" r="14.4" fill="#009af9" fill-rule="evenodd" fill-opacity="1" stroke="#000000" stroke-opacity="1" stroke-width="3.2"/>
<circle clip-path="url(#clip892)" cx="1989.7" cy="686.403" r="14.4" fill="#009af9" fill-rule="evenodd" fill-opacity="1" stroke="#000000" stroke-opacity="1" stroke-width="3.2"/>
<circle clip-path="url(#clip892)" cx="1989.72" cy="678.212" r="14.4" fill="#009af9" fill-rule="evenodd" fill-opacity="1" stroke="#000000" stroke-opacity="1" stroke-width="3.2"/>
<circle clip-path="url(#clip892)" cx="1989.73" cy="670.057" r="14.4" fill="#009af9" fill-rule="evenodd" fill-opacity="1" stroke="#000000" stroke-opacity="1" stroke-width="3.2"/>
<circle clip-path="url(#clip892)" cx="1989.75" cy="661.937" r="14.4" fill="#009af9" fill-rule="evenodd" fill-opacity="1" stroke="#000000" stroke-opacity="1" stroke-width="3.2"/>
<circle clip-path="url(#clip892)" cx="1989.76" cy="653.852" r="14.4" fill="#009af9" fill-rule="evenodd" fill-opacity="1" stroke="#000000" stroke-opacity="1" stroke-width="3.2"/>
<circle clip-path="url(#clip892)" cx="1989.77" cy="645.803" r="14.4" fill="#009af9" fill-rule="evenodd" fill-opacity="1" stroke="#000000" stroke-opacity="1" stroke-width="3.2"/>
<circle clip-path="url(#clip892)" cx="1989.78" cy="637.787" r="14.4" fill="#009af9" fill-rule="evenodd" fill-opacity="1" stroke="#000000" stroke-opacity="1" stroke-width="3.2"/>
<circle clip-path="url(#clip892)" cx="1989.79" cy="629.807" r="14.4" fill="#009af9" fill-rule="evenodd" fill-opacity="1" stroke="#000000" stroke-opacity="1" stroke-width="3.2"/>
<circle clip-path="url(#clip892)" cx="1989.79" cy="621.86" r="14.4" fill="#009af9" fill-rule="evenodd" fill-opacity="1" stroke="#000000" stroke-opacity="1" stroke-width="3.2"/>
<circle clip-path="url(#clip892)" cx="1989.8" cy="613.946" r="14.4" fill="#009af9" fill-rule="evenodd" fill-opacity="1" stroke="#000000" stroke-opacity="1" stroke-width="3.2"/>
<circle clip-path="url(#clip892)" cx="1989.81" cy="606.067" r="14.4" fill="#009af9" fill-rule="evenodd" fill-opacity="1" stroke="#000000" stroke-opacity="1" stroke-width="3.2"/>
<circle clip-path="url(#clip892)" cx="1989.81" cy="598.22" r="14.4" fill="#009af9" fill-rule="evenodd" fill-opacity="1" stroke="#000000" stroke-opacity="1" stroke-width="3.2"/>
<circle clip-path="url(#clip892)" cx="1989.82" cy="590.406" r="14.4" fill="#009af9" fill-rule="evenodd" fill-opacity="1" stroke="#000000" stroke-opacity="1" stroke-width="3.2"/>
<circle clip-path="url(#clip892)" cx="1989.82" cy="582.624" r="14.4" fill="#009af9" fill-rule="evenodd" fill-opacity="1" stroke="#000000" stroke-opacity="1" stroke-width="3.2"/>
<circle clip-path="url(#clip892)" cx="1989.83" cy="574.875" r="14.4" fill="#009af9" fill-rule="evenodd" fill-opacity="1" stroke="#000000" stroke-opacity="1" stroke-width="3.2"/>
<circle clip-path="url(#clip892)" cx="1989.83" cy="567.158" r="14.4" fill="#009af9" fill-rule="evenodd" fill-opacity="1" stroke="#000000" stroke-opacity="1" stroke-width="3.2"/>
<circle clip-path="url(#clip892)" cx="1989.84" cy="559.472" r="14.4" fill="#009af9" fill-rule="evenodd" fill-opacity="1" stroke="#000000" stroke-opacity="1" stroke-width="3.2"/>
<circle clip-path="url(#clip892)" cx="1989.84" cy="551.818" r="14.4" fill="#009af9" fill-rule="evenodd" fill-opacity="1" stroke="#000000" stroke-opacity="1" stroke-width="3.2"/>
<circle clip-path="url(#clip892)" cx="1989.84" cy="544.196" r="14.4" fill="#009af9" fill-rule="evenodd" fill-opacity="1" stroke="#000000" stroke-opacity="1" stroke-width="3.2"/>
<circle clip-path="url(#clip892)" cx="1989.84" cy="536.604" r="14.4" fill="#009af9" fill-rule="evenodd" fill-opacity="1" stroke="#000000" stroke-opacity="1" stroke-width="3.2"/>
<circle clip-path="url(#clip892)" cx="1989.85" cy="529.042" r="14.4" fill="#009af9" fill-rule="evenodd" fill-opacity="1" stroke="#000000" stroke-opacity="1" stroke-width="3.2"/>
<circle clip-path="url(#clip892)" cx="1989.85" cy="521.511" r="14.4" fill="#009af9" fill-rule="evenodd" fill-opacity="1" stroke="#000000" stroke-opacity="1" stroke-width="3.2"/>
<circle clip-path="url(#clip892)" cx="1989.85" cy="514.011" r="14.4" fill="#009af9" fill-rule="evenodd" fill-opacity="1" stroke="#000000" stroke-opacity="1" stroke-width="3.2"/>
<circle clip-path="url(#clip892)" cx="1989.85" cy="506.54" r="14.4" fill="#009af9" fill-rule="evenodd" fill-opacity="1" stroke="#000000" stroke-opacity="1" stroke-width="3.2"/>
<circle clip-path="url(#clip892)" cx="1989.85" cy="499.099" r="14.4" fill="#009af9" fill-rule="evenodd" fill-opacity="1" stroke="#000000" stroke-opacity="1" stroke-width="3.2"/>
<circle clip-path="url(#clip892)" cx="1989.86" cy="491.687" r="14.4" fill="#009af9" fill-rule="evenodd" fill-opacity="1" stroke="#000000" stroke-opacity="1" stroke-width="3.2"/>
<circle clip-path="url(#clip892)" cx="1989.86" cy="484.305" r="14.4" fill="#009af9" fill-rule="evenodd" fill-opacity="1" stroke="#000000" stroke-opacity="1" stroke-width="3.2"/>
<circle clip-path="url(#clip892)" cx="1989.86" cy="476.951" r="14.4" fill="#009af9" fill-rule="evenodd" fill-opacity="1" stroke="#000000" stroke-opacity="1" stroke-width="3.2"/>
<circle clip-path="url(#clip892)" cx="1989.86" cy="469.626" r="14.4" fill="#009af9" fill-rule="evenodd" fill-opacity="1" stroke="#000000" stroke-opacity="1" stroke-width="3.2"/>
<circle clip-path="url(#clip892)" cx="1989.86" cy="462.33" r="14.4" fill="#009af9" fill-rule="evenodd" fill-opacity="1" stroke="#000000" stroke-opacity="1" stroke-width="3.2"/>
<circle clip-path="url(#clip892)" cx="1989.86" cy="455.062" r="14.4" fill="#009af9" fill-rule="evenodd" fill-opacity="1" stroke="#000000" stroke-opacity="1" stroke-width="3.2"/>
<circle clip-path="url(#clip892)" cx="1989.86" cy="447.822" r="14.4" fill="#009af9" fill-rule="evenodd" fill-opacity="1" stroke="#000000" stroke-opacity="1" stroke-width="3.2"/>
<circle clip-path="url(#clip892)" cx="1989.86" cy="440.61" r="14.4" fill="#009af9" fill-rule="evenodd" fill-opacity="1" stroke="#000000" stroke-opacity="1" stroke-width="3.2"/>
<circle clip-path="url(#clip892)" cx="1989.86" cy="433.426" r="14.4" fill="#009af9" fill-rule="evenodd" fill-opacity="1" stroke="#000000" stroke-opacity="1" stroke-width="3.2"/>
<circle clip-path="url(#clip892)" cx="1989.86" cy="426.268" r="14.4" fill="#009af9" fill-rule="evenodd" fill-opacity="1" stroke="#000000" stroke-opacity="1" stroke-width="3.2"/>
<circle clip-path="url(#clip892)" cx="1989.86" cy="419.139" r="14.4" fill="#009af9" fill-rule="evenodd" fill-opacity="1" stroke="#000000" stroke-opacity="1" stroke-width="3.2"/>
<circle clip-path="url(#clip892)" cx="1989.86" cy="412.036" r="14.4" fill="#009af9" fill-rule="evenodd" fill-opacity="1" stroke="#000000" stroke-opacity="1" stroke-width="3.2"/>
<circle clip-path="url(#clip892)" cx="1989.87" cy="404.959" r="14.4" fill="#009af9" fill-rule="evenodd" fill-opacity="1" stroke="#000000" stroke-opacity="1" stroke-width="3.2"/>
<circle clip-path="url(#clip892)" cx="1989.87" cy="397.91" r="14.4" fill="#009af9" fill-rule="evenodd" fill-opacity="1" stroke="#000000" stroke-opacity="1" stroke-width="3.2"/>
<circle clip-path="url(#clip892)" cx="1989.87" cy="390.887" r="14.4" fill="#009af9" fill-rule="evenodd" fill-opacity="1" stroke="#000000" stroke-opacity="1" stroke-width="3.2"/>
<circle clip-path="url(#clip892)" cx="1989.87" cy="383.889" r="14.4" fill="#009af9" fill-rule="evenodd" fill-opacity="1" stroke="#000000" stroke-opacity="1" stroke-width="3.2"/>
<circle clip-path="url(#clip892)" cx="1989.87" cy="376.918" r="14.4" fill="#009af9" fill-rule="evenodd" fill-opacity="1" stroke="#000000" stroke-opacity="1" stroke-width="3.2"/>
<circle clip-path="url(#clip892)" cx="1989.87" cy="369.973" r="14.4" fill="#009af9" fill-rule="evenodd" fill-opacity="1" stroke="#000000" stroke-opacity="1" stroke-width="3.2"/>
<circle clip-path="url(#clip892)" cx="1989.87" cy="363.053" r="14.4" fill="#009af9" fill-rule="evenodd" fill-opacity="1" stroke="#000000" stroke-opacity="1" stroke-width="3.2"/>
<circle clip-path="url(#clip892)" cx="1989.87" cy="356.159" r="14.4" fill="#009af9" fill-rule="evenodd" fill-opacity="1" stroke="#000000" stroke-opacity="1" stroke-width="3.2"/>
<circle clip-path="url(#clip892)" cx="1989.87" cy="349.289" r="14.4" fill="#009af9" fill-rule="evenodd" fill-opacity="1" stroke="#000000" stroke-opacity="1" stroke-width="3.2"/>
<circle clip-path="url(#clip892)" cx="1989.87" cy="342.445" r="14.4" fill="#009af9" fill-rule="evenodd" fill-opacity="1" stroke="#000000" stroke-opacity="1" stroke-width="3.2"/>
<circle clip-path="url(#clip892)" cx="1989.87" cy="335.626" r="14.4" fill="#009af9" fill-rule="evenodd" fill-opacity="1" stroke="#000000" stroke-opacity="1" stroke-width="3.2"/>
<circle clip-path="url(#clip892)" cx="1989.87" cy="328.831" r="14.4" fill="#009af9" fill-rule="evenodd" fill-opacity="1" stroke="#000000" stroke-opacity="1" stroke-width="3.2"/>
<circle clip-path="url(#clip892)" cx="1989.87" cy="322.06" r="14.4" fill="#009af9" fill-rule="evenodd" fill-opacity="1" stroke="#000000" stroke-opacity="1" stroke-width="3.2"/>
<circle clip-path="url(#clip892)" cx="1989.87" cy="315.314" r="14.4" fill="#009af9" fill-rule="evenodd" fill-opacity="1" stroke="#000000" stroke-opacity="1" stroke-width="3.2"/>
<circle clip-path="url(#clip892)" cx="1989.87" cy="308.592" r="14.4" fill="#009af9" fill-rule="evenodd" fill-opacity="1" stroke="#000000" stroke-opacity="1" stroke-width="3.2"/>
<circle clip-path="url(#clip892)" cx="1989.87" cy="301.894" r="14.4" fill="#009af9" fill-rule="evenodd" fill-opacity="1" stroke="#000000" stroke-opacity="1" stroke-width="3.2"/>
<circle clip-path="url(#clip892)" cx="1989.87" cy="295.22" r="14.4" fill="#009af9" fill-rule="evenodd" fill-opacity="1" stroke="#000000" stroke-opacity="1" stroke-width="3.2"/>
<circle clip-path="url(#clip892)" cx="1989.87" cy="288.569" r="14.4" fill="#009af9" fill-rule="evenodd" fill-opacity="1" stroke="#000000" stroke-opacity="1" stroke-width="3.2"/>
<circle clip-path="url(#clip892)" cx="1989.87" cy="281.942" r="14.4" fill="#009af9" fill-rule="evenodd" fill-opacity="1" stroke="#000000" stroke-opacity="1" stroke-width="3.2"/>
<circle clip-path="url(#clip892)" cx="1989.87" cy="275.338" r="14.4" fill="#009af9" fill-rule="evenodd" fill-opacity="1" stroke="#000000" stroke-opacity="1" stroke-width="3.2"/>
<circle clip-path="url(#clip892)" cx="1989.87" cy="268.757" r="14.4" fill="#009af9" fill-rule="evenodd" fill-opacity="1" stroke="#000000" stroke-opacity="1" stroke-width="3.2"/>
<circle clip-path="url(#clip892)" cx="1989.87" cy="262.199" r="14.4" fill="#009af9" fill-rule="evenodd" fill-opacity="1" stroke="#000000" stroke-opacity="1" stroke-width="3.2"/>
<circle clip-path="url(#clip892)" cx="1989.87" cy="255.663" r="14.4" fill="#009af9" fill-rule="evenodd" fill-opacity="1" stroke="#000000" stroke-opacity="1" stroke-width="3.2"/>
<circle clip-path="url(#clip892)" cx="1989.87" cy="249.15" r="14.4" fill="#009af9" fill-rule="evenodd" fill-opacity="1" stroke="#000000" stroke-opacity="1" stroke-width="3.2"/>
<circle clip-path="url(#clip892)" cx="1989.87" cy="242.66" r="14.4" fill="#009af9" fill-rule="evenodd" fill-opacity="1" stroke="#000000" stroke-opacity="1" stroke-width="3.2"/>
<circle clip-path="url(#clip892)" cx="1989.87" cy="236.192" r="14.4" fill="#009af9" fill-rule="evenodd" fill-opacity="1" stroke="#000000" stroke-opacity="1" stroke-width="3.2"/>
<circle clip-path="url(#clip892)" cx="1989.87" cy="229.746" r="14.4" fill="#009af9" fill-rule="evenodd" fill-opacity="1" stroke="#000000" stroke-opacity="1" stroke-width="3.2"/>
<circle clip-path="url(#clip892)" cx="1989.87" cy="223.322" r="14.4" fill="#009af9" fill-rule="evenodd" fill-opacity="1" stroke="#000000" stroke-opacity="1" stroke-width="3.2"/>
<circle clip-path="url(#clip892)" cx="1989.87" cy="216.92" r="14.4" fill="#009af9" fill-rule="evenodd" fill-opacity="1" stroke="#000000" stroke-opacity="1" stroke-width="3.2"/>
<circle clip-path="url(#clip892)" cx="1989.87" cy="210.539" r="14.4" fill="#009af9" fill-rule="evenodd" fill-opacity="1" stroke="#000000" stroke-opacity="1" stroke-width="3.2"/>
<circle clip-path="url(#clip892)" cx="1989.87" cy="204.18" r="14.4" fill="#009af9" fill-rule="evenodd" fill-opacity="1" stroke="#000000" stroke-opacity="1" stroke-width="3.2"/>
<circle clip-path="url(#clip892)" cx="1989.87" cy="197.842" r="14.4" fill="#009af9" fill-rule="evenodd" fill-opacity="1" stroke="#000000" stroke-opacity="1" stroke-width="3.2"/>
<circle clip-path="url(#clip892)" cx="1989.87" cy="191.526" r="14.4" fill="#009af9" fill-rule="evenodd" fill-opacity="1" stroke="#000000" stroke-opacity="1" stroke-width="3.2"/>
<circle clip-path="url(#clip892)" cx="1989.87" cy="185.23" r="14.4" fill="#009af9" fill-rule="evenodd" fill-opacity="1" stroke="#000000" stroke-opacity="1" stroke-width="3.2"/>
<circle clip-path="url(#clip892)" cx="1989.87" cy="178.956" r="14.4" fill="#009af9" fill-rule="evenodd" fill-opacity="1" stroke="#000000" stroke-opacity="1" stroke-width="3.2"/>
<circle clip-path="url(#clip892)" cx="1989.87" cy="172.702" r="14.4" fill="#009af9" fill-rule="evenodd" fill-opacity="1" stroke="#000000" stroke-opacity="1" stroke-width="3.2"/>
<circle clip-path="url(#clip892)" cx="1989.87" cy="166.469" r="14.4" fill="#009af9" fill-rule="evenodd" fill-opacity="1" stroke="#000000" stroke-opacity="1" stroke-width="3.2"/>
<circle clip-path="url(#clip892)" cx="1989.87" cy="160.256" r="14.4" fill="#009af9" fill-rule="evenodd" fill-opacity="1" stroke="#000000" stroke-opacity="1" stroke-width="3.2"/>
<path clip-path="url(#clip890)" d="M248.022 270.476 L518.184 270.476 L518.184 166.796 L248.022 166.796  Z" fill="#ffffff" fill-rule="evenodd" fill-opacity="1"/>
<polyline clip-path="url(#clip890)" style="stroke:#000000; stroke-linecap:round; stroke-linejoin:round; stroke-width:4; stroke-opacity:1; fill:none" points="248.022,270.476 518.184,270.476 518.184,166.796 248.022,166.796 248.022,270.476 "/>
<polyline clip-path="url(#clip890)" style="stroke:#009af9; stroke-linecap:round; stroke-linejoin:round; stroke-width:4; stroke-opacity:1; fill:none" points="272.215,218.636 417.369,218.636 "/>
<circle clip-path="url(#clip890)" cx="344.792" cy="218.636" r="20.1603" fill="#009af9" fill-rule="evenodd" fill-opacity="1" stroke="#000000" stroke-opacity="1" stroke-width="4.55111"/>
<path clip-path="url(#clip890)" d="M455.403 238.323 Q453.598 242.953 451.885 244.365 Q450.172 245.777 447.302 245.777 L443.899 245.777 L443.899 242.212 L446.399 242.212 Q448.158 242.212 449.13 241.379 Q450.103 240.545 451.283 237.443 L452.047 235.499 L441.561 209.99 L446.075 209.99 L454.177 230.268 L462.278 209.99 L466.792 209.99 L455.403 238.323 Z" fill="#000000" fill-rule="nonzero" fill-opacity="1" /><path clip-path="url(#clip890)" d="M474.084 231.981 L481.723 231.981 L481.723 205.615 L473.413 207.282 L473.413 203.022 L481.676 201.356 L486.352 201.356 L486.352 231.981 L493.991 231.981 L493.991 235.916 L474.084 235.916 L474.084 231.981 Z" fill="#000000" fill-rule="nonzero" fill-opacity="1" /></svg>
