<?xml version="1.0" encoding="utf-8"?>
<svg xmlns="http://www.w3.org/2000/svg" xmlns:xlink="http://www.w3.org/1999/xlink" width="600" height="400" viewBox="0 0 2400 1600">
<defs>
  <clipPath id="clip760">
    <rect x="0" y="0" width="2400" height="1600"/>
  </clipPath>
</defs>
<path clip-path="url(#clip760)" d="M0 1600 L2400 1600 L2400 0 L0 0  Z" fill="#ffffff" fill-rule="evenodd" fill-opacity="1"/>
<defs>
  <clipPath id="clip761">
    <rect x="480" y="0" width="1681" height="1600"/>
  </clipPath>
</defs>
<path clip-path="url(#clip760)" d="M242.621 1423.18 L2352.76 1423.18 L2352.76 123.472 L242.621 123.472  Z" fill="#ffffff" fill-rule="evenodd" fill-opacity="1"/>
<defs>
  <clipPath id="clip762">
    <rect x="242" y="123" width="2111" height="1301"/>
  </clipPath>
</defs>
<polyline clip-path="url(#clip762)" style="stroke:#000000; stroke-linecap:round; stroke-linejoin:round; stroke-width:2; stroke-opacity:0.1; fill:none" points="242.621,1423.18 242.621,123.472 "/>
<polyline clip-path="url(#clip762)" style="stroke:#000000; stroke-linecap:round; stroke-linejoin:round; stroke-width:2; stroke-opacity:0.1; fill:none" points="770.155,1423.18 770.155,123.472 "/>
<polyline clip-path="url(#clip762)" style="stroke:#000000; stroke-linecap:round; stroke-linejoin:round; stroke-width:2; stroke-opacity:0.1; fill:none" points="1297.69,1423.18 1297.69,123.472 "/>
<polyline clip-path="url(#clip762)" style="stroke:#000000; stroke-linecap:round; stroke-linejoin:round; stroke-width:2; stroke-opacity:0.1; fill:none" points="1825.22,1423.18 1825.22,123.472 "/>
<polyline clip-path="url(#clip762)" style="stroke:#000000; stroke-linecap:round; stroke-linejoin:round; stroke-width:2; stroke-opacity:0.1; fill:none" points="2352.76,1423.18 2352.76,123.472 "/>
<polyline clip-path="url(#clip760)" style="stroke:#000000; stroke-linecap:round; stroke-linejoin:round; stroke-width:4; stroke-opacity:1; fill:none" points="242.621,1423.18 2352.76,1423.18 "/>
<polyline clip-path="url(#clip760)" style="stroke:#000000; stroke-linecap:round; stroke-linejoin:round; stroke-width:4; stroke-opacity:1; fill:none" points="242.621,1423.18 242.621,1404.28 "/>
<polyline clip-path="url(#clip760)" style="stroke:#000000; stroke-linecap:round; stroke-linejoin:round; stroke-width:4; stroke-opacity:1; fill:none" points="770.155,1423.18 770.155,1404.28 "/>
<polyline clip-path="url(#clip760)" style="stroke:#000000; stroke-linecap:round; stroke-linejoin:round; stroke-width:4; stroke-opacity:1; fill:none" points="1297.69,1423.18 1297.69,1404.28 "/>
<polyline clip-path="url(#clip760)" style="stroke:#000000; stroke-linecap:round; stroke-linejoin:round; stroke-width:4; stroke-opacity:1; fill:none" points="1825.22,1423.18 1825.22,1404.28 "/>
<polyline clip-path="url(#clip760)" style="stroke:#000000; stroke-linecap:round; stroke-linejoin:round; stroke-width:4; stroke-opacity:1; fill:none" points="2352.76,1423.18 2352.76,1404.28 "/>
<path clip-path="url(#clip760)" d="M220.005 1454.1 Q216.394 1454.1 214.565 1457.66 Q212.76 1461.2 212.76 1468.33 Q212.76 1475.44 214.565 1479.01 Q216.394 1482.55 220.005 1482.55 Q223.639 1482.55 225.445 1479.01 Q227.274 1475.44 227.274 1468.33 Q227.274 1461.2 225.445 1457.66 Q223.639 1454.1 220.005 1454.1 M220.005 1450.39 Q225.815 1450.39 228.871 1455 Q231.95 1459.58 231.95 1468.33 Q231.95 1477.06 228.871 1481.67 Q225.815 1486.25 220.005 1486.25 Q214.195 1486.25 211.116 1481.67 Q208.061 1477.06 208.061 1468.33 Q208.061 1459.58 211.116 1455 Q214.195 1450.39 220.005 1450.39 Z" fill="#000000" fill-rule="nonzero" fill-opacity="1" /><path clip-path="url(#clip760)" d="M240.167 1479.7 L245.051 1479.7 L245.051 1485.58 L240.167 1485.58 L240.167 1479.7 Z" fill="#000000" fill-rule="nonzero" fill-opacity="1" /><path clip-path="url(#clip760)" d="M265.236 1454.1 Q261.625 1454.1 259.797 1457.66 Q257.991 1461.2 257.991 1468.33 Q257.991 1475.44 259.797 1479.01 Q261.625 1482.55 265.236 1482.55 Q268.871 1482.55 270.676 1479.01 Q272.505 1475.44 272.505 1468.33 Q272.505 1461.2 270.676 1457.66 Q268.871 1454.1 265.236 1454.1 M265.236 1450.39 Q271.047 1450.39 274.102 1455 Q277.181 1459.58 277.181 1468.33 Q277.181 1477.06 274.102 1481.67 Q271.047 1486.25 265.236 1486.25 Q259.426 1486.25 256.348 1481.67 Q253.292 1477.06 253.292 1468.33 Q253.292 1459.58 256.348 1455 Q259.426 1450.39 265.236 1450.39 Z" fill="#000000" fill-rule="nonzero" fill-opacity="1" /><path clip-path="url(#clip760)" d="M748.152 1454.1 Q744.541 1454.1 742.713 1457.66 Q740.907 1461.2 740.907 1468.33 Q740.907 1475.44 742.713 1479.01 Q744.541 1482.55 748.152 1482.55 Q751.787 1482.55 753.592 1479.01 Q755.421 1475.44 755.421 1468.33 Q755.421 1461.2 753.592 1457.66 Q751.787 1454.1 748.152 1454.1 M748.152 1450.39 Q753.963 1450.39 757.018 1455 Q760.097 1459.58 760.097 1468.33 Q760.097 1477.06 757.018 1481.67 Q753.963 1486.25 748.152 1486.25 Q742.342 1486.25 739.264 1481.67 Q736.208 1477.06 736.208 1468.33 Q736.208 1459.58 739.264 1455 Q742.342 1450.39 748.152 1450.39 Z" fill="#000000" fill-rule="nonzero" fill-opacity="1" /><path clip-path="url(#clip760)" d="M768.314 1479.7 L773.199 1479.7 L773.199 1485.58 L768.314 1485.58 L768.314 1479.7 Z" fill="#000000" fill-rule="nonzero" fill-opacity="1" /><path clip-path="url(#clip760)" d="M784.194 1481.64 L791.833 1481.64 L791.833 1455.28 L783.523 1456.95 L783.523 1452.69 L791.786 1451.02 L796.462 1451.02 L796.462 1481.64 L804.101 1481.64 L804.101 1485.58 L784.194 1485.58 L784.194 1481.64 Z" fill="#000000" fill-rule="nonzero" fill-opacity="1" /><path clip-path="url(#clip760)" d="M1275.87 1454.1 Q1272.26 1454.1 1270.43 1457.66 Q1268.63 1461.2 1268.63 1468.33 Q1268.63 1475.44 1270.43 1479.01 Q1272.26 1482.55 1275.87 1482.55 Q1279.51 1482.55 1281.31 1479.01 Q1283.14 1475.44 1283.14 1468.33 Q1283.14 1461.2 1281.31 1457.66 Q1279.51 1454.1 1275.87 1454.1 M1275.87 1450.39 Q1281.68 1450.39 1284.74 1455 Q1287.82 1459.58 1287.82 1468.33 Q1287.82 1477.06 1284.74 1481.67 Q1281.68 1486.25 1275.87 1486.25 Q1270.06 1486.25 1266.98 1481.67 Q1263.93 1477.06 1263.93 1468.33 Q1263.93 1459.58 1266.98 1455 Q1270.06 1450.39 1275.87 1450.39 Z" fill="#000000" fill-rule="nonzero" fill-opacity="1" /><path clip-path="url(#clip760)" d="M1296.03 1479.7 L1300.92 1479.7 L1300.92 1485.58 L1296.03 1485.58 L1296.03 1479.7 Z" fill="#000000" fill-rule="nonzero" fill-opacity="1" /><path clip-path="url(#clip760)" d="M1315.13 1481.64 L1331.45 1481.64 L1331.45 1485.58 L1309.51 1485.58 L1309.51 1481.64 Q1312.17 1478.89 1316.75 1474.26 Q1321.36 1469.61 1322.54 1468.27 Q1324.78 1465.74 1325.66 1464.01 Q1326.57 1462.25 1326.57 1460.56 Q1326.57 1457.8 1324.62 1456.07 Q1322.7 1454.33 1319.6 1454.33 Q1317.4 1454.33 1314.95 1455.09 Q1312.51 1455.86 1309.74 1457.41 L1309.74 1452.69 Q1312.56 1451.55 1315.01 1450.97 Q1317.47 1450.39 1319.51 1450.39 Q1324.88 1450.39 1328.07 1453.08 Q1331.26 1455.77 1331.26 1460.26 Q1331.26 1462.39 1330.45 1464.31 Q1329.67 1466.2 1327.56 1468.8 Q1326.98 1469.47 1323.88 1472.69 Q1320.78 1475.88 1315.13 1481.64 Z" fill="#000000" fill-rule="nonzero" fill-opacity="1" /><path clip-path="url(#clip760)" d="M1802.93 1454.1 Q1799.32 1454.1 1797.49 1457.66 Q1795.69 1461.2 1795.69 1468.33 Q1795.69 1475.44 1797.49 1479.01 Q1799.32 1482.55 1802.93 1482.55 Q1806.56 1482.55 1808.37 1479.01 Q1810.2 1475.44 1810.2 1468.33 Q1810.2 1461.2 1808.37 1457.66 Q1806.56 1454.1 1802.93 1454.1 M1802.93 1450.39 Q1808.74 1450.39 1811.8 1455 Q1814.87 1459.58 1814.87 1468.33 Q1814.87 1477.06 1811.8 1481.67 Q1808.74 1486.25 1802.93 1486.25 Q1797.12 1486.25 1794.04 1481.67 Q1790.99 1477.06 1790.99 1468.33 Q1790.99 1459.58 1794.04 1455 Q1797.12 1450.39 1802.93 1450.39 Z" fill="#000000" fill-rule="nonzero" fill-opacity="1" /><path clip-path="url(#clip760)" d="M1823.09 1479.7 L1827.98 1479.7 L1827.98 1485.58 L1823.09 1485.58 L1823.09 1479.7 Z" fill="#000000" fill-rule="nonzero" fill-opacity="1" /><path clip-path="url(#clip760)" d="M1852.33 1466.95 Q1855.68 1467.66 1857.56 1469.93 Q1859.46 1472.2 1859.46 1475.53 Q1859.46 1480.65 1855.94 1483.45 Q1852.42 1486.25 1845.94 1486.25 Q1843.76 1486.25 1841.45 1485.81 Q1839.16 1485.39 1836.7 1484.54 L1836.7 1480.02 Q1838.65 1481.16 1840.96 1481.74 Q1843.28 1482.32 1845.8 1482.32 Q1850.2 1482.32 1852.49 1480.58 Q1854.81 1478.84 1854.81 1475.53 Q1854.81 1472.48 1852.65 1470.77 Q1850.52 1469.03 1846.7 1469.03 L1842.68 1469.03 L1842.68 1465.19 L1846.89 1465.19 Q1850.34 1465.19 1852.17 1463.82 Q1854 1462.43 1854 1459.84 Q1854 1457.18 1852.1 1455.77 Q1850.22 1454.33 1846.7 1454.33 Q1844.78 1454.33 1842.58 1454.75 Q1840.38 1455.16 1837.75 1456.04 L1837.75 1451.88 Q1840.41 1451.14 1842.72 1450.77 Q1845.06 1450.39 1847.12 1450.39 Q1852.44 1450.39 1855.55 1452.83 Q1858.65 1455.23 1858.65 1459.35 Q1858.65 1462.22 1857 1464.21 Q1855.36 1466.18 1852.33 1466.95 Z" fill="#000000" fill-rule="nonzero" fill-opacity="1" /><path clip-path="url(#clip760)" d="M2329.9 1454.1 Q2326.29 1454.1 2324.46 1457.66 Q2322.65 1461.2 2322.65 1468.33 Q2322.65 1475.44 2324.46 1479.01 Q2326.29 1482.55 2329.9 1482.55 Q2333.53 1482.55 2335.34 1479.01 Q2337.17 1475.44 2337.17 1468.33 Q2337.17 1461.2 2335.34 1457.66 Q2333.53 1454.1 2329.9 1454.1 M2329.9 1450.39 Q2335.71 1450.39 2338.76 1455 Q2341.84 1459.58 2341.84 1468.33 Q2341.84 1477.06 2338.76 1481.67 Q2335.71 1486.25 2329.9 1486.25 Q2324.09 1486.25 2321.01 1481.67 Q2317.95 1477.06 2317.95 1468.33 Q2317.95 1459.58 2321.01 1455 Q2324.09 1450.39 2329.9 1450.39 Z" fill="#000000" fill-rule="nonzero" fill-opacity="1" /><path clip-path="url(#clip760)" d="M2350.06 1479.7 L2354.94 1479.7 L2354.94 1485.58 L2350.06 1485.58 L2350.06 1479.7 Z" fill="#000000" fill-rule="nonzero" fill-opacity="1" /><path clip-path="url(#clip760)" d="M2377.98 1455.09 L2366.17 1473.54 L2377.98 1473.54 L2377.98 1455.09 M2376.75 1451.02 L2382.63 1451.02 L2382.63 1473.54 L2387.56 1473.54 L2387.56 1477.43 L2382.63 1477.43 L2382.63 1485.58 L2377.98 1485.58 L2377.98 1477.43 L2362.37 1477.43 L2362.37 1472.92 L2376.75 1451.02 Z" fill="#000000" fill-rule="nonzero" fill-opacity="1" /><path clip-path="url(#clip760)" d="M1296.75 1522.27 L1296.75 1532.4 L1308.81 1532.4 L1308.81 1536.95 L1296.75 1536.95 L1296.75 1556.3 Q1296.75 1560.66 1297.93 1561.9 Q1299.14 1563.14 1302.8 1563.14 L1308.81 1563.14 L1308.81 1568.04 L1302.8 1568.04 Q1296.02 1568.04 1293.44 1565.53 Q1290.86 1562.98 1290.86 1556.3 L1290.86 1536.95 L1286.56 1536.95 L1286.56 1532.4 L1290.86 1532.4 L1290.86 1522.27 L1296.75 1522.27 Z" fill="#000000" fill-rule="nonzero" fill-opacity="1" /><polyline clip-path="url(#clip762)" style="stroke:#000000; stroke-linecap:round; stroke-linejoin:round; stroke-width:2; stroke-opacity:0.1; fill:none" points="242.621,1398.47 2352.76,1398.47 "/>
<polyline clip-path="url(#clip762)" style="stroke:#000000; stroke-linecap:round; stroke-linejoin:round; stroke-width:2; stroke-opacity:0.1; fill:none" points="242.621,1070.93 2352.76,1070.93 "/>
<polyline clip-path="url(#clip762)" style="stroke:#000000; stroke-linecap:round; stroke-linejoin:round; stroke-width:2; stroke-opacity:0.1; fill:none" points="242.621,743.381 2352.76,743.381 "/>
<polyline clip-path="url(#clip762)" style="stroke:#000000; stroke-linecap:round; stroke-linejoin:round; stroke-width:2; stroke-opacity:0.1; fill:none" points="242.621,415.835 2352.76,415.835 "/>
<polyline clip-path="url(#clip760)" style="stroke:#000000; stroke-linecap:round; stroke-linejoin:round; stroke-width:4; stroke-opacity:1; fill:none" points="242.621,1423.18 242.621,123.472 "/>
<polyline clip-path="url(#clip760)" style="stroke:#000000; stroke-linecap:round; stroke-linejoin:round; stroke-width:4; stroke-opacity:1; fill:none" points="242.621,1398.47 261.518,1398.47 "/>
<polyline clip-path="url(#clip760)" style="stroke:#000000; stroke-linecap:round; stroke-linejoin:round; stroke-width:4; stroke-opacity:1; fill:none" points="242.621,1070.93 261.518,1070.93 "/>
<polyline clip-path="url(#clip760)" style="stroke:#000000; stroke-linecap:round; stroke-linejoin:round; stroke-width:4; stroke-opacity:1; fill:none" points="242.621,743.381 261.518,743.381 "/>
<polyline clip-path="url(#clip760)" style="stroke:#000000; stroke-linecap:round; stroke-linejoin:round; stroke-width:4; stroke-opacity:1; fill:none" points="242.621,415.835 261.518,415.835 "/>
<path clip-path="url(#clip760)" d="M114.584 1398.92 L144.26 1398.92 L144.26 1402.86 L114.584 1402.86 L114.584 1398.92 Z" fill="#000000" fill-rule="nonzero" fill-opacity="1" /><path clip-path="url(#clip760)" d="M155.163 1411.82 L162.802 1411.82 L162.802 1385.45 L154.491 1387.12 L154.491 1382.86 L162.755 1381.19 L167.431 1381.19 L167.431 1411.82 L175.07 1411.82 L175.07 1415.75 L155.163 1415.75 L155.163 1411.82 Z" fill="#000000" fill-rule="nonzero" fill-opacity="1" /><path clip-path="url(#clip760)" d="M195.093 1396.61 Q191.945 1396.61 190.093 1398.76 Q188.264 1400.92 188.264 1404.67 Q188.264 1408.39 190.093 1410.57 Q191.945 1412.72 195.093 1412.72 Q198.241 1412.72 200.07 1410.57 Q201.922 1408.39 201.922 1404.67 Q201.922 1400.92 200.07 1398.76 Q198.241 1396.61 195.093 1396.61 M204.375 1381.96 L204.375 1386.22 Q202.616 1385.38 200.811 1384.94 Q199.028 1384.5 197.269 1384.5 Q192.639 1384.5 190.186 1387.63 Q187.755 1390.75 187.408 1397.07 Q188.774 1395.06 190.834 1393.99 Q192.894 1392.91 195.371 1392.91 Q200.579 1392.91 203.588 1396.08 Q206.621 1399.23 206.621 1404.67 Q206.621 1409.99 203.473 1413.21 Q200.325 1416.42 195.093 1416.42 Q189.098 1416.42 185.926 1411.84 Q182.755 1407.23 182.755 1398.51 Q182.755 1390.31 186.644 1385.45 Q190.533 1380.57 197.084 1380.57 Q198.843 1380.57 200.625 1380.92 Q202.431 1381.26 204.375 1381.96 Z" fill="#000000" fill-rule="nonzero" fill-opacity="1" /><path clip-path="url(#clip760)" d="M114.26 1071.38 L143.936 1071.38 L143.936 1075.31 L114.26 1075.31 L114.26 1071.38 Z" fill="#000000" fill-rule="nonzero" fill-opacity="1" /><path clip-path="url(#clip760)" d="M154.839 1084.27 L162.477 1084.27 L162.477 1057.91 L154.167 1059.57 L154.167 1055.31 L162.431 1053.65 L167.107 1053.65 L167.107 1084.27 L174.746 1084.27 L174.746 1088.21 L154.839 1088.21 L154.839 1084.27 Z" fill="#000000" fill-rule="nonzero" fill-opacity="1" /><path clip-path="url(#clip760)" d="M197.037 1057.72 L185.232 1076.17 L197.037 1076.17 L197.037 1057.72 M195.811 1053.65 L201.69 1053.65 L201.69 1076.17 L206.621 1076.17 L206.621 1080.06 L201.69 1080.06 L201.69 1088.21 L197.037 1088.21 L197.037 1080.06 L181.436 1080.06 L181.436 1075.55 L195.811 1053.65 Z" fill="#000000" fill-rule="nonzero" fill-opacity="1" /><path clip-path="url(#clip760)" d="M116.343 743.833 L146.019 743.833 L146.019 747.768 L116.343 747.768 L116.343 743.833 Z" fill="#000000" fill-rule="nonzero" fill-opacity="1" /><path clip-path="url(#clip760)" d="M156.922 756.726 L164.561 756.726 L164.561 730.361 L156.251 732.027 L156.251 727.768 L164.515 726.101 L169.19 726.101 L169.19 756.726 L176.829 756.726 L176.829 760.661 L156.922 760.661 L156.922 756.726 Z" fill="#000000" fill-rule="nonzero" fill-opacity="1" /><path clip-path="url(#clip760)" d="M190.301 756.726 L206.621 756.726 L206.621 760.661 L184.676 760.661 L184.676 756.726 Q187.338 753.972 191.922 749.342 Q196.528 744.689 197.709 743.347 Q199.954 740.823 200.834 739.087 Q201.737 737.328 201.737 735.638 Q201.737 732.884 199.792 731.148 Q197.871 729.411 194.769 729.411 Q192.57 729.411 190.116 730.175 Q187.686 730.939 184.908 732.49 L184.908 727.768 Q187.732 726.634 190.186 726.055 Q192.639 725.476 194.676 725.476 Q200.047 725.476 203.241 728.161 Q206.436 730.847 206.436 735.337 Q206.436 737.467 205.625 739.388 Q204.838 741.286 202.732 743.879 Q202.153 744.55 199.051 747.768 Q195.95 750.962 190.301 756.726 Z" fill="#000000" fill-rule="nonzero" fill-opacity="1" /><path clip-path="url(#clip760)" d="M114.746 416.287 L144.422 416.287 L144.422 420.222 L114.746 420.222 L114.746 416.287 Z" fill="#000000" fill-rule="nonzero" fill-opacity="1" /><path clip-path="url(#clip760)" d="M155.325 429.18 L162.964 429.18 L162.964 402.815 L154.653 404.481 L154.653 400.222 L162.917 398.555 L167.593 398.555 L167.593 429.18 L175.232 429.18 L175.232 433.115 L155.325 433.115 L155.325 429.18 Z" fill="#000000" fill-rule="nonzero" fill-opacity="1" /><path clip-path="url(#clip760)" d="M194.676 401.634 Q191.065 401.634 189.237 405.199 Q187.431 408.74 187.431 415.87 Q187.431 422.976 189.237 426.541 Q191.065 430.083 194.676 430.083 Q198.311 430.083 200.116 426.541 Q201.945 422.976 201.945 415.87 Q201.945 408.74 200.116 405.199 Q198.311 401.634 194.676 401.634 M194.676 397.93 Q200.487 397.93 203.542 402.537 Q206.621 407.12 206.621 415.87 Q206.621 424.597 203.542 429.203 Q200.487 433.787 194.676 433.787 Q188.866 433.787 185.788 429.203 Q182.732 424.597 182.732 415.87 Q182.732 407.12 185.788 402.537 Q188.866 397.93 194.676 397.93 Z" fill="#000000" fill-rule="nonzero" fill-opacity="1" /><path clip-path="url(#clip760)" d="M14.479 962.228 L14.479 956.372 L64.0042 956.372 L64.0042 962.228 L14.479 962.228 Z" fill="#000000" fill-rule="nonzero" fill-opacity="1" /><path clip-path="url(#clip760)" d="M32.4621 930.304 Q32.4621 935.015 36.1542 937.752 Q39.8145 940.489 46.212 940.489 Q52.6095 940.489 56.3017 937.784 Q59.9619 935.047 59.9619 930.304 Q59.9619 925.626 56.2698 922.888 Q52.5777 920.151 46.212 920.151 Q39.8781 920.151 36.186 922.888 Q32.4621 925.626 32.4621 930.304 M27.4968 930.304 Q27.4968 922.665 32.4621 918.305 Q37.4273 913.944 46.212 913.944 Q54.9649 913.944 59.9619 918.305 Q64.9272 922.665 64.9272 930.304 Q64.9272 937.975 59.9619 942.335 Q54.9649 946.664 46.212 946.664 Q37.4273 946.664 32.4621 942.335 Q27.4968 937.975 27.4968 930.304 Z" fill="#000000" fill-rule="nonzero" fill-opacity="1" /><path clip-path="url(#clip760)" d="M45.7664 880.779 Q39.4007 880.779 35.8996 883.421 Q32.3984 886.031 32.3984 890.773 Q32.3984 895.484 35.8996 898.126 Q39.4007 900.736 45.7664 900.736 Q52.1003 900.736 55.6014 898.126 Q59.1026 895.484 59.1026 890.773 Q59.1026 886.031 55.6014 883.421 Q52.1003 880.779 45.7664 880.779 M59.58 874.923 Q68.683 874.923 73.1071 878.965 Q77.5631 883.007 77.5631 891.346 Q77.5631 894.434 77.0857 897.171 Q76.6401 899.908 75.6852 902.486 L69.9879 902.486 Q71.3884 899.908 72.0568 897.394 Q72.7252 894.879 72.7252 892.269 Q72.7252 886.508 69.7015 883.644 Q66.7096 880.779 60.6303 880.779 L57.7339 880.779 Q60.885 882.593 62.4446 885.426 Q64.0042 888.259 64.0042 892.206 Q64.0042 898.762 59.0071 902.773 Q54.01 906.783 45.7664 906.783 Q37.491 906.783 32.4939 902.773 Q27.4968 898.762 27.4968 892.206 Q27.4968 888.259 29.0564 885.426 Q30.616 882.593 33.7671 880.779 L28.3562 880.779 L28.3562 874.923 L59.58 874.923 Z" fill="#000000" fill-rule="nonzero" fill-opacity="1" /><path clip-path="url(#clip760)" d="M58.5933 860.918 L58.5933 850.415 L22.3406 850.415 L24.6323 861.841 L18.7758 861.841 L16.4842 850.478 L16.4842 844.049 L58.5933 844.049 L58.5933 833.546 L64.0042 833.546 L64.0042 860.918 L58.5933 860.918 Z" fill="#000000" fill-rule="nonzero" fill-opacity="1" /><path clip-path="url(#clip760)" d="M20.7174 806.81 Q20.7174 811.775 25.6189 814.289 Q30.4887 816.772 40.2919 816.772 Q50.0633 816.772 54.9649 814.289 Q59.8346 811.775 59.8346 806.81 Q59.8346 801.813 54.9649 799.33 Q50.0633 796.815 40.2919 796.815 Q30.4887 796.815 25.6189 799.33 Q20.7174 801.813 20.7174 806.81 M15.6248 806.81 Q15.6248 798.821 21.9587 794.619 Q28.2607 790.386 40.2919 790.386 Q52.2913 790.386 58.6251 794.619 Q64.9272 798.821 64.9272 806.81 Q64.9272 814.799 58.6251 819.032 Q52.2913 823.233 40.2919 823.233 Q28.2607 823.233 21.9587 819.032 Q15.6248 814.799 15.6248 806.81 Z" fill="#000000" fill-rule="nonzero" fill-opacity="1" /><path clip-path="url(#clip760)" d="M14.5426 765.846 Q21.8632 770.111 29.0246 772.18 Q36.186 774.249 43.5384 774.249 Q50.8908 774.249 58.1159 772.18 Q65.3091 770.079 72.5979 765.846 L72.5979 770.939 Q65.1182 775.713 57.8931 778.1 Q50.668 780.456 43.5384 780.456 Q36.4406 780.456 29.2474 778.1 Q22.0542 775.745 14.5426 770.939 L14.5426 765.846 Z" fill="#000000" fill-rule="nonzero" fill-opacity="1" /><path clip-path="url(#clip760)" d="M33.7671 731.026 L14.479 731.026 L14.479 725.169 L64.0042 725.169 L64.0042 731.026 L58.657 731.026 Q61.8398 732.872 63.3994 735.705 Q64.9272 738.506 64.9272 742.452 Q64.9272 748.913 59.771 752.988 Q54.6147 757.03 46.212 757.03 Q37.8093 757.03 32.6531 752.988 Q27.4968 748.913 27.4968 742.452 Q27.4968 738.506 29.0564 735.705 Q30.5842 732.872 33.7671 731.026 M46.212 750.982 Q52.6732 750.982 56.3653 748.341 Q60.0256 745.667 60.0256 741.02 Q60.0256 736.373 56.3653 733.699 Q52.6732 731.026 46.212 731.026 Q39.7508 731.026 36.0905 733.699 Q32.3984 736.373 32.3984 741.02 Q32.3984 745.667 36.0905 748.341 Q39.7508 750.982 46.212 750.982 Z" fill="#000000" fill-rule="nonzero" fill-opacity="1" /><path clip-path="url(#clip760)" d="M28.3562 683.474 L45.7028 696.365 L64.0042 682.806 L64.0042 689.712 L49.9996 700.089 L64.0042 710.465 L64.0042 717.371 L45.3526 703.526 L28.3562 716.194 L28.3562 709.287 L41.0558 699.834 L28.3562 690.381 L28.3562 683.474 Z" fill="#000000" fill-rule="nonzero" fill-opacity="1" /><path clip-path="url(#clip760)" d="M14.5426 660.462 Q21.8632 664.727 29.0246 666.796 Q36.186 668.865 43.5384 668.865 Q50.8908 668.865 58.1159 666.796 Q65.3091 664.695 72.5979 660.462 L72.5979 665.555 Q65.1182 670.329 57.8931 672.716 Q50.668 675.071 43.5384 675.071 Q36.4406 675.071 29.2474 672.716 Q22.0542 670.361 14.5426 665.555 L14.5426 660.462 Z" fill="#000000" fill-rule="nonzero" fill-opacity="1" /><path clip-path="url(#clip760)" d="M18.2347 643.306 L28.3562 643.306 L28.3562 631.243 L32.9077 631.243 L32.9077 643.306 L52.2594 643.306 Q56.6199 643.306 57.8613 642.129 Q59.1026 640.919 59.1026 637.259 L59.1026 631.243 L64.0042 631.243 L64.0042 637.259 Q64.0042 644.038 61.4897 646.617 Q58.9434 649.195 52.2594 649.195 L32.9077 649.195 L32.9077 653.492 L28.3562 653.492 L28.3562 649.195 L18.2347 649.195 L18.2347 643.306 Z" fill="#000000" fill-rule="nonzero" fill-opacity="1" /><path clip-path="url(#clip760)" d="M14.5426 624.464 L14.5426 619.371 Q22.0542 614.597 29.2474 612.242 Q36.4406 609.855 43.5384 609.855 Q50.668 609.855 57.8931 612.242 Q65.1182 614.597 72.5979 619.371 L72.5979 624.464 Q65.3091 620.231 58.1159 618.162 Q50.8908 616.061 43.5384 616.061 Q36.186 616.061 29.0246 618.162 Q21.8632 620.231 14.5426 624.464 Z" fill="#000000" fill-rule="nonzero" fill-opacity="1" /><path clip-path="url(#clip760)" d="M14.5426 599.033 L14.5426 593.94 Q22.0542 589.166 29.2474 586.811 Q36.4406 584.424 43.5384 584.424 Q50.668 584.424 57.8931 586.811 Q65.1182 589.166 72.5979 593.94 L72.5979 599.033 Q65.3091 594.8 58.1159 592.731 Q50.8908 590.63 43.5384 590.63 Q36.186 590.63 29.0246 592.731 Q21.8632 594.8 14.5426 599.033 Z" fill="#000000" fill-rule="nonzero" fill-opacity="1" /><path clip-path="url(#clip760)" d="M1194.45 12.096 L1229.21 12.096 L1229.21 18.9825 L1202.63 18.9825 L1202.63 36.8065 L1226.62 36.8065 L1226.62 43.6931 L1202.63 43.6931 L1202.63 72.576 L1194.45 72.576 L1194.45 12.096 Z" fill="#000000" fill-rule="nonzero" fill-opacity="1" /><path clip-path="url(#clip760)" d="M1235.81 27.2059 L1243.26 27.2059 L1243.26 72.576 L1235.81 72.576 L1235.81 27.2059 M1235.81 9.54393 L1243.26 9.54393 L1243.26 18.9825 L1235.81 18.9825 L1235.81 9.54393 Z" fill="#000000" fill-rule="nonzero" fill-opacity="1" /><path clip-path="url(#clip760)" d="M1288.72 49.3643 Q1288.72 41.2625 1285.35 36.8065 Q1282.03 32.3505 1276 32.3505 Q1270 32.3505 1266.64 36.8065 Q1263.32 41.2625 1263.32 49.3643 Q1263.32 57.4256 1266.64 61.8816 Q1270 66.3376 1276 66.3376 Q1282.03 66.3376 1285.35 61.8816 Q1288.72 57.4256 1288.72 49.3643 M1296.17 66.9452 Q1296.17 78.5308 1291.02 84.1616 Q1285.88 89.8329 1275.27 89.8329 Q1271.34 89.8329 1267.85 89.2252 Q1264.37 88.6581 1261.09 87.4428 L1261.09 80.1917 Q1264.37 81.9741 1267.57 82.8248 Q1270.77 83.6755 1274.09 83.6755 Q1281.42 83.6755 1285.07 79.8271 Q1288.72 76.0193 1288.72 68.282 L1288.72 64.5957 Q1286.41 68.6061 1282.8 70.5911 Q1279.2 72.576 1274.17 72.576 Q1265.83 72.576 1260.72 66.2161 Q1255.62 59.8562 1255.62 49.3643 Q1255.62 38.832 1260.72 32.472 Q1265.83 26.1121 1274.17 26.1121 Q1279.2 26.1121 1282.8 28.0971 Q1286.41 30.082 1288.72 34.0924 L1288.72 27.2059 L1296.17 27.2059 L1296.17 66.9452 Z" fill="#000000" fill-rule="nonzero" fill-opacity="1" /><path clip-path="url(#clip760)" d="M1312.58 62.2867 L1321.12 62.2867 L1321.12 72.576 L1312.58 72.576 L1312.58 62.2867 Z" fill="#000000" fill-rule="nonzero" fill-opacity="1" /><path clip-path="url(#clip760)" d="M1372.37 65.6895 L1400.93 65.6895 L1400.93 72.576 L1362.52 72.576 L1362.52 65.6895 Q1367.18 60.8689 1375.2 52.7671 Q1383.26 44.6248 1385.33 42.2752 Q1389.26 37.8598 1390.8 34.8216 Q1392.38 31.7429 1392.38 28.7857 Q1392.38 23.9651 1388.98 20.927 Q1385.61 17.8888 1380.19 17.8888 Q1376.34 17.8888 1372.04 19.2256 Q1367.79 20.5624 1362.93 23.2765 L1362.93 15.0127 Q1367.87 13.0277 1372.16 12.015 Q1376.46 11.0023 1380.02 11.0023 Q1389.42 11.0023 1395.01 15.7013 Q1400.6 20.4004 1400.6 28.2591 Q1400.6 31.9859 1399.18 35.3482 Q1397.81 38.6699 1394.12 43.2069 Q1393.11 44.3817 1387.68 50.0125 Q1382.25 55.6027 1372.37 65.6895 Z" fill="#000000" fill-rule="nonzero" fill-opacity="1" /><polyline clip-path="url(#clip762)" style="stroke:#009af9; stroke-linecap:round; stroke-linejoin:round; stroke-width:4; stroke-opacity:1; fill:none" points="1533.19,1366.14 1595.27,1326.97 1648.79,1238.43 1694.99,1248.42 1734.89,1258.36 1769.39,1239.39 1799.24,1228.74 1825.1,1386.4 1847.51,1208.38 1866.96,1150.84 1883.86,1164.48 1898.54,1149.47 1911.31,1136.28 1922.42,1108.07 1932.11,1128.39 1940.56,1106.9 1947.93,1196.23 1954.37,1159.14 1960,1095.49 1964.92,1131.22 1969.23,1131.16 1973.01,1221.19 1976.32,1084.47 1979.23,1098.1 1981.78,1099.93 1984.02,1040.07 1985.99,1117.45 1987.72,1069.46 1989.25,1062.83 1990.59,975.501 1991.78,965.827 1992.83,941.8 1993.75,952.557 1994.57,942.721 1995.29,1057.5 1995.93,940.117 1996.49,905.381 1996.99,882.628 1997.44,878.364 1997.83,862.283 1998.18,865.553 1998.49,875.074 1998.76,837.477 1999.01,860.005 1999.23,914.208 1999.42,862.361 1999.59,856.275 1999.75,822.826 1999.88,794.756 2000.01,783.006 2000.12,768.918 2000.21,793.811 2000.3,761.675 2000.38,748.734 2000.45,729.21 2000.51,721.953 2000.57,709.941 2000.62,694.213 2000.66,690.034 2000.7,694.218 2000.74,674.965 2000.77,667.232 2000.8,658.773 2000.82,661.774 2000.85,653.608 2000.87,650.356 2000.89,647.237 2000.9,646.341 2000.92,636.238 2000.93,622.21 2000.95,607.844 2000.96,591.618 2000.97,603.735 2000.98,578.385 2000.99,582.855 2000.99,569.635 2001,561.135 2001.01,534.022 2001.01,546.006 2001.02,532.554 2001.02,534.756 2001.03,540.98 2001.03,527.423 2001.03,530.325 2001.04,510.444 2001.04,501.323 2001.04,510.972 2001.04,498.052 2001.05,493.543 2001.05,485.313 2001.05,482.711 2001.05,483.98 2001.05,480.884 2001.05,483.379 2001.05,477.244 2001.06,457.402 2001.06,471.633 2001.06,488.303 2001.06,512.666 2001.06,494.097 2001.06,488.035 2001.06,430.904 2001.06,460.042 2001.06,480.656 2001.06,491.153 2001.06,560.93 2001.06,581.357 2001.06,501.922 2001.06,532.732 2001.06,639.893 2001.06,532.876 2001.06,528.477 2001.06,503.791 2001.06,417.845 2001.06,536.623 2001.06,394.271 2001.06,369.12 2001.06,395.863 2001.07,366.328 2001.07,367.004 2001.07,402.913 2001.07,364.181 2001.07,393.67 2001.07,516.244 2001.07,387.154 2001.07,348.481 2001.07,358.594 2001.07,312.306 2001.07,271.832 2001.07,264.801 2001.07,256.57 2001.07,248.781 2001.07,232.947 2001.07,233.899 2001.07,236.253 2001.07,215.17 2001.07,206.003 2001.07,200.703 2001.07,183.081 2001.07,179.367 2001.07,162.362 2001.07,160.256 "/>
<circle clip-path="url(#clip762)" cx="1166.49" cy="1374.28" r="14.4" fill="#009af9" fill-rule="evenodd" fill-opacity="1" stroke="#000000" stroke-opacity="1" stroke-width="3.2"/>
<circle clip-path="url(#clip762)" cx="1533.19" cy="1366.14" r="14.4" fill="#009af9" fill-rule="evenodd" fill-opacity="1" stroke="#000000" stroke-opacity="1" stroke-width="3.2"/>
<circle clip-path="url(#clip762)" cx="1595.27" cy="1326.97" r="14.4" fill="#009af9" fill-rule="evenodd" fill-opacity="1" stroke="#000000" stroke-opacity="1" stroke-width="3.2"/>
<circle clip-path="url(#clip762)" cx="1648.79" cy="1238.43" r="14.4" fill="#009af9" fill-rule="evenodd" fill-opacity="1" stroke="#000000" stroke-opacity="1" stroke-width="3.2"/>
<circle clip-path="url(#clip762)" cx="1694.99" cy="1248.42" r="14.4" fill="#009af9" fill-rule="evenodd" fill-opacity="1" stroke="#000000" stroke-opacity="1" stroke-width="3.2"/>
<circle clip-path="url(#clip762)" cx="1734.89" cy="1258.36" r="14.4" fill="#009af9" fill-rule="evenodd" fill-opacity="1" stroke="#000000" stroke-opacity="1" stroke-width="3.2"/>
<circle clip-path="url(#clip762)" cx="1769.39" cy="1239.39" r="14.4" fill="#009af9" fill-rule="evenodd" fill-opacity="1" stroke="#000000" stroke-opacity="1" stroke-width="3.2"/>
<circle clip-path="url(#clip762)" cx="1799.24" cy="1228.74" r="14.4" fill="#009af9" fill-rule="evenodd" fill-opacity="1" stroke="#000000" stroke-opacity="1" stroke-width="3.2"/>
<circle clip-path="url(#clip762)" cx="1825.1" cy="1386.4" r="14.4" fill="#009af9" fill-rule="evenodd" fill-opacity="1" stroke="#000000" stroke-opacity="1" stroke-width="3.2"/>
<circle clip-path="url(#clip762)" cx="1847.51" cy="1208.38" r="14.4" fill="#009af9" fill-rule="evenodd" fill-opacity="1" stroke="#000000" stroke-opacity="1" stroke-width="3.2"/>
<circle clip-path="url(#clip762)" cx="1866.96" cy="1150.84" r="14.4" fill="#009af9" fill-rule="evenodd" fill-opacity="1" stroke="#000000" stroke-opacity="1" stroke-width="3.2"/>
<circle clip-path="url(#clip762)" cx="1883.86" cy="1164.48" r="14.4" fill="#009af9" fill-rule="evenodd" fill-opacity="1" stroke="#000000" stroke-opacity="1" stroke-width="3.2"/>
<circle clip-path="url(#clip762)" cx="1898.54" cy="1149.47" r="14.4" fill="#009af9" fill-rule="evenodd" fill-opacity="1" stroke="#000000" stroke-opacity="1" stroke-width="3.2"/>
<circle clip-path="url(#clip762)" cx="1911.31" cy="1136.28" r="14.4" fill="#009af9" fill-rule="evenodd" fill-opacity="1" stroke="#000000" stroke-opacity="1" stroke-width="3.2"/>
<circle clip-path="url(#clip762)" cx="1922.42" cy="1108.07" r="14.4" fill="#009af9" fill-rule="evenodd" fill-opacity="1" stroke="#000000" stroke-opacity="1" stroke-width="3.2"/>
<circle clip-path="url(#clip762)" cx="1932.11" cy="1128.39" r="14.4" fill="#009af9" fill-rule="evenodd" fill-opacity="1" stroke="#000000" stroke-opacity="1" stroke-width="3.2"/>
<circle clip-path="url(#clip762)" cx="1940.56" cy="1106.9" r="14.4" fill="#009af9" fill-rule="evenodd" fill-opacity="1" stroke="#000000" stroke-opacity="1" stroke-width="3.2"/>
<circle clip-path="url(#clip762)" cx="1947.93" cy="1196.23" r="14.4" fill="#009af9" fill-rule="evenodd" fill-opacity="1" stroke="#000000" stroke-opacity="1" stroke-width="3.2"/>
<circle clip-path="url(#clip762)" cx="1954.37" cy="1159.14" r="14.4" fill="#009af9" fill-rule="evenodd" fill-opacity="1" stroke="#000000" stroke-opacity="1" stroke-width="3.2"/>
<circle clip-path="url(#clip762)" cx="1960" cy="1095.49" r="14.4" fill="#009af9" fill-rule="evenodd" fill-opacity="1" stroke="#000000" stroke-opacity="1" stroke-width="3.2"/>
<circle clip-path="url(#clip762)" cx="1964.92" cy="1131.22" r="14.4" fill="#009af9" fill-rule="evenodd" fill-opacity="1" stroke="#000000" stroke-opacity="1" stroke-width="3.2"/>
<circle clip-path="url(#clip762)" cx="1969.23" cy="1131.16" r="14.4" fill="#009af9" fill-rule="evenodd" fill-opacity="1" stroke="#000000" stroke-opacity="1" stroke-width="3.2"/>
<circle clip-path="url(#clip762)" cx="1973.01" cy="1221.19" r="14.4" fill="#009af9" fill-rule="evenodd" fill-opacity="1" stroke="#000000" stroke-opacity="1" stroke-width="3.2"/>
<circle clip-path="url(#clip762)" cx="1976.32" cy="1084.47" r="14.4" fill="#009af9" fill-rule="evenodd" fill-opacity="1" stroke="#000000" stroke-opacity="1" stroke-width="3.2"/>
<circle clip-path="url(#clip762)" cx="1979.23" cy="1098.1" r="14.4" fill="#009af9" fill-rule="evenodd" fill-opacity="1" stroke="#000000" stroke-opacity="1" stroke-width="3.2"/>
<circle clip-path="url(#clip762)" cx="1981.78" cy="1099.93" r="14.4" fill="#009af9" fill-rule="evenodd" fill-opacity="1" stroke="#000000" stroke-opacity="1" stroke-width="3.2"/>
<circle clip-path="url(#clip762)" cx="1984.02" cy="1040.07" r="14.4" fill="#009af9" fill-rule="evenodd" fill-opacity="1" stroke="#000000" stroke-opacity="1" stroke-width="3.2"/>
<circle clip-path="url(#clip762)" cx="1985.99" cy="1117.45" r="14.4" fill="#009af9" fill-rule="evenodd" fill-opacity="1" stroke="#000000" stroke-opacity="1" stroke-width="3.2"/>
<circle clip-path="url(#clip762)" cx="1987.72" cy="1069.46" r="14.4" fill="#009af9" fill-rule="evenodd" fill-opacity="1" stroke="#000000" stroke-opacity="1" stroke-width="3.2"/>
<circle clip-path="url(#clip762)" cx="1989.25" cy="1062.83" r="14.4" fill="#009af9" fill-rule="evenodd" fill-opacity="1" stroke="#000000" stroke-opacity="1" stroke-width="3.2"/>
<circle clip-path="url(#clip762)" cx="1990.59" cy="975.501" r="14.4" fill="#009af9" fill-rule="evenodd" fill-opacity="1" stroke="#000000" stroke-opacity="1" stroke-width="3.2"/>
<circle clip-path="url(#clip762)" cx="1991.78" cy="965.827" r="14.4" fill="#009af9" fill-rule="evenodd" fill-opacity="1" stroke="#000000" stroke-opacity="1" stroke-width="3.2"/>
<circle clip-path="url(#clip762)" cx="1992.83" cy="941.8" r="14.4" fill="#009af9" fill-rule="evenodd" fill-opacity="1" stroke="#000000" stroke-opacity="1" stroke-width="3.2"/>
<circle clip-path="url(#clip762)" cx="1993.75" cy="952.557" r="14.4" fill="#009af9" fill-rule="evenodd" fill-opacity="1" stroke="#000000" stroke-opacity="1" stroke-width="3.2"/>
<circle clip-path="url(#clip762)" cx="1994.57" cy="942.721" r="14.4" fill="#009af9" fill-rule="evenodd" fill-opacity="1" stroke="#000000" stroke-opacity="1" stroke-width="3.2"/>
<circle clip-path="url(#clip762)" cx="1995.29" cy="1057.5" r="14.4" fill="#009af9" fill-rule="evenodd" fill-opacity="1" stroke="#000000" stroke-opacity="1" stroke-width="3.2"/>
<circle clip-path="url(#clip762)" cx="1995.93" cy="940.117" r="14.4" fill="#009af9" fill-rule="evenodd" fill-opacity="1" stroke="#000000" stroke-opacity="1" stroke-width="3.2"/>
<circle clip-path="url(#clip762)" cx="1996.49" cy="905.381" r="14.4" fill="#009af9" fill-rule="evenodd" fill-opacity="1" stroke="#000000" stroke-opacity="1" stroke-width="3.2"/>
<circle clip-path="url(#clip762)" cx="1996.99" cy="882.628" r="14.4" fill="#009af9" fill-rule="evenodd" fill-opacity="1" stroke="#000000" stroke-opacity="1" stroke-width="3.2"/>
<circle clip-path="url(#clip762)" cx="1997.44" cy="878.364" r="14.4" fill="#009af9" fill-rule="evenodd" fill-opacity="1" stroke="#000000" stroke-opacity="1" stroke-width="3.2"/>
<circle clip-path="url(#clip762)" cx="1997.83" cy="862.283" r="14.4" fill="#009af9" fill-rule="evenodd" fill-opacity="1" stroke="#000000" stroke-opacity="1" stroke-width="3.2"/>
<circle clip-path="url(#clip762)" cx="1998.18" cy="865.553" r="14.4" fill="#009af9" fill-rule="evenodd" fill-opacity="1" stroke="#000000" stroke-opacity="1" stroke-width="3.2"/>
<circle clip-path="url(#clip762)" cx="1998.49" cy="875.074" r="14.4" fill="#009af9" fill-rule="evenodd" fill-opacity="1" stroke="#000000" stroke-opacity="1" stroke-width="3.2"/>
<circle clip-path="url(#clip762)" cx="1998.76" cy="837.477" r="14.4" fill="#009af9" fill-rule="evenodd" fill-opacity="1" stroke="#000000" stroke-opacity="1" stroke-width="3.2"/>
<circle clip-path="url(#clip762)" cx="1999.01" cy="860.005" r="14.4" fill="#009af9" fill-rule="evenodd" fill-opacity="1" stroke="#000000" stroke-opacity="1" stroke-width="3.2"/>
<circle clip-path="url(#clip762)" cx="1999.23" cy="914.208" r="14.4" fill="#009af9" fill-rule="evenodd" fill-opacity="1" stroke="#000000" stroke-opacity="1" stroke-width="3.2"/>
<circle clip-path="url(#clip762)" cx="1999.42" cy="862.361" r="14.4" fill="#009af9" fill-rule="evenodd" fill-opacity="1" stroke="#000000" stroke-opacity="1" stroke-width="3.2"/>
<circle clip-path="url(#clip762)" cx="1999.59" cy="856.275" r="14.4" fill="#009af9" fill-rule="evenodd" fill-opacity="1" stroke="#000000" stroke-opacity="1" stroke-width="3.2"/>
<circle clip-path="url(#clip762)" cx="1999.75" cy="822.826" r="14.4" fill="#009af9" fill-rule="evenodd" fill-opacity="1" stroke="#000000" stroke-opacity="1" stroke-width="3.2"/>
<circle clip-path="url(#clip762)" cx="1999.88" cy="794.756" r="14.4" fill="#009af9" fill-rule="evenodd" fill-opacity="1" stroke="#000000" stroke-opacity="1" stroke-width="3.2"/>
<circle clip-path="url(#clip762)" cx="2000.01" cy="783.006" r="14.4" fill="#009af9" fill-rule="evenodd" fill-opacity="1" stroke="#000000" stroke-opacity="1" stroke-width="3.2"/>
<circle clip-path="url(#clip762)" cx="2000.12" cy="768.918" r="14.4" fill="#009af9" fill-rule="evenodd" fill-opacity="1" stroke="#000000" stroke-opacity="1" stroke-width="3.2"/>
<circle clip-path="url(#clip762)" cx="2000.21" cy="793.811" r="14.4" fill="#009af9" fill-rule="evenodd" fill-opacity="1" stroke="#000000" stroke-opacity="1" stroke-width="3.2"/>
<circle clip-path="url(#clip762)" cx="2000.3" cy="761.675" r="14.4" fill="#009af9" fill-rule="evenodd" fill-opacity="1" stroke="#000000" stroke-opacity="1" stroke-width="3.2"/>
<circle clip-path="url(#clip762)" cx="2000.38" cy="748.734" r="14.4" fill="#009af9" fill-rule="evenodd" fill-opacity="1" stroke="#000000" stroke-opacity="1" stroke-width="3.2"/>
<circle clip-path="url(#clip762)" cx="2000.45" cy="729.21" r="14.4" fill="#009af9" fill-rule="evenodd" fill-opacity="1" stroke="#000000" stroke-opacity="1" stroke-width="3.2"/>
<circle clip-path="url(#clip762)" cx="2000.51" cy="721.953" r="14.4" fill="#009af9" fill-rule="evenodd" fill-opacity="1" stroke="#000000" stroke-opacity="1" stroke-width="3.2"/>
<circle clip-path="url(#clip762)" cx="2000.57" cy="709.941" r="14.4" fill="#009af9" fill-rule="evenodd" fill-opacity="1" stroke="#000000" stroke-opacity="1" stroke-width="3.2"/>
<circle clip-path="url(#clip762)" cx="2000.62" cy="694.213" r="14.4" fill="#009af9" fill-rule="evenodd" fill-opacity="1" stroke="#000000" stroke-opacity="1" stroke-width="3.2"/>
<circle clip-path="url(#clip762)" cx="2000.66" cy="690.034" r="14.4" fill="#009af9" fill-rule="evenodd" fill-opacity="1" stroke="#000000" stroke-opacity="1" stroke-width="3.2"/>
<circle clip-path="url(#clip762)" cx="2000.7" cy="694.218" r="14.4" fill="#009af9" fill-rule="evenodd" fill-opacity="1" stroke="#000000" stroke-opacity="1" stroke-width="3.2"/>
<circle clip-path="url(#clip762)" cx="2000.74" cy="674.965" r="14.4" fill="#009af9" fill-rule="evenodd" fill-opacity="1" stroke="#000000" stroke-opacity="1" stroke-width="3.2"/>
<circle clip-path="url(#clip762)" cx="2000.77" cy="667.232" r="14.4" fill="#009af9" fill-rule="evenodd" fill-opacity="1" stroke="#000000" stroke-opacity="1" stroke-width="3.2"/>
<circle clip-path="url(#clip762)" cx="2000.8" cy="658.773" r="14.4" fill="#009af9" fill-rule="evenodd" fill-opacity="1" stroke="#000000" stroke-opacity="1" stroke-width="3.2"/>
<circle clip-path="url(#clip762)" cx="2000.82" cy="661.774" r="14.4" fill="#009af9" fill-rule="evenodd" fill-opacity="1" stroke="#000000" stroke-opacity="1" stroke-width="3.2"/>
<circle clip-path="url(#clip762)" cx="2000.85" cy="653.608" r="14.4" fill="#009af9" fill-rule="evenodd" fill-opacity="1" stroke="#000000" stroke-opacity="1" stroke-width="3.2"/>
<circle clip-path="url(#clip762)" cx="2000.87" cy="650.356" r="14.4" fill="#009af9" fill-rule="evenodd" fill-opacity="1" stroke="#000000" stroke-opacity="1" stroke-width="3.2"/>
<circle clip-path="url(#clip762)" cx="2000.89" cy="647.237" r="14.4" fill="#009af9" fill-rule="evenodd" fill-opacity="1" stroke="#000000" stroke-opacity="1" stroke-width="3.2"/>
<circle clip-path="url(#clip762)" cx="2000.9" cy="646.341" r="14.4" fill="#009af9" fill-rule="evenodd" fill-opacity="1" stroke="#000000" stroke-opacity="1" stroke-width="3.2"/>
<circle clip-path="url(#clip762)" cx="2000.92" cy="636.238" r="14.4" fill="#009af9" fill-rule="evenodd" fill-opacity="1" stroke="#000000" stroke-opacity="1" stroke-width="3.2"/>
<circle clip-path="url(#clip762)" cx="2000.93" cy="622.21" r="14.4" fill="#009af9" fill-rule="evenodd" fill-opacity="1" stroke="#000000" stroke-opacity="1" stroke-width="3.2"/>
<circle clip-path="url(#clip762)" cx="2000.95" cy="607.844" r="14.4" fill="#009af9" fill-rule="evenodd" fill-opacity="1" stroke="#000000" stroke-opacity="1" stroke-width="3.2"/>
<circle clip-path="url(#clip762)" cx="2000.96" cy="591.618" r="14.4" fill="#009af9" fill-rule="evenodd" fill-opacity="1" stroke="#000000" stroke-opacity="1" stroke-width="3.2"/>
<circle clip-path="url(#clip762)" cx="2000.97" cy="603.735" r="14.4" fill="#009af9" fill-rule="evenodd" fill-opacity="1" stroke="#000000" stroke-opacity="1" stroke-width="3.2"/>
<circle clip-path="url(#clip762)" cx="2000.98" cy="578.385" r="14.4" fill="#009af9" fill-rule="evenodd" fill-opacity="1" stroke="#000000" stroke-opacity="1" stroke-width="3.2"/>
<circle clip-path="url(#clip762)" cx="2000.99" cy="582.855" r="14.4" fill="#009af9" fill-rule="evenodd" fill-opacity="1" stroke="#000000" stroke-opacity="1" stroke-width="3.2"/>
<circle clip-path="url(#clip762)" cx="2000.99" cy="569.635" r="14.4" fill="#009af9" fill-rule="evenodd" fill-opacity="1" stroke="#000000" stroke-opacity="1" stroke-width="3.2"/>
<circle clip-path="url(#clip762)" cx="2001" cy="561.135" r="14.4" fill="#009af9" fill-rule="evenodd" fill-opacity="1" stroke="#000000" stroke-opacity="1" stroke-width="3.2"/>
<circle clip-path="url(#clip762)" cx="2001.01" cy="534.022" r="14.4" fill="#009af9" fill-rule="evenodd" fill-opacity="1" stroke="#000000" stroke-opacity="1" stroke-width="3.2"/>
<circle clip-path="url(#clip762)" cx="2001.01" cy="546.006" r="14.4" fill="#009af9" fill-rule="evenodd" fill-opacity="1" stroke="#000000" stroke-opacity="1" stroke-width="3.2"/>
<circle clip-path="url(#clip762)" cx="2001.02" cy="532.554" r="14.4" fill="#009af9" fill-rule="evenodd" fill-opacity="1" stroke="#000000" stroke-opacity="1" stroke-width="3.2"/>
<circle clip-path="url(#clip762)" cx="2001.02" cy="534.756" r="14.4" fill="#009af9" fill-rule="evenodd" fill-opacity="1" stroke="#000000" stroke-opacity="1" stroke-width="3.2"/>
<circle clip-path="url(#clip762)" cx="2001.03" cy="540.98" r="14.4" fill="#009af9" fill-rule="evenodd" fill-opacity="1" stroke="#000000" stroke-opacity="1" stroke-width="3.2"/>
<circle clip-path="url(#clip762)" cx="2001.03" cy="527.423" r="14.4" fill="#009af9" fill-rule="evenodd" fill-opacity="1" stroke="#000000" stroke-opacity="1" stroke-width="3.2"/>
<circle clip-path="url(#clip762)" cx="2001.03" cy="530.325" r="14.4" fill="#009af9" fill-rule="evenodd" fill-opacity="1" stroke="#000000" stroke-opacity="1" stroke-width="3.2"/>
<circle clip-path="url(#clip762)" cx="2001.04" cy="510.444" r="14.4" fill="#009af9" fill-rule="evenodd" fill-opacity="1" stroke="#000000" stroke-opacity="1" stroke-width="3.2"/>
<circle clip-path="url(#clip762)" cx="2001.04" cy="501.323" r="14.4" fill="#009af9" fill-rule="evenodd" fill-opacity="1" stroke="#000000" stroke-opacity="1" stroke-width="3.2"/>
<circle clip-path="url(#clip762)" cx="2001.04" cy="510.972" r="14.4" fill="#009af9" fill-rule="evenodd" fill-opacity="1" stroke="#000000" stroke-opacity="1" stroke-width="3.2"/>
<circle clip-path="url(#clip762)" cx="2001.04" cy="498.052" r="14.4" fill="#009af9" fill-rule="evenodd" fill-opacity="1" stroke="#000000" stroke-opacity="1" stroke-width="3.2"/>
<circle clip-path="url(#clip762)" cx="2001.05" cy="493.543" r="14.4" fill="#009af9" fill-rule="evenodd" fill-opacity="1" stroke="#000000" stroke-opacity="1" stroke-width="3.2"/>
<circle clip-path="url(#clip762)" cx="2001.05" cy="485.313" r="14.4" fill="#009af9" fill-rule="evenodd" fill-opacity="1" stroke="#000000" stroke-opacity="1" stroke-width="3.2"/>
<circle clip-path="url(#clip762)" cx="2001.05" cy="482.711" r="14.4" fill="#009af9" fill-rule="evenodd" fill-opacity="1" stroke="#000000" stroke-opacity="1" stroke-width="3.2"/>
<circle clip-path="url(#clip762)" cx="2001.05" cy="483.98" r="14.4" fill="#009af9" fill-rule="evenodd" fill-opacity="1" stroke="#000000" stroke-opacity="1" stroke-width="3.2"/>
<circle clip-path="url(#clip762)" cx="2001.05" cy="480.884" r="14.4" fill="#009af9" fill-rule="evenodd" fill-opacity="1" stroke="#000000" stroke-opacity="1" stroke-width="3.2"/>
<circle clip-path="url(#clip762)" cx="2001.05" cy="483.379" r="14.4" fill="#009af9" fill-rule="evenodd" fill-opacity="1" stroke="#000000" stroke-opacity="1" stroke-width="3.2"/>
<circle clip-path="url(#clip762)" cx="2001.05" cy="477.244" r="14.4" fill="#009af9" fill-rule="evenodd" fill-opacity="1" stroke="#000000" stroke-opacity="1" stroke-width="3.2"/>
<circle clip-path="url(#clip762)" cx="2001.06" cy="457.402" r="14.4" fill="#009af9" fill-rule="evenodd" fill-opacity="1" stroke="#000000" stroke-opacity="1" stroke-width="3.2"/>
<circle clip-path="url(#clip762)" cx="2001.06" cy="471.633" r="14.4" fill="#009af9" fill-rule="evenodd" fill-opacity="1" stroke="#000000" stroke-opacity="1" stroke-width="3.2"/>
<circle clip-path="url(#clip762)" cx="2001.06" cy="488.303" r="14.4" fill="#009af9" fill-rule="evenodd" fill-opacity="1" stroke="#000000" stroke-opacity="1" stroke-width="3.2"/>
<circle clip-path="url(#clip762)" cx="2001.06" cy="512.666" r="14.4" fill="#009af9" fill-rule="evenodd" fill-opacity="1" stroke="#000000" stroke-opacity="1" stroke-width="3.2"/>
<circle clip-path="url(#clip762)" cx="2001.06" cy="494.097" r="14.4" fill="#009af9" fill-rule="evenodd" fill-opacity="1" stroke="#000000" stroke-opacity="1" stroke-width="3.2"/>
<circle clip-path="url(#clip762)" cx="2001.06" cy="488.035" r="14.4" fill="#009af9" fill-rule="evenodd" fill-opacity="1" stroke="#000000" stroke-opacity="1" stroke-width="3.2"/>
<circle clip-path="url(#clip762)" cx="2001.06" cy="430.904" r="14.4" fill="#009af9" fill-rule="evenodd" fill-opacity="1" stroke="#000000" stroke-opacity="1" stroke-width="3.2"/>
<circle clip-path="url(#clip762)" cx="2001.06" cy="460.042" r="14.4" fill="#009af9" fill-rule="evenodd" fill-opacity="1" stroke="#000000" stroke-opacity="1" stroke-width="3.2"/>
<circle clip-path="url(#clip762)" cx="2001.06" cy="480.656" r="14.4" fill="#009af9" fill-rule="evenodd" fill-opacity="1" stroke="#000000" stroke-opacity="1" stroke-width="3.2"/>
<circle clip-path="url(#clip762)" cx="2001.06" cy="491.153" r="14.4" fill="#009af9" fill-rule="evenodd" fill-opacity="1" stroke="#000000" stroke-opacity="1" stroke-width="3.2"/>
<circle clip-path="url(#clip762)" cx="2001.06" cy="560.93" r="14.4" fill="#009af9" fill-rule="evenodd" fill-opacity="1" stroke="#000000" stroke-opacity="1" stroke-width="3.2"/>
<circle clip-path="url(#clip762)" cx="2001.06" cy="581.357" r="14.4" fill="#009af9" fill-rule="evenodd" fill-opacity="1" stroke="#000000" stroke-opacity="1" stroke-width="3.2"/>
<circle clip-path="url(#clip762)" cx="2001.06" cy="501.922" r="14.4" fill="#009af9" fill-rule="evenodd" fill-opacity="1" stroke="#000000" stroke-opacity="1" stroke-width="3.2"/>
<circle clip-path="url(#clip762)" cx="2001.06" cy="532.732" r="14.4" fill="#009af9" fill-rule="evenodd" fill-opacity="1" stroke="#000000" stroke-opacity="1" stroke-width="3.2"/>
<circle clip-path="url(#clip762)" cx="2001.06" cy="639.893" r="14.4" fill="#009af9" fill-rule="evenodd" fill-opacity="1" stroke="#000000" stroke-opacity="1" stroke-width="3.2"/>
<circle clip-path="url(#clip762)" cx="2001.06" cy="532.876" r="14.4" fill="#009af9" fill-rule="evenodd" fill-opacity="1" stroke="#000000" stroke-opacity="1" stroke-width="3.2"/>
<circle clip-path="url(#clip762)" cx="2001.06" cy="528.477" r="14.4" fill="#009af9" fill-rule="evenodd" fill-opacity="1" stroke="#000000" stroke-opacity="1" stroke-width="3.2"/>
<circle clip-path="url(#clip762)" cx="2001.06" cy="503.791" r="14.4" fill="#009af9" fill-rule="evenodd" fill-opacity="1" stroke="#000000" stroke-opacity="1" stroke-width="3.2"/>
<circle clip-path="url(#clip762)" cx="2001.06" cy="417.845" r="14.4" fill="#009af9" fill-rule="evenodd" fill-opacity="1" stroke="#000000" stroke-opacity="1" stroke-width="3.2"/>
<circle clip-path="url(#clip762)" cx="2001.06" cy="536.623" r="14.4" fill="#009af9" fill-rule="evenodd" fill-opacity="1" stroke="#000000" stroke-opacity="1" stroke-width="3.2"/>
<circle clip-path="url(#clip762)" cx="2001.06" cy="394.271" r="14.4" fill="#009af9" fill-rule="evenodd" fill-opacity="1" stroke="#000000" stroke-opacity="1" stroke-width="3.2"/>
<circle clip-path="url(#clip762)" cx="2001.06" cy="369.12" r="14.4" fill="#009af9" fill-rule="evenodd" fill-opacity="1" stroke="#000000" stroke-opacity="1" stroke-width="3.2"/>
<circle clip-path="url(#clip762)" cx="2001.06" cy="395.863" r="14.4" fill="#009af9" fill-rule="evenodd" fill-opacity="1" stroke="#000000" stroke-opacity="1" stroke-width="3.2"/>
<circle clip-path="url(#clip762)" cx="2001.07" cy="366.328" r="14.4" fill="#009af9" fill-rule="evenodd" fill-opacity="1" stroke="#000000" stroke-opacity="1" stroke-width="3.2"/>
<circle clip-path="url(#clip762)" cx="2001.07" cy="367.004" r="14.4" fill="#009af9" fill-rule="evenodd" fill-opacity="1" stroke="#000000" stroke-opacity="1" stroke-width="3.2"/>
<circle clip-path="url(#clip762)" cx="2001.07" cy="402.913" r="14.4" fill="#009af9" fill-rule="evenodd" fill-opacity="1" stroke="#000000" stroke-opacity="1" stroke-width="3.2"/>
<circle clip-path="url(#clip762)" cx="2001.07" cy="364.181" r="14.4" fill="#009af9" fill-rule="evenodd" fill-opacity="1" stroke="#000000" stroke-opacity="1" stroke-width="3.2"/>
<circle clip-path="url(#clip762)" cx="2001.07" cy="393.67" r="14.4" fill="#009af9" fill-rule="evenodd" fill-opacity="1" stroke="#000000" stroke-opacity="1" stroke-width="3.2"/>
<circle clip-path="url(#clip762)" cx="2001.07" cy="516.244" r="14.4" fill="#009af9" fill-rule="evenodd" fill-opacity="1" stroke="#000000" stroke-opacity="1" stroke-width="3.2"/>
<circle clip-path="url(#clip762)" cx="2001.07" cy="387.154" r="14.4" fill="#009af9" fill-rule="evenodd" fill-opacity="1" stroke="#000000" stroke-opacity="1" stroke-width="3.2"/>
<circle clip-path="url(#clip762)" cx="2001.07" cy="348.481" r="14.4" fill="#009af9" fill-rule="evenodd" fill-opacity="1" stroke="#000000" stroke-opacity="1" stroke-width="3.2"/>
<circle clip-path="url(#clip762)" cx="2001.07" cy="358.594" r="14.4" fill="#009af9" fill-rule="evenodd" fill-opacity="1" stroke="#000000" stroke-opacity="1" stroke-width="3.2"/>
<circle clip-path="url(#clip762)" cx="2001.07" cy="312.306" r="14.4" fill="#009af9" fill-rule="evenodd" fill-opacity="1" stroke="#000000" stroke-opacity="1" stroke-width="3.2"/>
<circle clip-path="url(#clip762)" cx="2001.07" cy="271.832" r="14.4" fill="#009af9" fill-rule="evenodd" fill-opacity="1" stroke="#000000" stroke-opacity="1" stroke-width="3.2"/>
<circle clip-path="url(#clip762)" cx="2001.07" cy="264.801" r="14.4" fill="#009af9" fill-rule="evenodd" fill-opacity="1" stroke="#000000" stroke-opacity="1" stroke-width="3.2"/>
<circle clip-path="url(#clip762)" cx="2001.07" cy="256.57" r="14.4" fill="#009af9" fill-rule="evenodd" fill-opacity="1" stroke="#000000" stroke-opacity="1" stroke-width="3.2"/>
<circle clip-path="url(#clip762)" cx="2001.07" cy="248.781" r="14.4" fill="#009af9" fill-rule="evenodd" fill-opacity="1" stroke="#000000" stroke-opacity="1" stroke-width="3.2"/>
<circle clip-path="url(#clip762)" cx="2001.07" cy="232.947" r="14.4" fill="#009af9" fill-rule="evenodd" fill-opacity="1" stroke="#000000" stroke-opacity="1" stroke-width="3.2"/>
<circle clip-path="url(#clip762)" cx="2001.07" cy="233.899" r="14.4" fill="#009af9" fill-rule="evenodd" fill-opacity="1" stroke="#000000" stroke-opacity="1" stroke-width="3.2"/>
<circle clip-path="url(#clip762)" cx="2001.07" cy="236.253" r="14.4" fill="#009af9" fill-rule="evenodd" fill-opacity="1" stroke="#000000" stroke-opacity="1" stroke-width="3.2"/>
<circle clip-path="url(#clip762)" cx="2001.07" cy="215.17" r="14.4" fill="#009af9" fill-rule="evenodd" fill-opacity="1" stroke="#000000" stroke-opacity="1" stroke-width="3.2"/>
<circle clip-path="url(#clip762)" cx="2001.07" cy="206.003" r="14.4" fill="#009af9" fill-rule="evenodd" fill-opacity="1" stroke="#000000" stroke-opacity="1" stroke-width="3.2"/>
<circle clip-path="url(#clip762)" cx="2001.07" cy="200.703" r="14.4" fill="#009af9" fill-rule="evenodd" fill-opacity="1" stroke="#000000" stroke-opacity="1" stroke-width="3.2"/>
<circle clip-path="url(#clip762)" cx="2001.07" cy="183.081" r="14.4" fill="#009af9" fill-rule="evenodd" fill-opacity="1" stroke="#000000" stroke-opacity="1" stroke-width="3.2"/>
<circle clip-path="url(#clip762)" cx="2001.07" cy="179.367" r="14.4" fill="#009af9" fill-rule="evenodd" fill-opacity="1" stroke="#000000" stroke-opacity="1" stroke-width="3.2"/>
<circle clip-path="url(#clip762)" cx="2001.07" cy="162.362" r="14.4" fill="#009af9" fill-rule="evenodd" fill-opacity="1" stroke="#000000" stroke-opacity="1" stroke-width="3.2"/>
<circle clip-path="url(#clip762)" cx="2001.07" cy="160.256" r="14.4" fill="#009af9" fill-rule="evenodd" fill-opacity="1" stroke="#000000" stroke-opacity="1" stroke-width="3.2"/>
<path clip-path="url(#clip760)" d="M312.959 270.476 L576.402 270.476 L576.402 166.796 L312.959 166.796  Z" fill="#ffffff" fill-rule="evenodd" fill-opacity="1"/>
<polyline clip-path="url(#clip760)" style="stroke:#000000; stroke-linecap:round; stroke-linejoin:round; stroke-width:4; stroke-opacity:1; fill:none" points="312.959,270.476 576.402,270.476 576.402,166.796 312.959,166.796 312.959,270.476 "/>
<polyline clip-path="url(#clip760)" style="stroke:#009af9; stroke-linecap:round; stroke-linejoin:round; stroke-width:4; stroke-opacity:1; fill:none" points="336.405,218.636 477.08,218.636 "/>
<circle clip-path="url(#clip760)" cx="406.742" cy="218.636" r="19.5383" fill="#009af9" fill-rule="evenodd" fill-opacity="1" stroke="#000000" stroke-opacity="1" stroke-width="4.55111"/>
<path clip-path="url(#clip760)" d="M514.369 238.323 Q512.563 242.953 510.85 244.365 Q509.137 245.777 506.267 245.777 L502.864 245.777 L502.864 242.212 L505.364 242.212 Q507.123 242.212 508.096 241.379 Q509.068 240.545 510.248 237.443 L511.012 235.499 L500.526 209.99 L505.04 209.99 L513.142 230.268 L521.244 209.99 L525.758 209.99 L514.369 238.323 Z" fill="#000000" fill-rule="nonzero" fill-opacity="1" /><path clip-path="url(#clip760)" d="M533.049 231.981 L540.688 231.981 L540.688 205.615 L532.378 207.282 L532.378 203.022 L540.642 201.356 L545.318 201.356 L545.318 231.981 L552.956 231.981 L552.956 235.916 L533.049 235.916 L533.049 231.981 Z" fill="#000000" fill-rule="nonzero" fill-opacity="1" /></svg>
