<?xml version="1.0" encoding="utf-8"?>
<svg xmlns="http://www.w3.org/2000/svg" xmlns:xlink="http://www.w3.org/1999/xlink" width="600" height="400" viewBox="0 0 2400 1600">
<defs>
  <clipPath id="clip500">
    <rect x="0" y="0" width="2400" height="1600"/>
  </clipPath>
</defs>
<path clip-path="url(#clip500)" d="M0 1600 L2400 1600 L2400 0 L0 0  Z" fill="#ffffff" fill-rule="evenodd" fill-opacity="1"/>
<defs>
  <clipPath id="clip501">
    <rect x="480" y="0" width="1681" height="1600"/>
  </clipPath>
</defs>
<path clip-path="url(#clip500)" d="M175.445 1423.18 L2352.76 1423.18 L2352.76 123.472 L175.445 123.472  Z" fill="#ffffff" fill-rule="evenodd" fill-opacity="1"/>
<defs>
  <clipPath id="clip502">
    <rect x="175" y="123" width="2178" height="1301"/>
  </clipPath>
</defs>
<polyline clip-path="url(#clip502)" style="stroke:#000000; stroke-linecap:round; stroke-linejoin:round; stroke-width:2; stroke-opacity:0.1; fill:none" points="175.445,1423.18 175.445,123.472 "/>
<polyline clip-path="url(#clip502)" style="stroke:#000000; stroke-linecap:round; stroke-linejoin:round; stroke-width:2; stroke-opacity:0.1; fill:none" points="815.831,1423.18 815.831,123.472 "/>
<polyline clip-path="url(#clip502)" style="stroke:#000000; stroke-linecap:round; stroke-linejoin:round; stroke-width:2; stroke-opacity:0.1; fill:none" points="1456.22,1423.18 1456.22,123.472 "/>
<polyline clip-path="url(#clip502)" style="stroke:#000000; stroke-linecap:round; stroke-linejoin:round; stroke-width:2; stroke-opacity:0.1; fill:none" points="2096.6,1423.18 2096.6,123.472 "/>
<polyline clip-path="url(#clip500)" style="stroke:#000000; stroke-linecap:round; stroke-linejoin:round; stroke-width:4; stroke-opacity:1; fill:none" points="175.445,1423.18 2352.76,1423.18 "/>
<polyline clip-path="url(#clip500)" style="stroke:#000000; stroke-linecap:round; stroke-linejoin:round; stroke-width:4; stroke-opacity:1; fill:none" points="175.445,1423.18 175.445,1404.28 "/>
<polyline clip-path="url(#clip500)" style="stroke:#000000; stroke-linecap:round; stroke-linejoin:round; stroke-width:4; stroke-opacity:1; fill:none" points="815.831,1423.18 815.831,1404.28 "/>
<polyline clip-path="url(#clip500)" style="stroke:#000000; stroke-linecap:round; stroke-linejoin:round; stroke-width:4; stroke-opacity:1; fill:none" points="1456.22,1423.18 1456.22,1404.28 "/>
<polyline clip-path="url(#clip500)" style="stroke:#000000; stroke-linecap:round; stroke-linejoin:round; stroke-width:4; stroke-opacity:1; fill:none" points="2096.6,1423.18 2096.6,1404.28 "/>
<path clip-path="url(#clip500)" d="M152.83 1454.1 Q149.218 1454.1 147.39 1457.66 Q145.584 1461.2 145.584 1468.33 Q145.584 1475.44 147.39 1479.01 Q149.218 1482.55 152.83 1482.55 Q156.464 1482.55 158.269 1479.01 Q160.098 1475.44 160.098 1468.33 Q160.098 1461.2 158.269 1457.66 Q156.464 1454.1 152.83 1454.1 M152.83 1450.39 Q158.64 1450.39 161.695 1455 Q164.774 1459.58 164.774 1468.33 Q164.774 1477.06 161.695 1481.67 Q158.64 1486.25 152.83 1486.25 Q147.019 1486.25 143.941 1481.67 Q140.885 1477.06 140.885 1468.33 Q140.885 1459.58 143.941 1455 Q147.019 1450.39 152.83 1450.39 Z" fill="#000000" fill-rule="nonzero" fill-opacity="1" /><path clip-path="url(#clip500)" d="M172.992 1479.7 L177.876 1479.7 L177.876 1485.58 L172.992 1485.58 L172.992 1479.7 Z" fill="#000000" fill-rule="nonzero" fill-opacity="1" /><path clip-path="url(#clip500)" d="M198.061 1454.1 Q194.45 1454.1 192.621 1457.66 Q190.815 1461.2 190.815 1468.33 Q190.815 1475.44 192.621 1479.01 Q194.45 1482.55 198.061 1482.55 Q201.695 1482.55 203.501 1479.01 Q205.329 1475.44 205.329 1468.33 Q205.329 1461.2 203.501 1457.66 Q201.695 1454.1 198.061 1454.1 M198.061 1450.39 Q203.871 1450.39 206.927 1455 Q210.005 1459.58 210.005 1468.33 Q210.005 1477.06 206.927 1481.67 Q203.871 1486.25 198.061 1486.25 Q192.251 1486.25 189.172 1481.67 Q186.116 1477.06 186.116 1468.33 Q186.116 1459.58 189.172 1455 Q192.251 1450.39 198.061 1450.39 Z" fill="#000000" fill-rule="nonzero" fill-opacity="1" /><path clip-path="url(#clip500)" d="M793.829 1454.1 Q790.217 1454.1 788.389 1457.66 Q786.583 1461.2 786.583 1468.33 Q786.583 1475.44 788.389 1479.01 Q790.217 1482.55 793.829 1482.55 Q797.463 1482.55 799.268 1479.01 Q801.097 1475.44 801.097 1468.33 Q801.097 1461.2 799.268 1457.66 Q797.463 1454.1 793.829 1454.1 M793.829 1450.39 Q799.639 1450.39 802.694 1455 Q805.773 1459.58 805.773 1468.33 Q805.773 1477.06 802.694 1481.67 Q799.639 1486.25 793.829 1486.25 Q788.018 1486.25 784.94 1481.67 Q781.884 1477.06 781.884 1468.33 Q781.884 1459.58 784.94 1455 Q788.018 1450.39 793.829 1450.39 Z" fill="#000000" fill-rule="nonzero" fill-opacity="1" /><path clip-path="url(#clip500)" d="M813.99 1479.7 L818.875 1479.7 L818.875 1485.58 L813.99 1485.58 L813.99 1479.7 Z" fill="#000000" fill-rule="nonzero" fill-opacity="1" /><path clip-path="url(#clip500)" d="M829.87 1481.64 L837.509 1481.64 L837.509 1455.28 L829.199 1456.95 L829.199 1452.69 L837.463 1451.02 L842.138 1451.02 L842.138 1481.64 L849.777 1481.64 L849.777 1485.58 L829.87 1485.58 L829.87 1481.64 Z" fill="#000000" fill-rule="nonzero" fill-opacity="1" /><path clip-path="url(#clip500)" d="M1434.4 1454.1 Q1430.79 1454.1 1428.96 1457.66 Q1427.15 1461.2 1427.15 1468.33 Q1427.15 1475.44 1428.96 1479.01 Q1430.79 1482.55 1434.4 1482.55 Q1438.03 1482.55 1439.84 1479.01 Q1441.67 1475.44 1441.67 1468.33 Q1441.67 1461.2 1439.84 1457.66 Q1438.03 1454.1 1434.4 1454.1 M1434.4 1450.39 Q1440.21 1450.39 1443.26 1455 Q1446.34 1459.58 1446.34 1468.33 Q1446.34 1477.06 1443.26 1481.67 Q1440.21 1486.25 1434.4 1486.25 Q1428.59 1486.25 1425.51 1481.67 Q1422.45 1477.06 1422.45 1468.33 Q1422.45 1459.58 1425.51 1455 Q1428.59 1450.39 1434.4 1450.39 Z" fill="#000000" fill-rule="nonzero" fill-opacity="1" /><path clip-path="url(#clip500)" d="M1454.56 1479.7 L1459.45 1479.7 L1459.45 1485.58 L1454.56 1485.58 L1454.56 1479.7 Z" fill="#000000" fill-rule="nonzero" fill-opacity="1" /><path clip-path="url(#clip500)" d="M1473.66 1481.64 L1489.98 1481.64 L1489.98 1485.58 L1468.03 1485.58 L1468.03 1481.64 Q1470.7 1478.89 1475.28 1474.26 Q1479.89 1469.61 1481.07 1468.27 Q1483.31 1465.74 1484.19 1464.01 Q1485.09 1462.25 1485.09 1460.56 Q1485.09 1457.8 1483.15 1456.07 Q1481.23 1454.33 1478.13 1454.33 Q1475.93 1454.33 1473.47 1455.09 Q1471.04 1455.86 1468.26 1457.41 L1468.26 1452.69 Q1471.09 1451.55 1473.54 1450.97 Q1476 1450.39 1478.03 1450.39 Q1483.4 1450.39 1486.6 1453.08 Q1489.79 1455.77 1489.79 1460.26 Q1489.79 1462.39 1488.98 1464.31 Q1488.2 1466.2 1486.09 1468.8 Q1485.51 1469.47 1482.41 1472.69 Q1479.31 1475.88 1473.66 1481.64 Z" fill="#000000" fill-rule="nonzero" fill-opacity="1" /><path clip-path="url(#clip500)" d="M2074.31 1454.1 Q2070.7 1454.1 2068.87 1457.66 Q2067.06 1461.2 2067.06 1468.33 Q2067.06 1475.44 2068.87 1479.01 Q2070.7 1482.55 2074.31 1482.55 Q2077.94 1482.55 2079.75 1479.01 Q2081.58 1475.44 2081.58 1468.33 Q2081.58 1461.2 2079.75 1457.66 Q2077.94 1454.1 2074.31 1454.1 M2074.31 1450.39 Q2080.12 1450.39 2083.18 1455 Q2086.25 1459.58 2086.25 1468.33 Q2086.25 1477.06 2083.18 1481.67 Q2080.12 1486.25 2074.31 1486.25 Q2068.5 1486.25 2065.42 1481.67 Q2062.37 1477.06 2062.37 1468.33 Q2062.37 1459.58 2065.42 1455 Q2068.5 1450.39 2074.31 1450.39 Z" fill="#000000" fill-rule="nonzero" fill-opacity="1" /><path clip-path="url(#clip500)" d="M2094.47 1479.7 L2099.36 1479.7 L2099.36 1485.58 L2094.47 1485.58 L2094.47 1479.7 Z" fill="#000000" fill-rule="nonzero" fill-opacity="1" /><path clip-path="url(#clip500)" d="M2123.71 1466.95 Q2127.06 1467.66 2128.94 1469.93 Q2130.84 1472.2 2130.84 1475.53 Q2130.84 1480.65 2127.32 1483.45 Q2123.8 1486.25 2117.32 1486.25 Q2115.14 1486.25 2112.83 1485.81 Q2110.54 1485.39 2108.08 1484.54 L2108.08 1480.02 Q2110.03 1481.16 2112.34 1481.74 Q2114.66 1482.32 2117.18 1482.32 Q2121.58 1482.32 2123.87 1480.58 Q2126.18 1478.84 2126.18 1475.53 Q2126.18 1472.48 2124.03 1470.77 Q2121.9 1469.03 2118.08 1469.03 L2114.06 1469.03 L2114.06 1465.19 L2118.27 1465.19 Q2121.72 1465.19 2123.55 1463.82 Q2125.37 1462.43 2125.37 1459.84 Q2125.37 1457.18 2123.48 1455.77 Q2121.6 1454.33 2118.08 1454.33 Q2116.16 1454.33 2113.96 1454.75 Q2111.76 1455.16 2109.12 1456.04 L2109.12 1451.88 Q2111.79 1451.14 2114.1 1450.77 Q2116.44 1450.39 2118.5 1450.39 Q2123.82 1450.39 2126.93 1452.83 Q2130.03 1455.23 2130.03 1459.35 Q2130.03 1462.22 2128.38 1464.21 Q2126.74 1466.18 2123.71 1466.95 Z" fill="#000000" fill-rule="nonzero" fill-opacity="1" /><path clip-path="url(#clip500)" d="M1263.16 1522.27 L1263.16 1532.4 L1275.22 1532.4 L1275.22 1536.95 L1263.16 1536.95 L1263.16 1556.3 Q1263.16 1560.66 1264.34 1561.9 Q1265.55 1563.14 1269.21 1563.14 L1275.22 1563.14 L1275.22 1568.04 L1269.21 1568.04 Q1262.43 1568.04 1259.85 1565.53 Q1257.27 1562.98 1257.27 1556.3 L1257.27 1536.95 L1252.98 1536.95 L1252.98 1532.4 L1257.27 1532.4 L1257.27 1522.27 L1263.16 1522.27 Z" fill="#000000" fill-rule="nonzero" fill-opacity="1" /><polyline clip-path="url(#clip502)" style="stroke:#000000; stroke-linecap:round; stroke-linejoin:round; stroke-width:2; stroke-opacity:0.1; fill:none" points="175.445,1292.48 2352.76,1292.48 "/>
<polyline clip-path="url(#clip502)" style="stroke:#000000; stroke-linecap:round; stroke-linejoin:round; stroke-width:2; stroke-opacity:0.1; fill:none" points="175.445,1112.88 2352.76,1112.88 "/>
<polyline clip-path="url(#clip502)" style="stroke:#000000; stroke-linecap:round; stroke-linejoin:round; stroke-width:2; stroke-opacity:0.1; fill:none" points="175.445,933.276 2352.76,933.276 "/>
<polyline clip-path="url(#clip502)" style="stroke:#000000; stroke-linecap:round; stroke-linejoin:round; stroke-width:2; stroke-opacity:0.1; fill:none" points="175.445,753.672 2352.76,753.672 "/>
<polyline clip-path="url(#clip502)" style="stroke:#000000; stroke-linecap:round; stroke-linejoin:round; stroke-width:2; stroke-opacity:0.1; fill:none" points="175.445,574.068 2352.76,574.068 "/>
<polyline clip-path="url(#clip502)" style="stroke:#000000; stroke-linecap:round; stroke-linejoin:round; stroke-width:2; stroke-opacity:0.1; fill:none" points="175.445,394.463 2352.76,394.463 "/>
<polyline clip-path="url(#clip502)" style="stroke:#000000; stroke-linecap:round; stroke-linejoin:round; stroke-width:2; stroke-opacity:0.1; fill:none" points="175.445,214.859 2352.76,214.859 "/>
<polyline clip-path="url(#clip500)" style="stroke:#000000; stroke-linecap:round; stroke-linejoin:round; stroke-width:4; stroke-opacity:1; fill:none" points="175.445,1423.18 175.445,123.472 "/>
<polyline clip-path="url(#clip500)" style="stroke:#000000; stroke-linecap:round; stroke-linejoin:round; stroke-width:4; stroke-opacity:1; fill:none" points="175.445,1292.48 194.343,1292.48 "/>
<polyline clip-path="url(#clip500)" style="stroke:#000000; stroke-linecap:round; stroke-linejoin:round; stroke-width:4; stroke-opacity:1; fill:none" points="175.445,1112.88 194.343,1112.88 "/>
<polyline clip-path="url(#clip500)" style="stroke:#000000; stroke-linecap:round; stroke-linejoin:round; stroke-width:4; stroke-opacity:1; fill:none" points="175.445,933.276 194.343,933.276 "/>
<polyline clip-path="url(#clip500)" style="stroke:#000000; stroke-linecap:round; stroke-linejoin:round; stroke-width:4; stroke-opacity:1; fill:none" points="175.445,753.672 194.343,753.672 "/>
<polyline clip-path="url(#clip500)" style="stroke:#000000; stroke-linecap:round; stroke-linejoin:round; stroke-width:4; stroke-opacity:1; fill:none" points="175.445,574.068 194.343,574.068 "/>
<polyline clip-path="url(#clip500)" style="stroke:#000000; stroke-linecap:round; stroke-linejoin:round; stroke-width:4; stroke-opacity:1; fill:none" points="175.445,394.463 194.343,394.463 "/>
<polyline clip-path="url(#clip500)" style="stroke:#000000; stroke-linecap:round; stroke-linejoin:round; stroke-width:4; stroke-opacity:1; fill:none" points="175.445,214.859 194.343,214.859 "/>
<path clip-path="url(#clip500)" d="M119.538 1305.83 L127.177 1305.83 L127.177 1279.46 L118.867 1281.13 L118.867 1276.87 L127.13 1275.2 L131.806 1275.2 L131.806 1305.83 L139.445 1305.83 L139.445 1309.76 L119.538 1309.76 L119.538 1305.83 Z" fill="#000000" fill-rule="nonzero" fill-opacity="1" /><path clip-path="url(#clip500)" d="M123.126 1126.23 L139.445 1126.23 L139.445 1130.16 L117.501 1130.16 L117.501 1126.23 Q120.163 1123.47 124.746 1118.84 Q129.353 1114.19 130.533 1112.85 Q132.779 1110.32 133.658 1108.59 Q134.561 1106.83 134.561 1105.14 Q134.561 1102.38 132.617 1100.65 Q130.695 1098.91 127.593 1098.91 Q125.394 1098.91 122.941 1099.67 Q120.51 1100.44 117.732 1101.99 L117.732 1097.27 Q120.556 1096.13 123.01 1095.55 Q125.464 1094.98 127.501 1094.98 Q132.871 1094.98 136.066 1097.66 Q139.26 1100.35 139.26 1104.84 Q139.26 1106.97 138.45 1108.89 Q137.663 1110.79 135.556 1113.38 Q134.978 1114.05 131.876 1117.27 Q128.774 1120.46 123.126 1126.23 Z" fill="#000000" fill-rule="nonzero" fill-opacity="1" /><path clip-path="url(#clip500)" d="M132.316 931.922 Q135.672 932.639 137.547 934.908 Q139.445 937.176 139.445 940.51 Q139.445 945.625 135.927 948.426 Q132.408 951.227 125.927 951.227 Q123.751 951.227 121.436 950.787 Q119.144 950.371 116.691 949.514 L116.691 945 Q118.635 946.135 120.95 946.713 Q123.265 947.292 125.788 947.292 Q130.186 947.292 132.478 945.556 Q134.792 943.82 134.792 940.51 Q134.792 937.454 132.64 935.741 Q130.51 934.005 126.691 934.005 L122.663 934.005 L122.663 930.163 L126.876 930.163 Q130.325 930.163 132.154 928.797 Q133.982 927.408 133.982 924.815 Q133.982 922.153 132.084 920.741 Q130.209 919.306 126.691 919.306 Q124.769 919.306 122.57 919.723 Q120.371 920.139 117.732 921.019 L117.732 916.852 Q120.394 916.112 122.709 915.741 Q125.047 915.371 127.107 915.371 Q132.431 915.371 135.533 917.802 Q138.635 920.209 138.635 924.329 Q138.635 927.2 136.992 929.19 Q135.348 931.158 132.316 931.922 Z" fill="#000000" fill-rule="nonzero" fill-opacity="1" /><path clip-path="url(#clip500)" d="M129.862 740.466 L118.056 758.915 L129.862 758.915 L129.862 740.466 M128.635 736.392 L134.515 736.392 L134.515 758.915 L139.445 758.915 L139.445 762.804 L134.515 762.804 L134.515 770.952 L129.862 770.952 L129.862 762.804 L114.26 762.804 L114.26 758.29 L128.635 736.392 Z" fill="#000000" fill-rule="nonzero" fill-opacity="1" /><path clip-path="url(#clip500)" d="M118.543 556.788 L136.899 556.788 L136.899 560.723 L122.825 560.723 L122.825 569.195 Q123.843 568.848 124.862 568.686 Q125.88 568.5 126.899 568.5 Q132.686 568.5 136.066 571.672 Q139.445 574.843 139.445 580.26 Q139.445 585.838 135.973 588.94 Q132.501 592.019 126.181 592.019 Q124.005 592.019 121.737 591.648 Q119.492 591.278 117.084 590.537 L117.084 585.838 Q119.168 586.973 121.39 587.528 Q123.612 588.084 126.089 588.084 Q130.093 588.084 132.431 585.977 Q134.769 583.871 134.769 580.26 Q134.769 576.649 132.431 574.542 Q130.093 572.436 126.089 572.436 Q124.214 572.436 122.339 572.852 Q120.487 573.269 118.543 574.149 L118.543 556.788 Z" fill="#000000" fill-rule="nonzero" fill-opacity="1" /><path clip-path="url(#clip500)" d="M127.917 392.6 Q124.769 392.6 122.918 394.753 Q121.089 396.905 121.089 400.655 Q121.089 404.382 122.918 406.558 Q124.769 408.711 127.917 408.711 Q131.066 408.711 132.894 406.558 Q134.746 404.382 134.746 400.655 Q134.746 396.905 132.894 394.753 Q131.066 392.6 127.917 392.6 M137.2 377.947 L137.2 382.206 Q135.441 381.373 133.635 380.933 Q131.853 380.493 130.093 380.493 Q125.464 380.493 123.01 383.618 Q120.58 386.743 120.232 393.063 Q121.598 391.049 123.658 389.984 Q125.718 388.896 128.195 388.896 Q133.404 388.896 136.413 392.068 Q139.445 395.216 139.445 400.655 Q139.445 405.979 136.297 409.197 Q133.149 412.415 127.917 412.415 Q121.922 412.415 118.751 407.831 Q115.58 403.225 115.58 394.498 Q115.58 386.304 119.468 381.443 Q123.357 376.558 129.908 376.558 Q131.667 376.558 133.45 376.906 Q135.255 377.253 137.2 377.947 Z" fill="#000000" fill-rule="nonzero" fill-opacity="1" /><path clip-path="url(#clip500)" d="M117.223 197.579 L139.445 197.579 L139.445 199.57 L126.899 232.139 L122.015 232.139 L133.82 201.514 L117.223 201.514 L117.223 197.579 Z" fill="#000000" fill-rule="nonzero" fill-opacity="1" /><path clip-path="url(#clip500)" d="M14.479 941.54 L14.479 935.683 L64.0042 935.683 L64.0042 941.54 L14.479 941.54 Z" fill="#000000" fill-rule="nonzero" fill-opacity="1" /><path clip-path="url(#clip500)" d="M32.4621 909.616 Q32.4621 914.326 36.1542 917.064 Q39.8145 919.801 46.212 919.801 Q52.6095 919.801 56.3017 917.095 Q59.9619 914.358 59.9619 909.616 Q59.9619 904.937 56.2698 902.2 Q52.5777 899.462 46.212 899.462 Q39.8781 899.462 36.186 902.2 Q32.4621 904.937 32.4621 909.616 M27.4968 909.616 Q27.4968 901.977 32.4621 897.616 Q37.4273 893.256 46.212 893.256 Q54.9649 893.256 59.9619 897.616 Q64.9272 901.977 64.9272 909.616 Q64.9272 917.286 59.9619 921.647 Q54.9649 925.976 46.212 925.976 Q37.4273 925.976 32.4621 921.647 Q27.4968 917.286 27.4968 909.616 Z" fill="#000000" fill-rule="nonzero" fill-opacity="1" /><path clip-path="url(#clip500)" d="M45.7664 860.091 Q39.4007 860.091 35.8996 862.732 Q32.3984 865.342 32.3984 870.085 Q32.3984 874.795 35.8996 877.437 Q39.4007 880.047 45.7664 880.047 Q52.1003 880.047 55.6014 877.437 Q59.1026 874.795 59.1026 870.085 Q59.1026 865.342 55.6014 862.732 Q52.1003 860.091 45.7664 860.091 M59.58 854.234 Q68.683 854.234 73.1071 858.276 Q77.5631 862.319 77.5631 870.658 Q77.5631 873.745 77.0857 876.482 Q76.6401 879.22 75.6852 881.798 L69.9879 881.798 Q71.3884 879.22 72.0568 876.705 Q72.7252 874.191 72.7252 871.581 Q72.7252 865.82 69.7015 862.955 Q66.7096 860.091 60.6303 860.091 L57.7339 860.091 Q60.885 861.905 62.4446 864.738 Q64.0042 867.57 64.0042 871.517 Q64.0042 878.074 59.0071 882.084 Q54.01 886.094 45.7664 886.094 Q37.491 886.094 32.4939 882.084 Q27.4968 878.074 27.4968 871.517 Q27.4968 867.57 29.0564 864.738 Q30.616 861.905 33.7671 860.091 L28.3562 860.091 L28.3562 854.234 L59.58 854.234 Z" fill="#000000" fill-rule="nonzero" fill-opacity="1" /><path clip-path="url(#clip500)" d="M58.5933 840.23 L58.5933 829.726 L22.3406 829.726 L24.6323 841.153 L18.7758 841.153 L16.4842 829.79 L16.4842 823.36 L58.5933 823.36 L58.5933 812.857 L64.0042 812.857 L64.0042 840.23 L58.5933 840.23 Z" fill="#000000" fill-rule="nonzero" fill-opacity="1" /><path clip-path="url(#clip500)" d="M20.7174 786.121 Q20.7174 791.086 25.6189 793.601 Q30.4887 796.083 40.2919 796.083 Q50.0633 796.083 54.9649 793.601 Q59.8346 791.086 59.8346 786.121 Q59.8346 781.124 54.9649 778.641 Q50.0633 776.127 40.2919 776.127 Q30.4887 776.127 25.6189 778.641 Q20.7174 781.124 20.7174 786.121 M15.6248 786.121 Q15.6248 778.132 21.9587 773.931 Q28.2607 769.698 40.2919 769.698 Q52.2913 769.698 58.6251 773.931 Q64.9272 778.132 64.9272 786.121 Q64.9272 794.11 58.6251 798.343 Q52.2913 802.545 40.2919 802.545 Q28.2607 802.545 21.9587 798.343 Q15.6248 794.11 15.6248 786.121 Z" fill="#000000" fill-rule="nonzero" fill-opacity="1" /><path clip-path="url(#clip500)" d="M14.5426 745.158 Q21.8632 749.423 29.0246 751.492 Q36.186 753.56 43.5384 753.56 Q50.8908 753.56 58.1159 751.492 Q65.3091 749.391 72.5979 745.158 L72.5979 750.25 Q65.1182 755.025 57.8931 757.412 Q50.668 759.767 43.5384 759.767 Q36.4406 759.767 29.2474 757.412 Q22.0542 755.056 14.5426 750.25 L14.5426 745.158 Z" fill="#000000" fill-rule="nonzero" fill-opacity="1" /><path clip-path="url(#clip500)" d="M28.3562 704.163 L45.7028 717.053 L64.0042 703.494 L64.0042 710.401 L49.9996 720.777 L64.0042 731.153 L64.0042 738.06 L45.3526 724.215 L28.3562 736.882 L28.3562 729.976 L41.0558 720.522 L28.3562 711.069 L28.3562 704.163 Z" fill="#000000" fill-rule="nonzero" fill-opacity="1" /><path clip-path="url(#clip500)" d="M14.5426 681.151 Q21.8632 685.416 29.0246 687.484 Q36.186 689.553 43.5384 689.553 Q50.8908 689.553 58.1159 687.484 Q65.3091 685.384 72.5979 681.151 L72.5979 686.243 Q65.1182 691.017 57.8931 693.405 Q50.668 695.76 43.5384 695.76 Q36.4406 695.76 29.2474 693.405 Q22.0542 691.049 14.5426 686.243 L14.5426 681.151 Z" fill="#000000" fill-rule="nonzero" fill-opacity="1" /><path clip-path="url(#clip500)" d="M18.2347 663.995 L28.3562 663.995 L28.3562 651.932 L32.9077 651.932 L32.9077 663.995 L52.2594 663.995 Q56.6199 663.995 57.8613 662.817 Q59.1026 661.608 59.1026 657.948 L59.1026 651.932 L64.0042 651.932 L64.0042 657.948 Q64.0042 664.727 61.4897 667.305 Q58.9434 669.883 52.2594 669.883 L32.9077 669.883 L32.9077 674.18 L28.3562 674.18 L28.3562 669.883 L18.2347 669.883 L18.2347 663.995 Z" fill="#000000" fill-rule="nonzero" fill-opacity="1" /><path clip-path="url(#clip500)" d="M14.5426 645.152 L14.5426 640.06 Q22.0542 635.286 29.2474 632.93 Q36.4406 630.543 43.5384 630.543 Q50.668 630.543 57.8931 632.93 Q65.1182 635.286 72.5979 640.06 L72.5979 645.152 Q65.3091 640.919 58.1159 638.85 Q50.8908 636.75 43.5384 636.75 Q36.186 636.75 29.0246 638.85 Q21.8632 640.919 14.5426 645.152 Z" fill="#000000" fill-rule="nonzero" fill-opacity="1" /><path clip-path="url(#clip500)" d="M14.5426 619.721 L14.5426 614.629 Q22.0542 609.855 29.2474 607.499 Q36.4406 605.112 43.5384 605.112 Q50.668 605.112 57.8931 607.499 Q65.1182 609.855 72.5979 614.629 L72.5979 619.721 Q65.3091 615.488 58.1159 613.419 Q50.8908 611.319 43.5384 611.319 Q36.186 611.319 29.0246 613.419 Q21.8632 615.488 14.5426 619.721 Z" fill="#000000" fill-rule="nonzero" fill-opacity="1" /><path clip-path="url(#clip500)" d="M1160.54 12.096 L1195.3 12.096 L1195.3 18.9825 L1168.72 18.9825 L1168.72 36.8065 L1192.7 36.8065 L1192.7 43.6931 L1168.72 43.6931 L1168.72 72.576 L1160.54 72.576 L1160.54 12.096 Z" fill="#000000" fill-rule="nonzero" fill-opacity="1" /><path clip-path="url(#clip500)" d="M1201.9 27.2059 L1209.35 27.2059 L1209.35 72.576 L1201.9 72.576 L1201.9 27.2059 M1201.9 9.54393 L1209.35 9.54393 L1209.35 18.9825 L1201.9 18.9825 L1201.9 9.54393 Z" fill="#000000" fill-rule="nonzero" fill-opacity="1" /><path clip-path="url(#clip500)" d="M1254.8 49.3643 Q1254.8 41.2625 1251.44 36.8065 Q1248.12 32.3505 1242.08 32.3505 Q1236.09 32.3505 1232.73 36.8065 Q1229.4 41.2625 1229.4 49.3643 Q1229.4 57.4256 1232.73 61.8816 Q1236.09 66.3376 1242.08 66.3376 Q1248.12 66.3376 1251.44 61.8816 Q1254.8 57.4256 1254.8 49.3643 M1262.26 66.9452 Q1262.26 78.5308 1257.11 84.1616 Q1251.97 89.8329 1241.35 89.8329 Q1237.43 89.8329 1233.94 89.2252 Q1230.46 88.6581 1227.18 87.4428 L1227.18 80.1917 Q1230.46 81.9741 1233.66 82.8248 Q1236.86 83.6755 1240.18 83.6755 Q1247.51 83.6755 1251.16 79.8271 Q1254.8 76.0193 1254.8 68.282 L1254.8 64.5957 Q1252.49 68.6061 1248.89 70.5911 Q1245.28 72.576 1240.26 72.576 Q1231.92 72.576 1226.81 66.2161 Q1221.71 59.8562 1221.71 49.3643 Q1221.71 38.832 1226.81 32.472 Q1231.92 26.1121 1240.26 26.1121 Q1245.28 26.1121 1248.89 28.0971 Q1252.49 30.082 1254.8 34.0924 L1254.8 27.2059 L1262.26 27.2059 L1262.26 66.9452 Z" fill="#000000" fill-rule="nonzero" fill-opacity="1" /><path clip-path="url(#clip500)" d="M1278.66 62.2867 L1287.21 62.2867 L1287.21 72.576 L1278.66 72.576 L1278.66 62.2867 Z" fill="#000000" fill-rule="nonzero" fill-opacity="1" /><path clip-path="url(#clip500)" d="M1332.82 65.6895 L1346.19 65.6895 L1346.19 19.5497 L1331.65 22.4663 L1331.65 15.0127 L1346.11 12.096 L1354.29 12.096 L1354.29 65.6895 L1367.66 65.6895 L1367.66 72.576 L1332.82 72.576 L1332.82 65.6895 Z" fill="#000000" fill-rule="nonzero" fill-opacity="1" /><polyline clip-path="url(#clip502)" style="stroke:#009af9; stroke-linecap:round; stroke-linejoin:round; stroke-width:4; stroke-opacity:1; fill:none" points="175.445,1386.4 474.745,1374.61 730.465,1362.91 949.183,1351.28 1136.45,1339.74 1296.95,1328.26 1434.66,1316.87 1552.93,1305.55 1654.6,1294.3 1742.09,1283.12 1817.46,1272.02 1882.43,1260.99 1938.51,1250.02 1986.94,1239.13 2028.82,1228.3 2065.06,1217.54 2096.45,1206.85 2123.66,1196.22 2147.27,1185.65 2167.78,1175.15 2185.6,1164.71 2201.1,1154.34 2214.6,1144.02 2226.36,1133.77 2236.61,1123.58 2245.56,1113.44 2253.38,1103.36 2260.21,1093.35 2266.19,1083.38 2271.42,1073.48 2276.01,1063.63 2280.02,1053.83 2283.55,1044.09 2286.65,1034.41 2289.37,1024.77 2291.76,1015.19 2293.86,1005.66 2295.72,996.188 2297.35,986.761 2298.79,977.385 2300.06,968.059 2301.18,958.782 2302.17,949.554 2303.05,940.374 2303.82,931.241 2304.51,922.156 2305.12,913.117 2305.66,904.124 2306.13,895.178 2306.56,886.276 2306.93,877.419 2307.27,868.606 2307.57,859.837 2307.83,851.111 2308.07,842.429 2308.27,833.789 2308.46,825.19 2308.63,816.634 2308.78,808.119 2308.91,799.644 2309.03,791.21 2309.13,782.816 2309.23,774.462 2309.31,766.147 2309.39,757.871 2309.46,749.633 2309.52,741.433 2309.57,733.272 2309.62,725.147 2309.66,717.06 2309.7,709.009 2309.74,700.995 2309.77,693.017 2309.8,685.075 2309.82,677.168 2309.85,669.296 2309.87,661.458 2309.89,653.656 2309.9,645.887 2309.92,638.152 2309.93,630.451 2309.94,622.783 2309.96,615.148 2309.97,607.545 2309.97,599.975 2309.98,592.437 2309.99,584.931 2310,577.456 2310,570.012 2310.01,562.6 2310.01,555.218 2310.02,547.867 2310.02,540.546 2310.03,533.254 2310.03,525.993 2310.03,518.761 2310.03,511.558 2310.04,504.384 2310.04,497.239 2310.04,490.123 2310.04,483.034 2310.05,475.974 2310.05,468.942 2310.05,461.937 2310.05,454.959 2310.05,448.009 2310.05,441.085 2310.05,434.189 2310.05,427.319 2310.05,420.475 2310.06,413.657 2310.06,406.865 2310.06,400.099 2310.06,393.358 2310.06,386.643 2310.06,379.952 2310.06,373.287 2310.06,366.646 2310.06,360.03 2310.06,353.438 2310.06,346.871 2310.06,340.327 2310.06,333.808 2310.06,327.311 2310.06,320.839 2310.06,314.389 2310.06,307.963 2310.06,301.56 2310.06,295.179 2310.06,288.821 2310.06,282.486 2310.06,276.173 2310.06,269.882 2310.06,263.613 2310.06,257.365 2310.06,251.14 2310.06,244.936 2310.06,238.753 2310.06,232.592 2310.06,226.451 2310.06,220.332 2310.06,214.233 2310.06,208.155 2310.06,202.097 2310.06,196.06 2310.06,190.043 2310.06,184.046 2310.06,178.069 2310.06,172.112 2310.06,166.174 2310.06,160.256 "/>
<circle clip-path="url(#clip502)" cx="175.445" cy="1386.4" r="14.4" fill="#009af9" fill-rule="evenodd" fill-opacity="1" stroke="#000000" stroke-opacity="1" stroke-width="3.2"/>
<circle clip-path="url(#clip502)" cx="474.745" cy="1374.61" r="14.4" fill="#009af9" fill-rule="evenodd" fill-opacity="1" stroke="#000000" stroke-opacity="1" stroke-width="3.2"/>
<circle clip-path="url(#clip502)" cx="730.465" cy="1362.91" r="14.4" fill="#009af9" fill-rule="evenodd" fill-opacity="1" stroke="#000000" stroke-opacity="1" stroke-width="3.2"/>
<circle clip-path="url(#clip502)" cx="949.183" cy="1351.28" r="14.4" fill="#009af9" fill-rule="evenodd" fill-opacity="1" stroke="#000000" stroke-opacity="1" stroke-width="3.2"/>
<circle clip-path="url(#clip502)" cx="1136.45" cy="1339.74" r="14.4" fill="#009af9" fill-rule="evenodd" fill-opacity="1" stroke="#000000" stroke-opacity="1" stroke-width="3.2"/>
<circle clip-path="url(#clip502)" cx="1296.95" cy="1328.26" r="14.4" fill="#009af9" fill-rule="evenodd" fill-opacity="1" stroke="#000000" stroke-opacity="1" stroke-width="3.2"/>
<circle clip-path="url(#clip502)" cx="1434.66" cy="1316.87" r="14.4" fill="#009af9" fill-rule="evenodd" fill-opacity="1" stroke="#000000" stroke-opacity="1" stroke-width="3.2"/>
<circle clip-path="url(#clip502)" cx="1552.93" cy="1305.55" r="14.4" fill="#009af9" fill-rule="evenodd" fill-opacity="1" stroke="#000000" stroke-opacity="1" stroke-width="3.2"/>
<circle clip-path="url(#clip502)" cx="1654.6" cy="1294.3" r="14.4" fill="#009af9" fill-rule="evenodd" fill-opacity="1" stroke="#000000" stroke-opacity="1" stroke-width="3.2"/>
<circle clip-path="url(#clip502)" cx="1742.09" cy="1283.12" r="14.4" fill="#009af9" fill-rule="evenodd" fill-opacity="1" stroke="#000000" stroke-opacity="1" stroke-width="3.2"/>
<circle clip-path="url(#clip502)" cx="1817.46" cy="1272.02" r="14.4" fill="#009af9" fill-rule="evenodd" fill-opacity="1" stroke="#000000" stroke-opacity="1" stroke-width="3.2"/>
<circle clip-path="url(#clip502)" cx="1882.43" cy="1260.99" r="14.4" fill="#009af9" fill-rule="evenodd" fill-opacity="1" stroke="#000000" stroke-opacity="1" stroke-width="3.2"/>
<circle clip-path="url(#clip502)" cx="1938.51" cy="1250.02" r="14.4" fill="#009af9" fill-rule="evenodd" fill-opacity="1" stroke="#000000" stroke-opacity="1" stroke-width="3.2"/>
<circle clip-path="url(#clip502)" cx="1986.94" cy="1239.13" r="14.4" fill="#009af9" fill-rule="evenodd" fill-opacity="1" stroke="#000000" stroke-opacity="1" stroke-width="3.2"/>
<circle clip-path="url(#clip502)" cx="2028.82" cy="1228.3" r="14.4" fill="#009af9" fill-rule="evenodd" fill-opacity="1" stroke="#000000" stroke-opacity="1" stroke-width="3.2"/>
<circle clip-path="url(#clip502)" cx="2065.06" cy="1217.54" r="14.4" fill="#009af9" fill-rule="evenodd" fill-opacity="1" stroke="#000000" stroke-opacity="1" stroke-width="3.2"/>
<circle clip-path="url(#clip502)" cx="2096.45" cy="1206.85" r="14.4" fill="#009af9" fill-rule="evenodd" fill-opacity="1" stroke="#000000" stroke-opacity="1" stroke-width="3.2"/>
<circle clip-path="url(#clip502)" cx="2123.66" cy="1196.22" r="14.4" fill="#009af9" fill-rule="evenodd" fill-opacity="1" stroke="#000000" stroke-opacity="1" stroke-width="3.2"/>
<circle clip-path="url(#clip502)" cx="2147.27" cy="1185.65" r="14.4" fill="#009af9" fill-rule="evenodd" fill-opacity="1" stroke="#000000" stroke-opacity="1" stroke-width="3.2"/>
<circle clip-path="url(#clip502)" cx="2167.78" cy="1175.15" r="14.4" fill="#009af9" fill-rule="evenodd" fill-opacity="1" stroke="#000000" stroke-opacity="1" stroke-width="3.2"/>
<circle clip-path="url(#clip502)" cx="2185.6" cy="1164.71" r="14.4" fill="#009af9" fill-rule="evenodd" fill-opacity="1" stroke="#000000" stroke-opacity="1" stroke-width="3.2"/>
<circle clip-path="url(#clip502)" cx="2201.1" cy="1154.34" r="14.4" fill="#009af9" fill-rule="evenodd" fill-opacity="1" stroke="#000000" stroke-opacity="1" stroke-width="3.2"/>
<circle clip-path="url(#clip502)" cx="2214.6" cy="1144.02" r="14.4" fill="#009af9" fill-rule="evenodd" fill-opacity="1" stroke="#000000" stroke-opacity="1" stroke-width="3.2"/>
<circle clip-path="url(#clip502)" cx="2226.36" cy="1133.77" r="14.4" fill="#009af9" fill-rule="evenodd" fill-opacity="1" stroke="#000000" stroke-opacity="1" stroke-width="3.2"/>
<circle clip-path="url(#clip502)" cx="2236.61" cy="1123.58" r="14.4" fill="#009af9" fill-rule="evenodd" fill-opacity="1" stroke="#000000" stroke-opacity="1" stroke-width="3.2"/>
<circle clip-path="url(#clip502)" cx="2245.56" cy="1113.44" r="14.4" fill="#009af9" fill-rule="evenodd" fill-opacity="1" stroke="#000000" stroke-opacity="1" stroke-width="3.2"/>
<circle clip-path="url(#clip502)" cx="2253.38" cy="1103.36" r="14.4" fill="#009af9" fill-rule="evenodd" fill-opacity="1" stroke="#000000" stroke-opacity="1" stroke-width="3.2"/>
<circle clip-path="url(#clip502)" cx="2260.21" cy="1093.35" r="14.4" fill="#009af9" fill-rule="evenodd" fill-opacity="1" stroke="#000000" stroke-opacity="1" stroke-width="3.2"/>
<circle clip-path="url(#clip502)" cx="2266.19" cy="1083.38" r="14.4" fill="#009af9" fill-rule="evenodd" fill-opacity="1" stroke="#000000" stroke-opacity="1" stroke-width="3.2"/>
<circle clip-path="url(#clip502)" cx="2271.42" cy="1073.48" r="14.4" fill="#009af9" fill-rule="evenodd" fill-opacity="1" stroke="#000000" stroke-opacity="1" stroke-width="3.2"/>
<circle clip-path="url(#clip502)" cx="2276.01" cy="1063.63" r="14.4" fill="#009af9" fill-rule="evenodd" fill-opacity="1" stroke="#000000" stroke-opacity="1" stroke-width="3.2"/>
<circle clip-path="url(#clip502)" cx="2280.02" cy="1053.83" r="14.4" fill="#009af9" fill-rule="evenodd" fill-opacity="1" stroke="#000000" stroke-opacity="1" stroke-width="3.2"/>
<circle clip-path="url(#clip502)" cx="2283.55" cy="1044.09" r="14.4" fill="#009af9" fill-rule="evenodd" fill-opacity="1" stroke="#000000" stroke-opacity="1" stroke-width="3.2"/>
<circle clip-path="url(#clip502)" cx="2286.65" cy="1034.41" r="14.4" fill="#009af9" fill-rule="evenodd" fill-opacity="1" stroke="#000000" stroke-opacity="1" stroke-width="3.2"/>
<circle clip-path="url(#clip502)" cx="2289.37" cy="1024.77" r="14.4" fill="#009af9" fill-rule="evenodd" fill-opacity="1" stroke="#000000" stroke-opacity="1" stroke-width="3.2"/>
<circle clip-path="url(#clip502)" cx="2291.76" cy="1015.19" r="14.4" fill="#009af9" fill-rule="evenodd" fill-opacity="1" stroke="#000000" stroke-opacity="1" stroke-width="3.2"/>
<circle clip-path="url(#clip502)" cx="2293.86" cy="1005.66" r="14.4" fill="#009af9" fill-rule="evenodd" fill-opacity="1" stroke="#000000" stroke-opacity="1" stroke-width="3.2"/>
<circle clip-path="url(#clip502)" cx="2295.72" cy="996.188" r="14.4" fill="#009af9" fill-rule="evenodd" fill-opacity="1" stroke="#000000" stroke-opacity="1" stroke-width="3.2"/>
<circle clip-path="url(#clip502)" cx="2297.35" cy="986.761" r="14.4" fill="#009af9" fill-rule="evenodd" fill-opacity="1" stroke="#000000" stroke-opacity="1" stroke-width="3.2"/>
<circle clip-path="url(#clip502)" cx="2298.79" cy="977.385" r="14.4" fill="#009af9" fill-rule="evenodd" fill-opacity="1" stroke="#000000" stroke-opacity="1" stroke-width="3.2"/>
<circle clip-path="url(#clip502)" cx="2300.06" cy="968.059" r="14.4" fill="#009af9" fill-rule="evenodd" fill-opacity="1" stroke="#000000" stroke-opacity="1" stroke-width="3.2"/>
<circle clip-path="url(#clip502)" cx="2301.18" cy="958.782" r="14.4" fill="#009af9" fill-rule="evenodd" fill-opacity="1" stroke="#000000" stroke-opacity="1" stroke-width="3.2"/>
<circle clip-path="url(#clip502)" cx="2302.17" cy="949.554" r="14.4" fill="#009af9" fill-rule="evenodd" fill-opacity="1" stroke="#000000" stroke-opacity="1" stroke-width="3.2"/>
<circle clip-path="url(#clip502)" cx="2303.05" cy="940.374" r="14.4" fill="#009af9" fill-rule="evenodd" fill-opacity="1" stroke="#000000" stroke-opacity="1" stroke-width="3.2"/>
<circle clip-path="url(#clip502)" cx="2303.82" cy="931.241" r="14.4" fill="#009af9" fill-rule="evenodd" fill-opacity="1" stroke="#000000" stroke-opacity="1" stroke-width="3.2"/>
<circle clip-path="url(#clip502)" cx="2304.51" cy="922.156" r="14.4" fill="#009af9" fill-rule="evenodd" fill-opacity="1" stroke="#000000" stroke-opacity="1" stroke-width="3.2"/>
<circle clip-path="url(#clip502)" cx="2305.12" cy="913.117" r="14.4" fill="#009af9" fill-rule="evenodd" fill-opacity="1" stroke="#000000" stroke-opacity="1" stroke-width="3.2"/>
<circle clip-path="url(#clip502)" cx="2305.66" cy="904.124" r="14.4" fill="#009af9" fill-rule="evenodd" fill-opacity="1" stroke="#000000" stroke-opacity="1" stroke-width="3.2"/>
<circle clip-path="url(#clip502)" cx="2306.13" cy="895.178" r="14.4" fill="#009af9" fill-rule="evenodd" fill-opacity="1" stroke="#000000" stroke-opacity="1" stroke-width="3.2"/>
<circle clip-path="url(#clip502)" cx="2306.56" cy="886.276" r="14.4" fill="#009af9" fill-rule="evenodd" fill-opacity="1" stroke="#000000" stroke-opacity="1" stroke-width="3.2"/>
<circle clip-path="url(#clip502)" cx="2306.93" cy="877.419" r="14.4" fill="#009af9" fill-rule="evenodd" fill-opacity="1" stroke="#000000" stroke-opacity="1" stroke-width="3.2"/>
<circle clip-path="url(#clip502)" cx="2307.27" cy="868.606" r="14.4" fill="#009af9" fill-rule="evenodd" fill-opacity="1" stroke="#000000" stroke-opacity="1" stroke-width="3.2"/>
<circle clip-path="url(#clip502)" cx="2307.57" cy="859.837" r="14.4" fill="#009af9" fill-rule="evenodd" fill-opacity="1" stroke="#000000" stroke-opacity="1" stroke-width="3.2"/>
<circle clip-path="url(#clip502)" cx="2307.83" cy="851.111" r="14.4" fill="#009af9" fill-rule="evenodd" fill-opacity="1" stroke="#000000" stroke-opacity="1" stroke-width="3.2"/>
<circle clip-path="url(#clip502)" cx="2308.07" cy="842.429" r="14.4" fill="#009af9" fill-rule="evenodd" fill-opacity="1" stroke="#000000" stroke-opacity="1" stroke-width="3.2"/>
<circle clip-path="url(#clip502)" cx="2308.27" cy="833.789" r="14.4" fill="#009af9" fill-rule="evenodd" fill-opacity="1" stroke="#000000" stroke-opacity="1" stroke-width="3.2"/>
<circle clip-path="url(#clip502)" cx="2308.46" cy="825.19" r="14.4" fill="#009af9" fill-rule="evenodd" fill-opacity="1" stroke="#000000" stroke-opacity="1" stroke-width="3.2"/>
<circle clip-path="url(#clip502)" cx="2308.63" cy="816.634" r="14.4" fill="#009af9" fill-rule="evenodd" fill-opacity="1" stroke="#000000" stroke-opacity="1" stroke-width="3.2"/>
<circle clip-path="url(#clip502)" cx="2308.78" cy="808.119" r="14.4" fill="#009af9" fill-rule="evenodd" fill-opacity="1" stroke="#000000" stroke-opacity="1" stroke-width="3.2"/>
<circle clip-path="url(#clip502)" cx="2308.91" cy="799.644" r="14.4" fill="#009af9" fill-rule="evenodd" fill-opacity="1" stroke="#000000" stroke-opacity="1" stroke-width="3.2"/>
<circle clip-path="url(#clip502)" cx="2309.03" cy="791.21" r="14.4" fill="#009af9" fill-rule="evenodd" fill-opacity="1" stroke="#000000" stroke-opacity="1" stroke-width="3.2"/>
<circle clip-path="url(#clip502)" cx="2309.13" cy="782.816" r="14.4" fill="#009af9" fill-rule="evenodd" fill-opacity="1" stroke="#000000" stroke-opacity="1" stroke-width="3.2"/>
<circle clip-path="url(#clip502)" cx="2309.23" cy="774.462" r="14.4" fill="#009af9" fill-rule="evenodd" fill-opacity="1" stroke="#000000" stroke-opacity="1" stroke-width="3.2"/>
<circle clip-path="url(#clip502)" cx="2309.31" cy="766.147" r="14.4" fill="#009af9" fill-rule="evenodd" fill-opacity="1" stroke="#000000" stroke-opacity="1" stroke-width="3.2"/>
<circle clip-path="url(#clip502)" cx="2309.39" cy="757.871" r="14.4" fill="#009af9" fill-rule="evenodd" fill-opacity="1" stroke="#000000" stroke-opacity="1" stroke-width="3.2"/>
<circle clip-path="url(#clip502)" cx="2309.46" cy="749.633" r="14.4" fill="#009af9" fill-rule="evenodd" fill-opacity="1" stroke="#000000" stroke-opacity="1" stroke-width="3.2"/>
<circle clip-path="url(#clip502)" cx="2309.52" cy="741.433" r="14.4" fill="#009af9" fill-rule="evenodd" fill-opacity="1" stroke="#000000" stroke-opacity="1" stroke-width="3.2"/>
<circle clip-path="url(#clip502)" cx="2309.57" cy="733.272" r="14.4" fill="#009af9" fill-rule="evenodd" fill-opacity="1" stroke="#000000" stroke-opacity="1" stroke-width="3.2"/>
<circle clip-path="url(#clip502)" cx="2309.62" cy="725.147" r="14.4" fill="#009af9" fill-rule="evenodd" fill-opacity="1" stroke="#000000" stroke-opacity="1" stroke-width="3.2"/>
<circle clip-path="url(#clip502)" cx="2309.66" cy="717.06" r="14.4" fill="#009af9" fill-rule="evenodd" fill-opacity="1" stroke="#000000" stroke-opacity="1" stroke-width="3.2"/>
<circle clip-path="url(#clip502)" cx="2309.7" cy="709.009" r="14.4" fill="#009af9" fill-rule="evenodd" fill-opacity="1" stroke="#000000" stroke-opacity="1" stroke-width="3.2"/>
<circle clip-path="url(#clip502)" cx="2309.74" cy="700.995" r="14.4" fill="#009af9" fill-rule="evenodd" fill-opacity="1" stroke="#000000" stroke-opacity="1" stroke-width="3.2"/>
<circle clip-path="url(#clip502)" cx="2309.77" cy="693.017" r="14.4" fill="#009af9" fill-rule="evenodd" fill-opacity="1" stroke="#000000" stroke-opacity="1" stroke-width="3.2"/>
<circle clip-path="url(#clip502)" cx="2309.8" cy="685.075" r="14.4" fill="#009af9" fill-rule="evenodd" fill-opacity="1" stroke="#000000" stroke-opacity="1" stroke-width="3.2"/>
<circle clip-path="url(#clip502)" cx="2309.82" cy="677.168" r="14.4" fill="#009af9" fill-rule="evenodd" fill-opacity="1" stroke="#000000" stroke-opacity="1" stroke-width="3.2"/>
<circle clip-path="url(#clip502)" cx="2309.85" cy="669.296" r="14.4" fill="#009af9" fill-rule="evenodd" fill-opacity="1" stroke="#000000" stroke-opacity="1" stroke-width="3.2"/>
<circle clip-path="url(#clip502)" cx="2309.87" cy="661.458" r="14.4" fill="#009af9" fill-rule="evenodd" fill-opacity="1" stroke="#000000" stroke-opacity="1" stroke-width="3.2"/>
<circle clip-path="url(#clip502)" cx="2309.89" cy="653.656" r="14.4" fill="#009af9" fill-rule="evenodd" fill-opacity="1" stroke="#000000" stroke-opacity="1" stroke-width="3.2"/>
<circle clip-path="url(#clip502)" cx="2309.9" cy="645.887" r="14.4" fill="#009af9" fill-rule="evenodd" fill-opacity="1" stroke="#000000" stroke-opacity="1" stroke-width="3.2"/>
<circle clip-path="url(#clip502)" cx="2309.92" cy="638.152" r="14.4" fill="#009af9" fill-rule="evenodd" fill-opacity="1" stroke="#000000" stroke-opacity="1" stroke-width="3.2"/>
<circle clip-path="url(#clip502)" cx="2309.93" cy="630.451" r="14.4" fill="#009af9" fill-rule="evenodd" fill-opacity="1" stroke="#000000" stroke-opacity="1" stroke-width="3.2"/>
<circle clip-path="url(#clip502)" cx="2309.94" cy="622.783" r="14.4" fill="#009af9" fill-rule="evenodd" fill-opacity="1" stroke="#000000" stroke-opacity="1" stroke-width="3.2"/>
<circle clip-path="url(#clip502)" cx="2309.96" cy="615.148" r="14.4" fill="#009af9" fill-rule="evenodd" fill-opacity="1" stroke="#000000" stroke-opacity="1" stroke-width="3.2"/>
<circle clip-path="url(#clip502)" cx="2309.97" cy="607.545" r="14.4" fill="#009af9" fill-rule="evenodd" fill-opacity="1" stroke="#000000" stroke-opacity="1" stroke-width="3.2"/>
<circle clip-path="url(#clip502)" cx="2309.97" cy="599.975" r="14.4" fill="#009af9" fill-rule="evenodd" fill-opacity="1" stroke="#000000" stroke-opacity="1" stroke-width="3.2"/>
<circle clip-path="url(#clip502)" cx="2309.98" cy="592.437" r="14.4" fill="#009af9" fill-rule="evenodd" fill-opacity="1" stroke="#000000" stroke-opacity="1" stroke-width="3.2"/>
<circle clip-path="url(#clip502)" cx="2309.99" cy="584.931" r="14.4" fill="#009af9" fill-rule="evenodd" fill-opacity="1" stroke="#000000" stroke-opacity="1" stroke-width="3.2"/>
<circle clip-path="url(#clip502)" cx="2310" cy="577.456" r="14.4" fill="#009af9" fill-rule="evenodd" fill-opacity="1" stroke="#000000" stroke-opacity="1" stroke-width="3.2"/>
<circle clip-path="url(#clip502)" cx="2310" cy="570.012" r="14.4" fill="#009af9" fill-rule="evenodd" fill-opacity="1" stroke="#000000" stroke-opacity="1" stroke-width="3.2"/>
<circle clip-path="url(#clip502)" cx="2310.01" cy="562.6" r="14.4" fill="#009af9" fill-rule="evenodd" fill-opacity="1" stroke="#000000" stroke-opacity="1" stroke-width="3.2"/>
<circle clip-path="url(#clip502)" cx="2310.01" cy="555.218" r="14.4" fill="#009af9" fill-rule="evenodd" fill-opacity="1" stroke="#000000" stroke-opacity="1" stroke-width="3.2"/>
<circle clip-path="url(#clip502)" cx="2310.02" cy="547.867" r="14.4" fill="#009af9" fill-rule="evenodd" fill-opacity="1" stroke="#000000" stroke-opacity="1" stroke-width="3.2"/>
<circle clip-path="url(#clip502)" cx="2310.02" cy="540.546" r="14.4" fill="#009af9" fill-rule="evenodd" fill-opacity="1" stroke="#000000" stroke-opacity="1" stroke-width="3.2"/>
<circle clip-path="url(#clip502)" cx="2310.03" cy="533.254" r="14.4" fill="#009af9" fill-rule="evenodd" fill-opacity="1" stroke="#000000" stroke-opacity="1" stroke-width="3.2"/>
<circle clip-path="url(#clip502)" cx="2310.03" cy="525.993" r="14.4" fill="#009af9" fill-rule="evenodd" fill-opacity="1" stroke="#000000" stroke-opacity="1" stroke-width="3.2"/>
<circle clip-path="url(#clip502)" cx="2310.03" cy="518.761" r="14.4" fill="#009af9" fill-rule="evenodd" fill-opacity="1" stroke="#000000" stroke-opacity="1" stroke-width="3.2"/>
<circle clip-path="url(#clip502)" cx="2310.03" cy="511.558" r="14.4" fill="#009af9" fill-rule="evenodd" fill-opacity="1" stroke="#000000" stroke-opacity="1" stroke-width="3.2"/>
<circle clip-path="url(#clip502)" cx="2310.04" cy="504.384" r="14.4" fill="#009af9" fill-rule="evenodd" fill-opacity="1" stroke="#000000" stroke-opacity="1" stroke-width="3.2"/>
<circle clip-path="url(#clip502)" cx="2310.04" cy="497.239" r="14.4" fill="#009af9" fill-rule="evenodd" fill-opacity="1" stroke="#000000" stroke-opacity="1" stroke-width="3.2"/>
<circle clip-path="url(#clip502)" cx="2310.04" cy="490.123" r="14.4" fill="#009af9" fill-rule="evenodd" fill-opacity="1" stroke="#000000" stroke-opacity="1" stroke-width="3.2"/>
<circle clip-path="url(#clip502)" cx="2310.04" cy="483.034" r="14.4" fill="#009af9" fill-rule="evenodd" fill-opacity="1" stroke="#000000" stroke-opacity="1" stroke-width="3.2"/>
<circle clip-path="url(#clip502)" cx="2310.05" cy="475.974" r="14.4" fill="#009af9" fill-rule="evenodd" fill-opacity="1" stroke="#000000" stroke-opacity="1" stroke-width="3.2"/>
<circle clip-path="url(#clip502)" cx="2310.05" cy="468.942" r="14.4" fill="#009af9" fill-rule="evenodd" fill-opacity="1" stroke="#000000" stroke-opacity="1" stroke-width="3.2"/>
<circle clip-path="url(#clip502)" cx="2310.05" cy="461.937" r="14.4" fill="#009af9" fill-rule="evenodd" fill-opacity="1" stroke="#000000" stroke-opacity="1" stroke-width="3.2"/>
<circle clip-path="url(#clip502)" cx="2310.05" cy="454.959" r="14.4" fill="#009af9" fill-rule="evenodd" fill-opacity="1" stroke="#000000" stroke-opacity="1" stroke-width="3.2"/>
<circle clip-path="url(#clip502)" cx="2310.05" cy="448.009" r="14.4" fill="#009af9" fill-rule="evenodd" fill-opacity="1" stroke="#000000" stroke-opacity="1" stroke-width="3.2"/>
<circle clip-path="url(#clip502)" cx="2310.05" cy="441.085" r="14.4" fill="#009af9" fill-rule="evenodd" fill-opacity="1" stroke="#000000" stroke-opacity="1" stroke-width="3.2"/>
<circle clip-path="url(#clip502)" cx="2310.05" cy="434.189" r="14.4" fill="#009af9" fill-rule="evenodd" fill-opacity="1" stroke="#000000" stroke-opacity="1" stroke-width="3.2"/>
<circle clip-path="url(#clip502)" cx="2310.05" cy="427.319" r="14.4" fill="#009af9" fill-rule="evenodd" fill-opacity="1" stroke="#000000" stroke-opacity="1" stroke-width="3.2"/>
<circle clip-path="url(#clip502)" cx="2310.05" cy="420.475" r="14.4" fill="#009af9" fill-rule="evenodd" fill-opacity="1" stroke="#000000" stroke-opacity="1" stroke-width="3.2"/>
<circle clip-path="url(#clip502)" cx="2310.06" cy="413.657" r="14.4" fill="#009af9" fill-rule="evenodd" fill-opacity="1" stroke="#000000" stroke-opacity="1" stroke-width="3.2"/>
<circle clip-path="url(#clip502)" cx="2310.06" cy="406.865" r="14.4" fill="#009af9" fill-rule="evenodd" fill-opacity="1" stroke="#000000" stroke-opacity="1" stroke-width="3.2"/>
<circle clip-path="url(#clip502)" cx="2310.06" cy="400.099" r="14.4" fill="#009af9" fill-rule="evenodd" fill-opacity="1" stroke="#000000" stroke-opacity="1" stroke-width="3.2"/>
<circle clip-path="url(#clip502)" cx="2310.06" cy="393.358" r="14.4" fill="#009af9" fill-rule="evenodd" fill-opacity="1" stroke="#000000" stroke-opacity="1" stroke-width="3.2"/>
<circle clip-path="url(#clip502)" cx="2310.06" cy="386.643" r="14.4" fill="#009af9" fill-rule="evenodd" fill-opacity="1" stroke="#000000" stroke-opacity="1" stroke-width="3.2"/>
<circle clip-path="url(#clip502)" cx="2310.06" cy="379.952" r="14.4" fill="#009af9" fill-rule="evenodd" fill-opacity="1" stroke="#000000" stroke-opacity="1" stroke-width="3.2"/>
<circle clip-path="url(#clip502)" cx="2310.06" cy="373.287" r="14.4" fill="#009af9" fill-rule="evenodd" fill-opacity="1" stroke="#000000" stroke-opacity="1" stroke-width="3.2"/>
<circle clip-path="url(#clip502)" cx="2310.06" cy="366.646" r="14.4" fill="#009af9" fill-rule="evenodd" fill-opacity="1" stroke="#000000" stroke-opacity="1" stroke-width="3.2"/>
<circle clip-path="url(#clip502)" cx="2310.06" cy="360.03" r="14.4" fill="#009af9" fill-rule="evenodd" fill-opacity="1" stroke="#000000" stroke-opacity="1" stroke-width="3.2"/>
<circle clip-path="url(#clip502)" cx="2310.06" cy="353.438" r="14.4" fill="#009af9" fill-rule="evenodd" fill-opacity="1" stroke="#000000" stroke-opacity="1" stroke-width="3.2"/>
<circle clip-path="url(#clip502)" cx="2310.06" cy="346.871" r="14.4" fill="#009af9" fill-rule="evenodd" fill-opacity="1" stroke="#000000" stroke-opacity="1" stroke-width="3.2"/>
<circle clip-path="url(#clip502)" cx="2310.06" cy="340.327" r="14.4" fill="#009af9" fill-rule="evenodd" fill-opacity="1" stroke="#000000" stroke-opacity="1" stroke-width="3.2"/>
<circle clip-path="url(#clip502)" cx="2310.06" cy="333.808" r="14.4" fill="#009af9" fill-rule="evenodd" fill-opacity="1" stroke="#000000" stroke-opacity="1" stroke-width="3.2"/>
<circle clip-path="url(#clip502)" cx="2310.06" cy="327.311" r="14.4" fill="#009af9" fill-rule="evenodd" fill-opacity="1" stroke="#000000" stroke-opacity="1" stroke-width="3.2"/>
<circle clip-path="url(#clip502)" cx="2310.06" cy="320.839" r="14.4" fill="#009af9" fill-rule="evenodd" fill-opacity="1" stroke="#000000" stroke-opacity="1" stroke-width="3.2"/>
<circle clip-path="url(#clip502)" cx="2310.06" cy="314.389" r="14.4" fill="#009af9" fill-rule="evenodd" fill-opacity="1" stroke="#000000" stroke-opacity="1" stroke-width="3.2"/>
<circle clip-path="url(#clip502)" cx="2310.06" cy="307.963" r="14.4" fill="#009af9" fill-rule="evenodd" fill-opacity="1" stroke="#000000" stroke-opacity="1" stroke-width="3.2"/>
<circle clip-path="url(#clip502)" cx="2310.06" cy="301.56" r="14.4" fill="#009af9" fill-rule="evenodd" fill-opacity="1" stroke="#000000" stroke-opacity="1" stroke-width="3.2"/>
<circle clip-path="url(#clip502)" cx="2310.06" cy="295.179" r="14.4" fill="#009af9" fill-rule="evenodd" fill-opacity="1" stroke="#000000" stroke-opacity="1" stroke-width="3.2"/>
<circle clip-path="url(#clip502)" cx="2310.06" cy="288.821" r="14.4" fill="#009af9" fill-rule="evenodd" fill-opacity="1" stroke="#000000" stroke-opacity="1" stroke-width="3.2"/>
<circle clip-path="url(#clip502)" cx="2310.06" cy="282.486" r="14.4" fill="#009af9" fill-rule="evenodd" fill-opacity="1" stroke="#000000" stroke-opacity="1" stroke-width="3.2"/>
<circle clip-path="url(#clip502)" cx="2310.06" cy="276.173" r="14.4" fill="#009af9" fill-rule="evenodd" fill-opacity="1" stroke="#000000" stroke-opacity="1" stroke-width="3.2"/>
<circle clip-path="url(#clip502)" cx="2310.06" cy="269.882" r="14.4" fill="#009af9" fill-rule="evenodd" fill-opacity="1" stroke="#000000" stroke-opacity="1" stroke-width="3.2"/>
<circle clip-path="url(#clip502)" cx="2310.06" cy="263.613" r="14.4" fill="#009af9" fill-rule="evenodd" fill-opacity="1" stroke="#000000" stroke-opacity="1" stroke-width="3.2"/>
<circle clip-path="url(#clip502)" cx="2310.06" cy="257.365" r="14.4" fill="#009af9" fill-rule="evenodd" fill-opacity="1" stroke="#000000" stroke-opacity="1" stroke-width="3.2"/>
<circle clip-path="url(#clip502)" cx="2310.06" cy="251.14" r="14.4" fill="#009af9" fill-rule="evenodd" fill-opacity="1" stroke="#000000" stroke-opacity="1" stroke-width="3.2"/>
<circle clip-path="url(#clip502)" cx="2310.06" cy="244.936" r="14.4" fill="#009af9" fill-rule="evenodd" fill-opacity="1" stroke="#000000" stroke-opacity="1" stroke-width="3.2"/>
<circle clip-path="url(#clip502)" cx="2310.06" cy="238.753" r="14.4" fill="#009af9" fill-rule="evenodd" fill-opacity="1" stroke="#000000" stroke-opacity="1" stroke-width="3.2"/>
<circle clip-path="url(#clip502)" cx="2310.06" cy="232.592" r="14.4" fill="#009af9" fill-rule="evenodd" fill-opacity="1" stroke="#000000" stroke-opacity="1" stroke-width="3.2"/>
<circle clip-path="url(#clip502)" cx="2310.06" cy="226.451" r="14.4" fill="#009af9" fill-rule="evenodd" fill-opacity="1" stroke="#000000" stroke-opacity="1" stroke-width="3.2"/>
<circle clip-path="url(#clip502)" cx="2310.06" cy="220.332" r="14.4" fill="#009af9" fill-rule="evenodd" fill-opacity="1" stroke="#000000" stroke-opacity="1" stroke-width="3.2"/>
<circle clip-path="url(#clip502)" cx="2310.06" cy="214.233" r="14.4" fill="#009af9" fill-rule="evenodd" fill-opacity="1" stroke="#000000" stroke-opacity="1" stroke-width="3.2"/>
<circle clip-path="url(#clip502)" cx="2310.06" cy="208.155" r="14.4" fill="#009af9" fill-rule="evenodd" fill-opacity="1" stroke="#000000" stroke-opacity="1" stroke-width="3.2"/>
<circle clip-path="url(#clip502)" cx="2310.06" cy="202.097" r="14.4" fill="#009af9" fill-rule="evenodd" fill-opacity="1" stroke="#000000" stroke-opacity="1" stroke-width="3.2"/>
<circle clip-path="url(#clip502)" cx="2310.06" cy="196.06" r="14.4" fill="#009af9" fill-rule="evenodd" fill-opacity="1" stroke="#000000" stroke-opacity="1" stroke-width="3.2"/>
<circle clip-path="url(#clip502)" cx="2310.06" cy="190.043" r="14.4" fill="#009af9" fill-rule="evenodd" fill-opacity="1" stroke="#000000" stroke-opacity="1" stroke-width="3.2"/>
<circle clip-path="url(#clip502)" cx="2310.06" cy="184.046" r="14.4" fill="#009af9" fill-rule="evenodd" fill-opacity="1" stroke="#000000" stroke-opacity="1" stroke-width="3.2"/>
<circle clip-path="url(#clip502)" cx="2310.06" cy="178.069" r="14.4" fill="#009af9" fill-rule="evenodd" fill-opacity="1" stroke="#000000" stroke-opacity="1" stroke-width="3.2"/>
<circle clip-path="url(#clip502)" cx="2310.06" cy="172.112" r="14.4" fill="#009af9" fill-rule="evenodd" fill-opacity="1" stroke="#000000" stroke-opacity="1" stroke-width="3.2"/>
<circle clip-path="url(#clip502)" cx="2310.06" cy="166.174" r="14.4" fill="#009af9" fill-rule="evenodd" fill-opacity="1" stroke="#000000" stroke-opacity="1" stroke-width="3.2"/>
<circle clip-path="url(#clip502)" cx="2310.06" cy="160.256" r="14.4" fill="#009af9" fill-rule="evenodd" fill-opacity="1" stroke="#000000" stroke-opacity="1" stroke-width="3.2"/>
<path clip-path="url(#clip500)" d="M248.022 270.476 L518.184 270.476 L518.184 166.796 L248.022 166.796  Z" fill="#ffffff" fill-rule="evenodd" fill-opacity="1"/>
<polyline clip-path="url(#clip500)" style="stroke:#000000; stroke-linecap:round; stroke-linejoin:round; stroke-width:4; stroke-opacity:1; fill:none" points="248.022,270.476 518.184,270.476 518.184,166.796 248.022,166.796 248.022,270.476 "/>
<polyline clip-path="url(#clip500)" style="stroke:#009af9; stroke-linecap:round; stroke-linejoin:round; stroke-width:4; stroke-opacity:1; fill:none" points="272.215,218.636 417.369,218.636 "/>
<circle clip-path="url(#clip500)" cx="344.792" cy="218.636" r="20.1603" fill="#009af9" fill-rule="evenodd" fill-opacity="1" stroke="#000000" stroke-opacity="1" stroke-width="4.55111"/>
<path clip-path="url(#clip500)" d="M455.403 238.323 Q453.598 242.953 451.885 244.365 Q450.172 245.777 447.302 245.777 L443.899 245.777 L443.899 242.212 L446.399 242.212 Q448.158 242.212 449.13 241.379 Q450.103 240.545 451.283 237.443 L452.047 235.499 L441.561 209.99 L446.075 209.99 L454.177 230.268 L462.278 209.99 L466.792 209.99 L455.403 238.323 Z" fill="#000000" fill-rule="nonzero" fill-opacity="1" /><path clip-path="url(#clip500)" d="M474.084 231.981 L481.723 231.981 L481.723 205.615 L473.413 207.282 L473.413 203.022 L481.676 201.356 L486.352 201.356 L486.352 231.981 L493.991 231.981 L493.991 235.916 L474.084 235.916 L474.084 231.981 Z" fill="#000000" fill-rule="nonzero" fill-opacity="1" /></svg>
