<?xml version="1.0" encoding="utf-8"?>
<svg xmlns="http://www.w3.org/2000/svg" xmlns:xlink="http://www.w3.org/1999/xlink" width="600" height="400" viewBox="0 0 2400 1600">
<defs>
  <clipPath id="clip770">
    <rect x="0" y="0" width="2400" height="1600"/>
  </clipPath>
</defs>
<path clip-path="url(#clip770)" d="M0 1600 L2400 1600 L2400 0 L0 0  Z" fill="#ffffff" fill-rule="evenodd" fill-opacity="1"/>
<defs>
  <clipPath id="clip771">
    <rect x="480" y="0" width="1681" height="1600"/>
  </clipPath>
</defs>
<defs>
  <clipPath id="clip772">
    <rect x="141" y="47" width="2212" height="1440"/>
  </clipPath>
</defs>
<path clip-path="url(#clip772)" d="M1234.42 772.798 L1234.42 755.865 L1247.7 747.398 L1270.71 752.286 L1270.71 769.22 L1257.43 777.686 L1234.42 772.798  Z" fill="#ffffff" fill-rule="evenodd" fill-opacity="1"/>
<polyline clip-path="url(#clip772)" style="stroke:#000000; stroke-linecap:round; stroke-linejoin:round; stroke-width:2; stroke-opacity:0.1; fill:none" points="696.177,1207.42 1111.64,847.617 1111.64,128.015 "/>
<polyline clip-path="url(#clip772)" style="stroke:#000000; stroke-linecap:round; stroke-linejoin:round; stroke-width:2; stroke-opacity:0.1; fill:none" points="811.213,1240.63 1226.68,880.825 1226.68,161.223 "/>
<polyline clip-path="url(#clip772)" style="stroke:#000000; stroke-linecap:round; stroke-linejoin:round; stroke-width:2; stroke-opacity:0.1; fill:none" points="926.249,1273.83 1341.71,914.033 1341.71,194.431 "/>
<polyline clip-path="url(#clip772)" style="stroke:#000000; stroke-linecap:round; stroke-linejoin:round; stroke-width:2; stroke-opacity:0.1; fill:none" points="1041.29,1307.04 1456.75,947.241 1456.75,227.639 "/>
<polyline clip-path="url(#clip772)" style="stroke:#000000; stroke-linecap:round; stroke-linejoin:round; stroke-width:2; stroke-opacity:0.1; fill:none" points="1156.32,1340.25 1571.78,980.449 1571.78,260.847 "/>
<polyline clip-path="url(#clip772)" style="stroke:#000000; stroke-linecap:round; stroke-linejoin:round; stroke-width:2; stroke-opacity:0.1; fill:none" points="1271.36,1373.46 1686.82,1013.66 1686.82,294.055 "/>
<polyline clip-path="url(#clip772)" style="stroke:#000000; stroke-linecap:round; stroke-linejoin:round; stroke-width:2; stroke-opacity:0.1; fill:none" points="1386.39,1406.67 1801.86,1046.86 1801.86,327.263 "/>
<polyline clip-path="url(#clip770)" style="stroke:#000000; stroke-linecap:round; stroke-linejoin:round; stroke-width:4; stroke-opacity:1; fill:none" points="679.772,1202.68 1399.37,1410.41 "/>
<polyline clip-path="url(#clip770)" style="stroke:#000000; stroke-linecap:round; stroke-linejoin:round; stroke-width:4; stroke-opacity:1; fill:none" points="696.177,1207.42 701.163,1203.1 "/>
<polyline clip-path="url(#clip770)" style="stroke:#000000; stroke-linecap:round; stroke-linejoin:round; stroke-width:4; stroke-opacity:1; fill:none" points="811.213,1240.63 816.199,1236.31 "/>
<polyline clip-path="url(#clip770)" style="stroke:#000000; stroke-linecap:round; stroke-linejoin:round; stroke-width:4; stroke-opacity:1; fill:none" points="926.249,1273.83 931.235,1269.52 "/>
<polyline clip-path="url(#clip770)" style="stroke:#000000; stroke-linecap:round; stroke-linejoin:round; stroke-width:4; stroke-opacity:1; fill:none" points="1041.29,1307.04 1046.27,1302.72 "/>
<polyline clip-path="url(#clip770)" style="stroke:#000000; stroke-linecap:round; stroke-linejoin:round; stroke-width:4; stroke-opacity:1; fill:none" points="1156.32,1340.25 1161.31,1335.93 "/>
<polyline clip-path="url(#clip770)" style="stroke:#000000; stroke-linecap:round; stroke-linejoin:round; stroke-width:4; stroke-opacity:1; fill:none" points="1271.36,1373.46 1276.34,1369.14 "/>
<polyline clip-path="url(#clip770)" style="stroke:#000000; stroke-linecap:round; stroke-linejoin:round; stroke-width:4; stroke-opacity:1; fill:none" points="1386.39,1406.67 1391.38,1402.35 "/>
<path clip-path="url(#clip770)" d="M598.317 1236.04 L627.993 1236.04 L627.993 1239.98 L598.317 1239.98 L598.317 1236.04 Z" fill="#000000" fill-rule="nonzero" fill-opacity="1" /><path clip-path="url(#clip770)" d="M652.252 1234.23 Q655.609 1234.95 657.484 1237.22 Q659.382 1239.49 659.382 1242.82 Q659.382 1247.94 655.863 1250.74 Q652.345 1253.54 645.863 1253.54 Q643.687 1253.54 641.373 1253.1 Q639.081 1252.68 636.627 1251.83 L636.627 1247.31 Q638.572 1248.45 640.886 1249.03 Q643.201 1249.6 645.724 1249.6 Q650.123 1249.6 652.414 1247.87 Q654.729 1246.13 654.729 1242.82 Q654.729 1239.77 652.576 1238.05 Q650.447 1236.32 646.627 1236.32 L642.599 1236.32 L642.599 1232.48 L646.812 1232.48 Q650.261 1232.48 652.09 1231.11 Q653.919 1229.72 653.919 1227.13 Q653.919 1224.47 652.021 1223.05 Q650.146 1221.62 646.627 1221.62 Q644.706 1221.62 642.507 1222.04 Q640.308 1222.45 637.669 1223.33 L637.669 1219.17 Q640.331 1218.42 642.646 1218.05 Q644.984 1217.68 647.044 1217.68 Q652.368 1217.68 655.47 1220.11 Q658.572 1222.52 658.572 1226.64 Q658.572 1229.51 656.928 1231.5 Q655.285 1233.47 652.252 1234.23 Z" fill="#000000" fill-rule="nonzero" fill-opacity="1" /><path clip-path="url(#clip770)" d="M678.247 1221.39 Q674.636 1221.39 672.808 1224.95 Q671.002 1228.49 671.002 1235.62 Q671.002 1242.73 672.808 1246.29 Q674.636 1249.84 678.247 1249.84 Q681.882 1249.84 683.687 1246.29 Q685.516 1242.73 685.516 1235.62 Q685.516 1228.49 683.687 1224.95 Q681.882 1221.39 678.247 1221.39 M678.247 1217.68 Q684.058 1217.68 687.113 1222.29 Q690.192 1226.87 690.192 1235.62 Q690.192 1244.35 687.113 1248.96 Q684.058 1253.54 678.247 1253.54 Q672.437 1253.54 669.359 1248.96 Q666.303 1244.35 666.303 1235.62 Q666.303 1226.87 669.359 1222.29 Q672.437 1217.68 678.247 1217.68 Z" fill="#000000" fill-rule="nonzero" fill-opacity="1" /><path clip-path="url(#clip770)" d="M713.353 1269.25 L743.029 1269.25 L743.029 1273.18 L713.353 1273.18 L713.353 1269.25 Z" fill="#000000" fill-rule="nonzero" fill-opacity="1" /><path clip-path="url(#clip770)" d="M757.149 1282.14 L773.469 1282.14 L773.469 1286.08 L751.524 1286.08 L751.524 1282.14 Q754.186 1279.39 758.77 1274.76 Q763.376 1270.1 764.557 1268.76 Q766.802 1266.24 767.682 1264.5 Q768.584 1262.74 768.584 1261.05 Q768.584 1258.3 766.64 1256.56 Q764.719 1254.83 761.617 1254.83 Q759.418 1254.83 756.964 1255.59 Q754.534 1256.35 751.756 1257.91 L751.756 1253.18 Q754.58 1252.05 757.034 1251.47 Q759.487 1250.89 761.524 1250.89 Q766.895 1250.89 770.089 1253.58 Q773.283 1256.26 773.283 1260.75 Q773.283 1262.88 772.473 1264.8 Q771.686 1266.7 769.58 1269.29 Q769.001 1269.97 765.899 1273.18 Q762.797 1276.38 757.149 1282.14 Z" fill="#000000" fill-rule="nonzero" fill-opacity="1" /><path clip-path="url(#clip770)" d="M793.283 1254.6 Q789.672 1254.6 787.844 1258.16 Q786.038 1261.7 786.038 1268.83 Q786.038 1275.94 787.844 1279.5 Q789.672 1283.04 793.283 1283.04 Q796.918 1283.04 798.723 1279.5 Q800.552 1275.94 800.552 1268.83 Q800.552 1261.7 798.723 1258.16 Q796.918 1254.6 793.283 1254.6 M793.283 1250.89 Q799.094 1250.89 802.149 1255.5 Q805.228 1260.08 805.228 1268.83 Q805.228 1277.56 802.149 1282.16 Q799.094 1286.75 793.283 1286.75 Q787.473 1286.75 784.395 1282.16 Q781.339 1277.56 781.339 1268.83 Q781.339 1260.08 784.395 1255.5 Q787.473 1250.89 793.283 1250.89 Z" fill="#000000" fill-rule="nonzero" fill-opacity="1" /><path clip-path="url(#clip770)" d="M828.389 1302.46 L858.065 1302.46 L858.065 1306.39 L828.389 1306.39 L828.389 1302.46 Z" fill="#000000" fill-rule="nonzero" fill-opacity="1" /><path clip-path="url(#clip770)" d="M868.968 1315.35 L876.607 1315.35 L876.607 1288.98 L868.296 1290.65 L868.296 1286.39 L876.56 1284.72 L881.236 1284.72 L881.236 1315.35 L888.875 1315.35 L888.875 1319.28 L868.968 1319.28 L868.968 1315.35 Z" fill="#000000" fill-rule="nonzero" fill-opacity="1" /><path clip-path="url(#clip770)" d="M908.319 1287.8 Q904.708 1287.8 902.88 1291.37 Q901.074 1294.91 901.074 1302.04 Q901.074 1309.15 902.88 1312.71 Q904.708 1316.25 908.319 1316.25 Q911.954 1316.25 913.759 1312.71 Q915.588 1309.15 915.588 1302.04 Q915.588 1294.91 913.759 1291.37 Q911.954 1287.8 908.319 1287.8 M908.319 1284.1 Q914.129 1284.1 917.185 1288.71 Q920.264 1293.29 920.264 1302.04 Q920.264 1310.77 917.185 1315.37 Q914.129 1319.96 908.319 1319.96 Q902.509 1319.96 899.43 1315.37 Q896.375 1310.77 896.375 1302.04 Q896.375 1293.29 899.43 1288.71 Q902.509 1284.1 908.319 1284.1 Z" fill="#000000" fill-rule="nonzero" fill-opacity="1" /><path clip-path="url(#clip770)" d="M1023.36 1321.01 Q1019.74 1321.01 1017.92 1324.58 Q1016.11 1328.12 1016.11 1335.25 Q1016.11 1342.35 1017.92 1345.92 Q1019.74 1349.46 1023.36 1349.46 Q1026.99 1349.46 1028.8 1345.92 Q1030.62 1342.35 1030.62 1335.25 Q1030.62 1328.12 1028.8 1324.58 Q1026.99 1321.01 1023.36 1321.01 M1023.36 1317.31 Q1029.17 1317.31 1032.22 1321.91 Q1035.3 1326.5 1035.3 1335.25 Q1035.3 1343.97 1032.22 1348.58 Q1029.17 1353.16 1023.36 1353.16 Q1017.55 1353.16 1014.47 1348.58 Q1011.41 1343.97 1011.41 1335.25 Q1011.41 1326.5 1014.47 1321.91 Q1017.55 1317.31 1023.36 1317.31 Z" fill="#000000" fill-rule="nonzero" fill-opacity="1" /><path clip-path="url(#clip770)" d="M1099.04 1381.77 L1106.68 1381.77 L1106.68 1355.4 L1098.37 1357.07 L1098.37 1352.81 L1106.63 1351.14 L1111.31 1351.14 L1111.31 1381.77 L1118.95 1381.77 L1118.95 1385.7 L1099.04 1385.7 L1099.04 1381.77 Z" fill="#000000" fill-rule="nonzero" fill-opacity="1" /><path clip-path="url(#clip770)" d="M1138.39 1354.22 Q1134.78 1354.22 1132.95 1357.78 Q1131.15 1361.33 1131.15 1368.46 Q1131.15 1375.56 1132.95 1379.13 Q1134.78 1382.67 1138.39 1382.67 Q1142.03 1382.67 1143.83 1379.13 Q1145.66 1375.56 1145.66 1368.46 Q1145.66 1361.33 1143.83 1357.78 Q1142.03 1354.22 1138.39 1354.22 M1138.39 1350.52 Q1144.2 1350.52 1147.26 1355.12 Q1150.34 1359.71 1150.34 1368.46 Q1150.34 1377.18 1147.26 1381.79 Q1144.2 1386.37 1138.39 1386.37 Q1132.58 1386.37 1129.5 1381.79 Q1126.45 1377.18 1126.45 1368.46 Q1126.45 1359.71 1129.5 1355.12 Q1132.58 1350.52 1138.39 1350.52 Z" fill="#000000" fill-rule="nonzero" fill-opacity="1" /><path clip-path="url(#clip770)" d="M1217.29 1414.97 L1233.61 1414.97 L1233.61 1418.91 L1211.67 1418.91 L1211.67 1414.97 Q1214.33 1412.22 1218.91 1407.59 Q1223.52 1402.94 1224.7 1401.59 Q1226.95 1399.07 1227.83 1397.33 Q1228.73 1395.58 1228.73 1393.89 Q1228.73 1391.13 1226.78 1389.4 Q1224.86 1387.66 1221.76 1387.66 Q1219.56 1387.66 1217.11 1388.42 Q1214.68 1389.19 1211.9 1390.74 L1211.9 1386.02 Q1214.72 1384.88 1217.18 1384.3 Q1219.63 1383.72 1221.67 1383.72 Q1227.04 1383.72 1230.23 1386.41 Q1233.43 1389.09 1233.43 1393.58 Q1233.43 1395.71 1232.62 1397.64 Q1231.83 1399.53 1229.72 1402.13 Q1229.14 1402.8 1226.04 1406.02 Q1222.94 1409.21 1217.29 1414.97 Z" fill="#000000" fill-rule="nonzero" fill-opacity="1" /><path clip-path="url(#clip770)" d="M1253.43 1387.43 Q1249.82 1387.43 1247.99 1390.99 Q1246.18 1394.53 1246.18 1401.66 Q1246.18 1408.77 1247.99 1412.33 Q1249.82 1415.88 1253.43 1415.88 Q1257.06 1415.88 1258.87 1412.33 Q1260.7 1408.77 1260.7 1401.66 Q1260.7 1394.53 1258.87 1390.99 Q1257.06 1387.43 1253.43 1387.43 M1253.43 1383.72 Q1259.24 1383.72 1262.29 1388.33 Q1265.37 1392.91 1265.37 1401.66 Q1265.37 1410.39 1262.29 1415 Q1259.24 1419.58 1253.43 1419.58 Q1247.62 1419.58 1244.54 1415 Q1241.48 1410.39 1241.48 1401.66 Q1241.48 1392.91 1244.54 1388.33 Q1247.62 1383.72 1253.43 1383.72 Z" fill="#000000" fill-rule="nonzero" fill-opacity="1" /><path clip-path="url(#clip770)" d="M1342.47 1433.48 Q1345.82 1434.2 1347.7 1436.47 Q1349.6 1438.74 1349.6 1442.07 Q1349.6 1447.19 1346.08 1449.99 Q1342.56 1452.79 1336.08 1452.79 Q1333.9 1452.79 1331.59 1452.35 Q1329.3 1451.93 1326.84 1451.08 L1326.84 1446.56 Q1328.79 1447.7 1331.1 1448.27 Q1333.42 1448.85 1335.94 1448.85 Q1340.34 1448.85 1342.63 1447.12 Q1344.94 1445.38 1344.94 1442.07 Q1344.94 1439.02 1342.79 1437.3 Q1340.66 1435.57 1336.84 1435.57 L1332.82 1435.57 L1332.82 1431.72 L1337.03 1431.72 Q1340.48 1431.72 1342.31 1430.36 Q1344.13 1428.97 1344.13 1426.38 Q1344.13 1423.71 1342.24 1422.3 Q1340.36 1420.87 1336.84 1420.87 Q1334.92 1420.87 1332.72 1421.28 Q1330.52 1421.7 1327.88 1422.58 L1327.88 1418.41 Q1330.55 1417.67 1332.86 1417.3 Q1335.2 1416.93 1337.26 1416.93 Q1342.58 1416.93 1345.69 1419.36 Q1348.79 1421.77 1348.79 1425.89 Q1348.79 1428.76 1347.14 1430.75 Q1345.5 1432.72 1342.47 1433.48 Z" fill="#000000" fill-rule="nonzero" fill-opacity="1" /><path clip-path="url(#clip770)" d="M1368.46 1420.64 Q1364.85 1420.64 1363.02 1424.2 Q1361.22 1427.74 1361.22 1434.87 Q1361.22 1441.98 1363.02 1445.54 Q1364.85 1449.08 1368.46 1449.08 Q1372.1 1449.08 1373.9 1445.54 Q1375.73 1441.98 1375.73 1434.87 Q1375.73 1427.74 1373.9 1424.2 Q1372.1 1420.64 1368.46 1420.64 M1368.46 1416.93 Q1374.27 1416.93 1377.33 1421.54 Q1380.41 1426.12 1380.41 1434.87 Q1380.41 1443.6 1377.33 1448.2 Q1374.27 1452.79 1368.46 1452.79 Q1362.65 1452.79 1359.57 1448.2 Q1356.52 1443.6 1356.52 1434.87 Q1356.52 1426.12 1359.57 1421.54 Q1362.65 1416.93 1368.46 1416.93 Z" fill="#000000" fill-rule="nonzero" fill-opacity="1" /><polyline clip-path="url(#clip772)" style="stroke:#000000; stroke-linecap:round; stroke-linejoin:round; stroke-width:2; stroke-opacity:0.1; fill:none" points="1412.82,1398.77 693.217,1191.04 693.217,471.437 "/>
<polyline clip-path="url(#clip772)" style="stroke:#000000; stroke-linecap:round; stroke-linejoin:round; stroke-width:2; stroke-opacity:0.1; fill:none" points="1510.58,1314.1 790.981,1106.37 790.981,386.77 "/>
<polyline clip-path="url(#clip772)" style="stroke:#000000; stroke-linecap:round; stroke-linejoin:round; stroke-width:2; stroke-opacity:0.1; fill:none" points="1608.35,1229.44 888.746,1021.71 888.746,302.103 "/>
<polyline clip-path="url(#clip772)" style="stroke:#000000; stroke-linecap:round; stroke-linejoin:round; stroke-width:2; stroke-opacity:0.1; fill:none" points="1706.11,1144.77 986.51,937.039 986.51,217.437 "/>
<polyline clip-path="url(#clip772)" style="stroke:#000000; stroke-linecap:round; stroke-linejoin:round; stroke-width:2; stroke-opacity:0.1; fill:none" points="1803.88,1060.1 1084.28,852.372 1084.28,132.77 "/>
<polyline clip-path="url(#clip770)" style="stroke:#000000; stroke-linecap:round; stroke-linejoin:round; stroke-width:4; stroke-opacity:1; fill:none" points="1399.37,1410.41 1814.84,1050.61 "/>
<polyline clip-path="url(#clip770)" style="stroke:#000000; stroke-linecap:round; stroke-linejoin:round; stroke-width:4; stroke-opacity:1; fill:none" points="1412.82,1398.77 1404.18,1396.28 "/>
<polyline clip-path="url(#clip770)" style="stroke:#000000; stroke-linecap:round; stroke-linejoin:round; stroke-width:4; stroke-opacity:1; fill:none" points="1510.58,1314.1 1501.95,1311.61 "/>
<polyline clip-path="url(#clip770)" style="stroke:#000000; stroke-linecap:round; stroke-linejoin:round; stroke-width:4; stroke-opacity:1; fill:none" points="1608.35,1229.44 1599.71,1226.94 "/>
<polyline clip-path="url(#clip770)" style="stroke:#000000; stroke-linecap:round; stroke-linejoin:round; stroke-width:4; stroke-opacity:1; fill:none" points="1706.11,1144.77 1697.48,1142.28 "/>
<polyline clip-path="url(#clip770)" style="stroke:#000000; stroke-linecap:round; stroke-linejoin:round; stroke-width:4; stroke-opacity:1; fill:none" points="1803.88,1060.1 1795.24,1057.61 "/>
<path clip-path="url(#clip770)" d="M1428.3 1423.51 L1457.97 1423.51 L1457.97 1427.44 L1428.3 1427.44 L1428.3 1423.51 Z" fill="#000000" fill-rule="nonzero" fill-opacity="1" /><path clip-path="url(#clip770)" d="M1480.91 1409.85 L1469.11 1428.3 L1480.91 1428.3 L1480.91 1409.85 M1479.69 1405.78 L1485.57 1405.78 L1485.57 1428.3 L1490.5 1428.3 L1490.5 1432.19 L1485.57 1432.19 L1485.57 1440.34 L1480.91 1440.34 L1480.91 1432.19 L1465.31 1432.19 L1465.31 1427.67 L1479.69 1405.78 Z" fill="#000000" fill-rule="nonzero" fill-opacity="1" /><path clip-path="url(#clip770)" d="M1508.23 1408.85 Q1504.62 1408.85 1502.79 1412.42 Q1500.98 1415.96 1500.98 1423.09 Q1500.98 1430.2 1502.79 1433.76 Q1504.62 1437.3 1508.23 1437.3 Q1511.86 1437.3 1513.67 1433.76 Q1515.5 1430.2 1515.5 1423.09 Q1515.5 1415.96 1513.67 1412.42 Q1511.86 1408.85 1508.23 1408.85 M1508.23 1405.15 Q1514.04 1405.15 1517.09 1409.76 Q1520.17 1414.34 1520.17 1423.09 Q1520.17 1431.82 1517.09 1436.42 Q1514.04 1441.01 1508.23 1441.01 Q1502.42 1441.01 1499.34 1436.42 Q1496.28 1431.82 1496.28 1423.09 Q1496.28 1414.34 1499.34 1409.76 Q1502.42 1405.15 1508.23 1405.15 Z" fill="#000000" fill-rule="nonzero" fill-opacity="1" /><path clip-path="url(#clip770)" d="M1526.06 1338.84 L1555.74 1338.84 L1555.74 1342.78 L1526.06 1342.78 L1526.06 1338.84 Z" fill="#000000" fill-rule="nonzero" fill-opacity="1" /><path clip-path="url(#clip770)" d="M1569.86 1351.73 L1586.18 1351.73 L1586.18 1355.67 L1564.23 1355.67 L1564.23 1351.73 Q1566.9 1348.98 1571.48 1344.35 Q1576.09 1339.7 1577.27 1338.35 Q1579.51 1335.83 1580.39 1334.1 Q1581.29 1332.34 1581.29 1330.65 Q1581.29 1327.89 1579.35 1326.16 Q1577.43 1324.42 1574.33 1324.42 Q1572.13 1324.42 1569.67 1325.18 Q1567.24 1325.95 1564.47 1327.5 L1564.47 1322.78 Q1567.29 1321.64 1569.74 1321.06 Q1572.2 1320.48 1574.23 1320.48 Q1579.6 1320.48 1582.8 1323.17 Q1585.99 1325.85 1585.99 1330.35 Q1585.99 1332.47 1585.18 1334.4 Q1584.4 1336.29 1582.29 1338.89 Q1581.71 1339.56 1578.61 1342.78 Q1575.51 1345.97 1569.86 1351.73 Z" fill="#000000" fill-rule="nonzero" fill-opacity="1" /><path clip-path="url(#clip770)" d="M1605.99 1324.19 Q1602.38 1324.19 1600.55 1327.75 Q1598.75 1331.29 1598.75 1338.42 Q1598.75 1345.53 1600.55 1349.1 Q1602.38 1352.64 1605.99 1352.64 Q1609.63 1352.64 1611.43 1349.1 Q1613.26 1345.53 1613.26 1338.42 Q1613.26 1331.29 1611.43 1327.75 Q1609.63 1324.19 1605.99 1324.19 M1605.99 1320.48 Q1611.8 1320.48 1614.86 1325.09 Q1617.94 1329.67 1617.94 1338.42 Q1617.94 1347.15 1614.86 1351.76 Q1611.8 1356.34 1605.99 1356.34 Q1600.18 1356.34 1597.1 1351.76 Q1594.05 1347.15 1594.05 1338.42 Q1594.05 1329.67 1597.1 1325.09 Q1600.18 1320.48 1605.99 1320.48 Z" fill="#000000" fill-rule="nonzero" fill-opacity="1" /><path clip-path="url(#clip770)" d="M1635.77 1239.52 Q1632.16 1239.52 1630.33 1243.09 Q1628.53 1246.63 1628.53 1253.76 Q1628.53 1260.86 1630.33 1264.43 Q1632.16 1267.97 1635.77 1267.97 Q1639.41 1267.97 1641.21 1264.43 Q1643.04 1260.86 1643.04 1253.76 Q1643.04 1246.63 1641.21 1243.09 Q1639.41 1239.52 1635.77 1239.52 M1635.77 1235.82 Q1641.58 1235.82 1644.64 1240.42 Q1647.72 1245.01 1647.72 1253.76 Q1647.72 1262.48 1644.64 1267.09 Q1641.58 1271.67 1635.77 1271.67 Q1629.96 1271.67 1626.88 1267.09 Q1623.83 1262.48 1623.83 1253.76 Q1623.83 1245.01 1626.88 1240.42 Q1629.96 1235.82 1635.77 1235.82 Z" fill="#000000" fill-rule="nonzero" fill-opacity="1" /><path clip-path="url(#clip770)" d="M1727.22 1182.4 L1743.54 1182.4 L1743.54 1186.34 L1721.59 1186.34 L1721.59 1182.4 Q1724.25 1179.65 1728.84 1175.02 Q1733.44 1170.36 1734.62 1169.02 Q1736.87 1166.5 1737.75 1164.76 Q1738.65 1163 1738.65 1161.31 Q1738.65 1158.56 1736.71 1156.82 Q1734.79 1155.09 1731.68 1155.09 Q1729.49 1155.09 1727.03 1155.85 Q1724.6 1156.61 1721.82 1158.16 L1721.82 1153.44 Q1724.65 1152.31 1727.1 1151.73 Q1729.56 1151.15 1731.59 1151.15 Q1736.96 1151.15 1740.16 1153.84 Q1743.35 1156.52 1743.35 1161.01 Q1743.35 1163.14 1742.54 1165.06 Q1741.75 1166.96 1739.65 1169.55 Q1739.07 1170.23 1735.97 1173.44 Q1732.87 1176.64 1727.22 1182.4 Z" fill="#000000" fill-rule="nonzero" fill-opacity="1" /><path clip-path="url(#clip770)" d="M1763.35 1154.85 Q1759.74 1154.85 1757.91 1158.42 Q1756.11 1161.96 1756.11 1169.09 Q1756.11 1176.2 1757.91 1179.76 Q1759.74 1183.3 1763.35 1183.3 Q1766.99 1183.3 1768.79 1179.76 Q1770.62 1176.2 1770.62 1169.09 Q1770.62 1161.96 1768.79 1158.42 Q1766.99 1154.85 1763.35 1154.85 M1763.35 1151.15 Q1769.16 1151.15 1772.22 1155.76 Q1775.3 1160.34 1775.3 1169.09 Q1775.3 1177.82 1772.22 1182.42 Q1769.16 1187.01 1763.35 1187.01 Q1757.54 1187.01 1754.46 1182.42 Q1751.41 1177.82 1751.41 1169.09 Q1751.41 1160.34 1754.46 1155.76 Q1757.54 1151.15 1763.35 1151.15 Z" fill="#000000" fill-rule="nonzero" fill-opacity="1" /><path clip-path="url(#clip770)" d="M1834.96 1071.18 L1823.15 1089.63 L1834.96 1089.63 L1834.96 1071.18 M1833.73 1067.11 L1839.61 1067.11 L1839.61 1089.63 L1844.54 1089.63 L1844.54 1093.52 L1839.61 1093.52 L1839.61 1101.67 L1834.96 1101.67 L1834.96 1093.52 L1819.36 1093.52 L1819.36 1089.01 L1833.73 1067.11 Z" fill="#000000" fill-rule="nonzero" fill-opacity="1" /><path clip-path="url(#clip770)" d="M1862.27 1070.19 Q1858.66 1070.19 1856.83 1073.75 Q1855.03 1077.29 1855.03 1084.42 Q1855.03 1091.53 1856.83 1095.1 Q1858.66 1098.64 1862.27 1098.64 Q1865.91 1098.64 1867.71 1095.1 Q1869.54 1091.53 1869.54 1084.42 Q1869.54 1077.29 1867.71 1073.75 Q1865.91 1070.19 1862.27 1070.19 M1862.27 1066.48 Q1868.08 1066.48 1871.14 1071.09 Q1874.22 1075.67 1874.22 1084.42 Q1874.22 1093.15 1871.14 1097.76 Q1868.08 1102.34 1862.27 1102.34 Q1856.46 1102.34 1853.38 1097.76 Q1850.33 1093.15 1850.33 1084.42 Q1850.33 1075.67 1853.38 1071.09 Q1856.46 1066.48 1862.27 1066.48 Z" fill="#000000" fill-rule="nonzero" fill-opacity="1" /><polyline clip-path="url(#clip772)" style="stroke:#000000; stroke-linecap:round; stroke-linejoin:round; stroke-width:2; stroke-opacity:0.1; fill:none" points="679.772,1173.24 1095.23,813.442 1814.84,1021.17 "/>
<polyline clip-path="url(#clip772)" style="stroke:#000000; stroke-linecap:round; stroke-linejoin:round; stroke-width:2; stroke-opacity:0.1; fill:none" points="679.772,1070.67 1095.23,710.867 1814.84,918.598 "/>
<polyline clip-path="url(#clip772)" style="stroke:#000000; stroke-linecap:round; stroke-linejoin:round; stroke-width:2; stroke-opacity:0.1; fill:none" points="679.772,968.093 1095.23,608.292 1814.84,816.023 "/>
<polyline clip-path="url(#clip772)" style="stroke:#000000; stroke-linecap:round; stroke-linejoin:round; stroke-width:2; stroke-opacity:0.1; fill:none" points="679.772,865.517 1095.23,505.716 1814.84,713.447 "/>
<polyline clip-path="url(#clip772)" style="stroke:#000000; stroke-linecap:round; stroke-linejoin:round; stroke-width:2; stroke-opacity:0.1; fill:none" points="679.772,762.942 1095.23,403.141 1814.84,610.872 "/>
<polyline clip-path="url(#clip772)" style="stroke:#000000; stroke-linecap:round; stroke-linejoin:round; stroke-width:2; stroke-opacity:0.1; fill:none" points="679.772,660.367 1095.23,300.566 1814.84,508.297 "/>
<polyline clip-path="url(#clip772)" style="stroke:#000000; stroke-linecap:round; stroke-linejoin:round; stroke-width:2; stroke-opacity:0.1; fill:none" points="679.772,557.791 1095.23,197.99 1814.84,405.721 "/>
<polyline clip-path="url(#clip770)" style="stroke:#000000; stroke-linecap:round; stroke-linejoin:round; stroke-width:4; stroke-opacity:1; fill:none" points="679.772,1202.68 679.772,483.08 "/>
<polyline clip-path="url(#clip770)" style="stroke:#000000; stroke-linecap:round; stroke-linejoin:round; stroke-width:4; stroke-opacity:1; fill:none" points="679.772,1173.24 684.758,1168.93 "/>
<polyline clip-path="url(#clip770)" style="stroke:#000000; stroke-linecap:round; stroke-linejoin:round; stroke-width:4; stroke-opacity:1; fill:none" points="679.772,1070.67 684.758,1066.35 "/>
<polyline clip-path="url(#clip770)" style="stroke:#000000; stroke-linecap:round; stroke-linejoin:round; stroke-width:4; stroke-opacity:1; fill:none" points="679.772,968.093 684.758,963.775 "/>
<polyline clip-path="url(#clip770)" style="stroke:#000000; stroke-linecap:round; stroke-linejoin:round; stroke-width:4; stroke-opacity:1; fill:none" points="679.772,865.517 684.758,861.2 "/>
<polyline clip-path="url(#clip770)" style="stroke:#000000; stroke-linecap:round; stroke-linejoin:round; stroke-width:4; stroke-opacity:1; fill:none" points="679.772,762.942 684.758,758.624 "/>
<polyline clip-path="url(#clip770)" style="stroke:#000000; stroke-linecap:round; stroke-linejoin:round; stroke-width:4; stroke-opacity:1; fill:none" points="679.772,660.367 684.758,656.049 "/>
<polyline clip-path="url(#clip770)" style="stroke:#000000; stroke-linecap:round; stroke-linejoin:round; stroke-width:4; stroke-opacity:1; fill:none" points="679.772,557.791 684.758,553.474 "/>
<path clip-path="url(#clip770)" d="M599.676 1186.59 L607.315 1186.59 L607.315 1160.22 L599.005 1161.89 L599.005 1157.63 L607.269 1155.96 L611.945 1155.96 L611.945 1186.59 L619.584 1186.59 L619.584 1190.52 L599.676 1190.52 L599.676 1186.59 Z" fill="#000000" fill-rule="nonzero" fill-opacity="1" /><path clip-path="url(#clip770)" d="M639.028 1159.04 Q635.417 1159.04 633.588 1162.61 Q631.783 1166.15 631.783 1173.28 Q631.783 1180.38 633.588 1183.95 Q635.417 1187.49 639.028 1187.49 Q642.662 1187.49 644.468 1183.95 Q646.296 1180.38 646.296 1173.28 Q646.296 1166.15 644.468 1162.61 Q642.662 1159.04 639.028 1159.04 M639.028 1155.34 Q644.838 1155.34 647.894 1159.94 Q650.972 1164.53 650.972 1173.28 Q650.972 1182 647.894 1186.61 Q644.838 1191.19 639.028 1191.19 Q633.218 1191.19 630.139 1186.61 Q627.084 1182 627.084 1173.28 Q627.084 1164.53 630.139 1159.94 Q633.218 1155.34 639.028 1155.34 Z" fill="#000000" fill-rule="nonzero" fill-opacity="1" /><path clip-path="url(#clip770)" d="M602.894 1084.01 L619.213 1084.01 L619.213 1087.95 L597.269 1087.95 L597.269 1084.01 Q599.931 1081.26 604.514 1076.63 Q609.121 1071.98 610.301 1070.63 Q612.547 1068.11 613.426 1066.37 Q614.329 1064.61 614.329 1062.92 Q614.329 1060.17 612.385 1058.43 Q610.463 1056.7 607.361 1056.7 Q605.162 1056.7 602.709 1057.46 Q600.278 1058.23 597.5 1059.78 L597.5 1055.05 Q600.324 1053.92 602.778 1053.34 Q605.232 1052.76 607.269 1052.76 Q612.639 1052.76 615.834 1055.45 Q619.028 1058.13 619.028 1062.62 Q619.028 1064.75 618.218 1066.67 Q617.431 1068.57 615.324 1071.17 Q614.746 1071.84 611.644 1075.05 Q608.542 1078.25 602.894 1084.01 Z" fill="#000000" fill-rule="nonzero" fill-opacity="1" /><path clip-path="url(#clip770)" d="M639.028 1056.47 Q635.417 1056.47 633.588 1060.03 Q631.783 1063.57 631.783 1070.7 Q631.783 1077.81 633.588 1081.37 Q635.417 1084.92 639.028 1084.92 Q642.662 1084.92 644.468 1081.37 Q646.296 1077.81 646.296 1070.7 Q646.296 1063.57 644.468 1060.03 Q642.662 1056.47 639.028 1056.47 M639.028 1052.76 Q644.838 1052.76 647.894 1057.37 Q650.972 1061.95 650.972 1070.7 Q650.972 1079.43 647.894 1084.04 Q644.838 1088.62 639.028 1088.62 Q633.218 1088.62 630.139 1084.04 Q627.084 1079.43 627.084 1070.7 Q627.084 1061.95 630.139 1057.37 Q633.218 1052.76 639.028 1052.76 Z" fill="#000000" fill-rule="nonzero" fill-opacity="1" /><path clip-path="url(#clip770)" d="M613.033 966.738 Q616.389 967.456 618.264 969.724 Q620.162 971.993 620.162 975.326 Q620.162 980.442 616.644 983.243 Q613.125 986.044 606.644 986.044 Q604.468 986.044 602.153 985.604 Q599.861 985.187 597.408 984.331 L597.408 979.817 Q599.352 980.951 601.667 981.53 Q603.982 982.109 606.505 982.109 Q610.903 982.109 613.195 980.373 Q615.51 978.636 615.51 975.326 Q615.51 972.271 613.357 970.558 Q611.227 968.822 607.408 968.822 L603.38 968.822 L603.38 964.979 L607.593 964.979 Q611.042 964.979 612.871 963.613 Q614.699 962.225 614.699 959.632 Q614.699 956.97 612.801 955.558 Q610.926 954.123 607.408 954.123 Q605.486 954.123 603.287 954.539 Q601.088 954.956 598.449 955.836 L598.449 951.669 Q601.111 950.928 603.426 950.558 Q605.764 950.188 607.824 950.188 Q613.148 950.188 616.25 952.618 Q619.352 955.025 619.352 959.146 Q619.352 962.016 617.709 964.007 Q616.065 965.974 613.033 966.738 Z" fill="#000000" fill-rule="nonzero" fill-opacity="1" /><path clip-path="url(#clip770)" d="M639.028 953.891 Q635.417 953.891 633.588 957.456 Q631.783 960.998 631.783 968.127 Q631.783 975.234 633.588 978.798 Q635.417 982.34 639.028 982.34 Q642.662 982.34 644.468 978.798 Q646.296 975.234 646.296 968.127 Q646.296 960.998 644.468 957.456 Q642.662 953.891 639.028 953.891 M639.028 950.188 Q644.838 950.188 647.894 954.794 Q650.972 959.377 650.972 968.127 Q650.972 976.854 647.894 981.461 Q644.838 986.044 639.028 986.044 Q633.218 986.044 630.139 981.461 Q627.084 976.854 627.084 968.127 Q627.084 959.377 630.139 954.794 Q633.218 950.188 639.028 950.188 Z" fill="#000000" fill-rule="nonzero" fill-opacity="1" /><path clip-path="url(#clip770)" d="M611.713 852.311 L599.908 870.76 L611.713 870.76 L611.713 852.311 M610.486 848.237 L616.366 848.237 L616.366 870.76 L621.297 870.76 L621.297 874.649 L616.366 874.649 L616.366 882.797 L611.713 882.797 L611.713 874.649 L596.111 874.649 L596.111 870.135 L610.486 848.237 Z" fill="#000000" fill-rule="nonzero" fill-opacity="1" /><path clip-path="url(#clip770)" d="M639.028 851.316 Q635.417 851.316 633.588 854.881 Q631.783 858.422 631.783 865.552 Q631.783 872.658 633.588 876.223 Q635.417 879.765 639.028 879.765 Q642.662 879.765 644.468 876.223 Q646.296 872.658 646.296 865.552 Q646.296 858.422 644.468 854.881 Q642.662 851.316 639.028 851.316 M639.028 847.612 Q644.838 847.612 647.894 852.219 Q650.972 856.802 650.972 865.552 Q650.972 874.279 647.894 878.885 Q644.838 883.468 639.028 883.468 Q633.218 883.468 630.139 878.885 Q627.084 874.279 627.084 865.552 Q627.084 856.802 630.139 852.219 Q633.218 847.612 639.028 847.612 Z" fill="#000000" fill-rule="nonzero" fill-opacity="1" /><path clip-path="url(#clip770)" d="M598.912 745.662 L617.269 745.662 L617.269 749.597 L603.195 749.597 L603.195 758.069 Q604.213 757.722 605.232 757.56 Q606.25 757.375 607.269 757.375 Q613.056 757.375 616.435 760.546 Q619.815 763.717 619.815 769.134 Q619.815 774.713 616.343 777.814 Q612.871 780.893 606.551 780.893 Q604.375 780.893 602.107 780.523 Q599.861 780.152 597.454 779.412 L597.454 774.713 Q599.537 775.847 601.76 776.402 Q603.982 776.958 606.459 776.958 Q610.463 776.958 612.801 774.852 Q615.139 772.745 615.139 769.134 Q615.139 765.523 612.801 763.416 Q610.463 761.31 606.459 761.31 Q604.584 761.31 602.709 761.727 Q600.857 762.143 598.912 763.023 L598.912 745.662 Z" fill="#000000" fill-rule="nonzero" fill-opacity="1" /><path clip-path="url(#clip770)" d="M639.028 748.741 Q635.417 748.741 633.588 752.305 Q631.783 755.847 631.783 762.977 Q631.783 770.083 633.588 773.648 Q635.417 777.189 639.028 777.189 Q642.662 777.189 644.468 773.648 Q646.296 770.083 646.296 762.977 Q646.296 755.847 644.468 752.305 Q642.662 748.741 639.028 748.741 M639.028 745.037 Q644.838 745.037 647.894 749.643 Q650.972 754.227 650.972 762.977 Q650.972 771.703 647.894 776.31 Q644.838 780.893 639.028 780.893 Q633.218 780.893 630.139 776.31 Q627.084 771.703 627.084 762.977 Q627.084 754.227 630.139 749.643 Q633.218 745.037 639.028 745.037 Z" fill="#000000" fill-rule="nonzero" fill-opacity="1" /><path clip-path="url(#clip770)" d="M609.445 658.503 Q606.297 658.503 604.445 660.656 Q602.616 662.809 602.616 666.559 Q602.616 670.285 604.445 672.461 Q606.297 674.614 609.445 674.614 Q612.593 674.614 614.422 672.461 Q616.273 670.285 616.273 666.559 Q616.273 662.809 614.422 660.656 Q612.593 658.503 609.445 658.503 M618.727 643.85 L618.727 648.11 Q616.968 647.276 615.162 646.837 Q613.38 646.397 611.621 646.397 Q606.991 646.397 604.537 649.522 Q602.107 652.647 601.76 658.966 Q603.125 656.952 605.186 655.887 Q607.246 654.799 609.723 654.799 Q614.931 654.799 617.94 657.971 Q620.972 661.119 620.972 666.559 Q620.972 671.883 617.824 675.1 Q614.676 678.318 609.445 678.318 Q603.449 678.318 600.278 673.735 Q597.107 669.128 597.107 660.401 Q597.107 652.207 600.996 647.346 Q604.885 642.462 611.435 642.462 Q613.195 642.462 614.977 642.809 Q616.783 643.156 618.727 643.85 Z" fill="#000000" fill-rule="nonzero" fill-opacity="1" /><path clip-path="url(#clip770)" d="M639.028 646.165 Q635.417 646.165 633.588 649.73 Q631.783 653.272 631.783 660.401 Q631.783 667.508 633.588 671.072 Q635.417 674.614 639.028 674.614 Q642.662 674.614 644.468 671.072 Q646.296 667.508 646.296 660.401 Q646.296 653.272 644.468 649.73 Q642.662 646.165 639.028 646.165 M639.028 642.462 Q644.838 642.462 647.894 647.068 Q650.972 651.651 650.972 660.401 Q650.972 669.128 647.894 673.735 Q644.838 678.318 639.028 678.318 Q633.218 678.318 630.139 673.735 Q627.084 669.128 627.084 660.401 Q627.084 651.651 630.139 647.068 Q633.218 642.462 639.028 642.462 Z" fill="#000000" fill-rule="nonzero" fill-opacity="1" /><path clip-path="url(#clip770)" d="M597.686 540.511 L619.908 540.511 L619.908 542.502 L607.361 575.071 L602.477 575.071 L614.283 544.446 L597.686 544.446 L597.686 540.511 Z" fill="#000000" fill-rule="nonzero" fill-opacity="1" /><path clip-path="url(#clip770)" d="M639.028 543.59 Q635.417 543.59 633.588 547.155 Q631.783 550.696 631.783 557.826 Q631.783 564.932 633.588 568.497 Q635.417 572.039 639.028 572.039 Q642.662 572.039 644.468 568.497 Q646.296 564.932 646.296 557.826 Q646.296 550.696 644.468 547.155 Q642.662 543.59 639.028 543.59 M639.028 539.886 Q644.838 539.886 647.894 544.493 Q650.972 549.076 650.972 557.826 Q650.972 566.553 647.894 571.159 Q644.838 575.742 639.028 575.742 Q633.218 575.742 630.139 571.159 Q627.084 566.553 627.084 557.826 Q627.084 549.076 630.139 544.493 Q633.218 539.886 639.028 539.886 Z" fill="#000000" fill-rule="nonzero" fill-opacity="1" /><polyline clip-path="url(#clip772)" style="stroke:#009af9; stroke-linecap:round; stroke-linejoin:round; stroke-width:4; stroke-opacity:1; fill:none" points="1566.59,664.754 1551.38,643.03 1521.71,639.848 1483.48,652.817 1443.84,676.714 1408.62,706.293 1381.85,737.98 1365.92,770.001 1362.67,800.686 1374.53,826.773 1403.88,840.169 1444.13,833.675 1489.4,808.112 1532.61,767.187 1566.12,717.785 1582.6,670.639 1578.44,635.585 1554.79,620.158 1517.12,624.597 1472.36,644.776 1428.35,674.114 1389.98,707.703 1361.19,742.132 1343.37,776.591 1337.4,810.585 1344.9,842.506 1370.97,866.861 1409.68,870.87 1457.44,854.534 1509.09,818.624 1557.25,767.001 1593.63,707.216 1610.07,651.974 1603.14,611.988 1574.41,595.042 1530.17,601.022 1478.1,624.558 1426.64,657.695 1380.87,694.599 1344.84,731.455 1319.48,767.904 1304.72,804.621 1300.12,842.229 1306.16,878.986 1326.24,911.313 1359.57,927.226 1405.08,924.039 1460.38,900.233 1521.07,855.265 1579.93,791.365 1627,716.378 1652.73,643.593 1651.61,586.617 1623.48,556.441 1574.39,555.59 1512.85,578.65 1448.8,615.674 1388.93,657.673 1338.25,698.491 1298.23,736.665 1268.69,773.161 1247.97,809.966 1233.2,848.808 1220.75,889.624 1205.07,932.323 1178.83,972.955 1142.59,1000.1 1094.16,1013.77 1035.78,1009.89 971.418,983.342 908.62,929.784 857.214,848.841 828.085,749.818 827.412,647 855.681,560.711 907.383,504.889 973.028,486.055 1042.25,500.621 1107.9,539.204 1164.64,590.912 1210.31,646.924 1245.18,702.138 1271.07,754.238 1290.8,801.594 1309.09,843.799 1332.47,878.551 1367.96,898.63 1412.89,897.042 1466.25,874.247 1523.29,830.863 1576.22,770.903 1616.11,702.62 1634.47,639.128 1627.13,592.871 1595.76,572.586 1546.71,578.225 1488.58,603.754 1430.49,639.876 1377.92,679.494 1334.77,718.424 1302.47,755.806 1280.38,793.015 1267.03,831.364 1260.4,871.271 1258.51,912.621 1260.47,954.019 1267.68,993.884 1282.18,1022.32 1305.83,1037.49 1341.25,1039.71 1390.33,1026.7 1452.37,994.907 1524.31,940.76 1599.43,863.132 1667.28,766.585 1716.03,662.268 1734.63,569.236 1718.46,504.06 1670.63,478.225 1599.71,490.312 1517.73,529.797 1435.32,582.011 1359.85,634.503 1294.79,680.511 1241.71,718.067 1200.33,748.679 1168.52,775.357 1142.58,800.735 1118.14,825.026 1089.12,845.612 1051.2,854.043 1012.06,842.611 977.615,812.451 954.079,767.931 946.99,719.19 957.352,676.896 982.607,650.253 1016.72,644.236 1052.86,657.725 1085.62,686.528 1110.05,724.471 1123.65,766.671 1124.25,809.008 1108.82,847.061 1077.33,870.545 1037.43,873.003 995.689,854.206 959.369,815.608 936.087,763.146 930.941,706.77 944.927,659.267 974.594,630.047 1013.95,623.623 1055,638.572 1092.33,669.707 1121.27,710.449 1139.62,755.853 1145.82,802.15 1137.89,846.303 1111.99,883.34 1073.45,900.928 1027.59,897.559 980.735,872.047 940.507,825.399 914.932,763.507 909.679,697.654 925.728,641.537 959.535,605.79 1004.09,595.793 1051.3,609.757 1095.36,642.037 1131.07,685.087 1156.46,733.293 1170.67,782.95 1173.17,831.968 1162.12,878.791 1133.53,918.513 1092.89,939.433 1042.82,940.921 988.358,919.938 937.23,875.023 898.068,808.771 878.887,729.934 884.153,653.065 912.543,593.436 958.382,560.796 1012.98,558.025 1068,580.414 1117.62,620.056 1158.25,669.295 1188.01,721.761 1207.33,774.441 1217.16,825.578 1218.64,874.747 1211.51,922.337 1191.41,968.439 1160.07,1000.16 1116.73,1019.12 1061.58,1022.83 998.035,1006.22 932.144,963.905 873.042,893.093 831.834,798.255 817.298,692.316 832.876,593.454 875.97,519.311 937.554,481.966 1007.97,481.427 1077.62,510.275 1140.7,557.789 1193.03,613.138 1234.19,669.514 1265.25,723.225 1288.75,772.84 1308.24,816.695 1329.71,854.149 1361.42,880.569 1403.28,885.89 1454.06,869.411 1509.4,831.819 1561.57,777.166 1601.95,713.48 1622.78,651.659 1618.92,605.76 1591.52,583.505 1545.81,586.372 1491.22,608.943 1435.46,642.961 1385.12,680.978 1343.53,719.289 1312.62,756.702 1292.28,794.078 1281.5,832.119 1278.85,871.315 1284.17,910.47 1300.58,946.416 1328.4,967.248 1368.11,971.283 1419.95,956.859 1482.66,920.996 1550.19,862.764 1613.72,785.381 1662.21,698.752 1686.39,616.387 1680.38,555.039 1644.84,524.85 1587.24,528.016 1517.67,556.822 1445.49,599.921 1378.96,646.164 1322.04,689.326 1276.21,727.727 1241.16,762.588 1214.83,796.371 1193.57,831.433 1172.81,867.468 1144.9,903.062 1105.07,928.663 1057.11,935.556 1004.1,921.098 952.21,882.922 910.253,822.591 886.607,747.997 886.261,671.827 909.546,608.991 951.064,571.659 1003.06,563.354 1057.33,581.101 1106.96,617.39 1147.98,664.253 1178.64,715.707 1198.64,767.865 1208.73,818.894 1209.61,868.721 1200.47,916.272 1176.86,960.643 1141.76,989.57 1094.14,1004.29 1036.7,1001.06 973.526,975.162 912.071,922.51 862.02,842.825 834.357,746.319 834.717,646.397 863.397,563.644 914.462,511.352 979.255,494.969 1046.74,511.007 1110.74,550.328 1165.16,601.677 1208.7,657.167 1241.61,711.925 1265.67,763.746 1283.85,811.507 1300.57,854.4 1322.32,890.67 1355.49,912.868 1399.49,914.355 1452.67,894.861 1511.48,854.267 1569.05,794.819 1616.4,722.968 1643.23,652.517 1644.12,595.955 1618.61,565.245 1572.17,562.732 1512.75,583.966 1450.88,619.223 1392.55,660.174 1343.4,700.382 1304.82,738.424 1276.72,775.169 1257.6,812.455 1245.02,851.692 1235.87,892.9 1226.05,935.993 1209.66,979.425 1183.69,1013.41 1146.54,1036.64 1096.93,1048 1035.92,1043.14 967.291,1015.68 899.053,960.087 841.825,875.5 806.2,767.814 800.595,654.09 826.896,552.738 879.471,483.773 948.765,454.555 1024.48,463.044 1096.96,499.348 1161.08,551.455 1214.39,609.438 1256.28,666.419 1288.06,718.747 1312.78,765.235 1334.96,805.222 1360.62,836.267 1398.1,852.291 1443.36,845.301 1492.83,817.308 1539.76,772.708 1576.38,719.024 1595.52,666.517 1592.68,627.157 1568.87,608.26 1529.03,611.056 1481.18,631.198 1432.99,661.635 1390.05,696.517 1356,732.527 1332.85,768.338 1320.87,804.277 1320.47,839.87 1333.48,872.476 1362.87,894.026 1404.48,895.899 1456.17,876.946 1512.71,837.167 1566.48,779.941 1608.2,713.591 1629.97,649.198 1626.52,600.963 1598.69,577.044 1552.1,579.243 1495.93,601.976 1437.91,636.884 1385.44,675.719 1341.77,714.508 1308.61,752.16 1286.02,789.366 1272.64,827.337 1266.52,867.021 1266.24,907.672 1271.92,948.246 1286.69,983.826 1310.98,1004 1347.23,1009.43 1395.95,998.41 1457.69,967.465 1527.79,914.049 1599.27,838.06 1661.57,745.178 1702.47,649.494 1713.63,566.593 1691.83,513.716 1641.13,497.542 1571.09,515.312 1493.24,555.62 1416.33,605.56 1347.56,654.275 1289.91,696.76 1243.86,732.692 1208.27,764.268 1180.45,794.456 1156.94,824.398 1131.73,854.158 1097.31,879.192 1054.93,887.748 1009.57,875.462 967.23,841.967 935.307,790.301 920.886,729.896 926.768,672.577 951.753,630.138 989.758,611.053 1033.51,615.859 1076.44,640.636 1112.71,678.577 1139.43,723.709 1155.02,771.63 1158.4,819.312 1147.6,864.521 1118.67,901.854 1077.61,919.355 1028.48,915.89 977.686,889.418 933.447,840.683 903.685,774.555 894.935,702.352 909.325,637.452 943.33,593.958 989.915,577.594 1041.63,587.71 1090.14,618.055 1131.51,661.391 1162.8,711.022 1183.09,762.478 1192.58,813.664 1191.2,862.819 1176.99,909.832 1147.59,947.742 1105.97,969.535 1054.22,973.53 995.976,956.073 938.098,913.725 889.567,846.503 859.823,760.858 855.634,671.156 877.906,593.967 922.571,542.796 980.225,525.046 1042.1,537.692 1100.66,572.778 1151.31,621.239 1191.18,674.797 1220.42,728.891 1240.45,781.462 1253.38,830.946 1262.49,877.713 1271.51,921.31 1285.78,960.112 1309.13,985.441 1343.61,994.948 1390.33,987.68 1449.6,960.805 1517.31,911.97 1586.96,840.986 1648.8,752.563 1690.68,659.915 1704.02,578.898 1685.37,525.314 1637.65,506.951 1570.9,522.001 1495.44,559.841 1420.87,607.69 1353.44,655.578 1297.09,697.934 1252.22,734.437 1217.71,767.208 1190.96,799.06 1168.44,831.112 1144.09,863.535 1110.03,892.197 1066.95,904.97 1019.06,897.056 971.759,866.842 932.953,815.935 910.493,751.727 909.024,685.717 929.003,631.306 965.566,599.608 1011.51,593.873 1059.45,611.63 1102.57,646.191 1137.23,690.712 1161.46,739.866 1174.39,789.959 1175.6,838.892 1163.18,885.581 1133.8,924.03 1092.44,944.205 1041.64,945.032 986.455,923.289 934.668,877.401 895.014,809.947 875.562,729.628 880.875,651.337 909.629,590.413 956.149,556.823 1011.52,553.583 1067.47,575.897 1117.98,615.684 1159.6,665.271 1190.29,718.05 1210.57,770.971 1221.51,822.173 1224.59,871.354 1220.2,918.908 1205.78,964.921 1179.87,1000.9 1142.54,1024.92 1092.51,1036.29 1031.86,1030.56 964.669,1001.94 898.784,945.458 844.499,860.549 812.674,755.019 810.578,645.363 838.964,551.21 892.931,488.257 961.464,465.041 1034.93,477.539 1104.62,515.766 1166.11,568.736 1216.11,626.172 1254.93,682.368 1284.33,734.567 1307.09,780.875 1328.28,821.175 1354.19,852.423 1392.21,867.773 1438.27,860.554 1489.51,832.41 1540.02,786.238 1581.7,728.439 1605.75,670.758 1607.33,624.444 1585.97,599.103 1546.61,597.355 1496.63,615.38 1444.45,645.828 1396.51,681.709 1357.14,718.545 1328.08,755.089 1309.8,791.592 1301.89,828.584 1304.37,865.952 1319.36,900.056 1349.07,921.885 1390.65,924.761 1442.93,907.588 1502.53,869.065 1562.44,810.735 1613.38,738.932 1646.09,664.289 1653.02,602.112 1632.38,563.664 1588.68,554.786 1530.38,571.662 1466.15,605.784 1405.28,646.681 1352.02,688.092 1308.91,727.371 1276.78,764.554 1254.32,801.405 1238.91,839.524 1226.8,880.367 1213.55,922.839 1191.82,965.802 1159.89,997.458 1116.48,1016.48 1061.36,1020.22 998.022,1003.58 932.471,961.245 873.803,890.457 833.255,796.179 819.266,690.935 835.223,593.28 878.581,520.209 940.082,484.026 1009.98,484.327 1079.15,513.64 1141.45,561.149 1193.11,616.37 1233.64,672.589 1264.13,726.171 1287.21,775.876 1306.32,819.844 1327.54,857.569 1359.16,884.323 1401.05,889.932 1451.87,873.831 1507.44,836.728 1561.02,781.528 1602.84,716.926 1625.24,653.862 1623.01,605.836 1596.52,581.328 1551.5,582.57 1496.6,604.239 1439.4,638.409 1387.79,676.666 1344.91,715.089 1312.49,752.553 1290.66,789.676 1278.22,827.564 1273.56,867.031 1275.92,906.914 1286.88,945.497 1308.81,973.296 1342.09,985.119 1387.6,980.045 1445.38,955.522 1511.66,909.274 1580.11,841.118 1641.19,755.656 1683.25,665.139 1697.41,585.645 1680.19,532.328 1634.39,513.321 1569.54,527.023 1495.67,563.46 1422.64,610.044 1356.35,657.263 1301.08,699.398 1257.2,736.158 1223.62,769.62 1197.78,802.465 1176.08,835.841 1152.48,869.955 1118.99,900.906 1075.95,916.48 1026.64,911.733 976.591,884.472 933.458,835.338 905.03,769.027 897.968,698.189 913.5,636.008 948.327,594.831 994.846,580.917 1045.43,592.681 1092.9,624.007 1133.01,667.82 1162.68,717.163 1181.41,768.181 1189.29,818.942 1185.87,867.765 1168.56,913.753 1136.29,948.207 1092.31,965.926 1038.39,964.708 979.639,940.362 924.395,890.772 881.866,818.447 860.241,731.095 864.923,645.894 894.718,577.969 943.871,538.955 1002.65,532.532 1063.13,553.837 1117.97,593.906 1163.89,644.292 1199.22,698.446 1224.03,752.122 1239.97,803.418 1249.65,852.303 1255.76,898.513 1261.39,942.637 1270.76,983.941 1287.27,1012.57 1313.34,1027.16 1351.7,1027.78 1402.99,1012.23 1467.22,976.661 1540.38,917.637 1614.34,835.343 1677.1,737.5 1717.34,637.524 1726.34,552.365 1701.26,499.382 1647.01,485.101 1572.92,505.895 1491.81,549.242 1411.71,601.892 1340.81,651.876 1281.2,694.625 1233.41,729.799 1196.3,759.699 1167.2,787.375 1142.71,814.246 1117.16,840.252 1084.04,860.659 1043.62,864.98 1002.56,848.859 966.959,813.534 943.765,764.423 938.009,711.326 950.68,666.297 978.581,638.546 1015.81,632.625 1054.73,647.244 1090.01,677.591 1116.87,717.269 1133.03,761.429 1136.66,806.182 1125.29,847.943 1096.35,879.18 1056.48,889.995 1011.58,879.321 968.741,847.1 935.548,796.159 919.329,735.285 923.589,675.801 947.172,631.321 984.594,609.536 1028.93,612.07 1072.5,635.126 1110.32,672.481 1138.59,717.401 1155.85,765.416 1161.16,813.56 1152.77,859.846 1125.32,900.965 1085.67,921.437 1037.61,921.62 986.424,899.457 939.447,854.065 905.705,789.765 892.15,716.318 901.793,648.193 932.619,598.286 977.992,575.367 1029.48,579.867 1080.33,606.806 1124.07,647.97 1158.22,696.596 1181.66,747.873 1194.44,798.991 1196.89,848.923 1188.02,897.018 1163.89,940.774 1126.74,969.151 1078.59,980.919 1021.82,973.203 961.78,941.804 906.738,884.573 866.133,803.949 849.198,712.305 859.564,624.322 895.095,557.98 948.5,523.259 1011.26,521.716 1073.31,547.395 1129.67,591.221 1175.85,643.49 1211.17,698.026 1236.46,751.52 1253.74,802.564 1265.84,850.068 1276.89,894.329 1292.32,933.848 1317.9,961.571 1354,971.426 1402.19,963.274 1461.22,934.972 1527.32,884.621 1592.82,813.68 1647.54,729.09 1681.27,642.736 1685.7,572.896 1659.8,531.403 1608.66,523.693 1542.13,544.907 1469.45,584.691 1400.66,630.661 1339.97,675.452 1289.95,715.803 1251.27,751.9 1222.39,785.965 1200.2,820.234 1179.82,856.339 1155.18,892.481 1118.89,922.732 1073.4,935.861 1021.01,928.466 967.775,897.78 921.877,844.189 891.503,772.596 883.451,695.333 899.598,626.358 936.206,580.082 985.783,562.576 1040.58,572.833 1092.15,604.145 1136.49,648.79 1170.67,699.666 1194,752.145 1207.09,804.11 1210.74,854.021 1204.91,902.482 1185.8,949.428 1154.05,982.95 1110.7,1002.17 1055.95,1005.1 993.088,986.596 929.466,941.846 875.085,870.367 839.621,777.645 830.775,676.951 850.979,586.62 895.89,523.497 957.432,495.541 1025.1,502.098 1090.73,534.897 1148.48,583.214 1195.93,638.236 1232.44,693.826 1259.17,746.651 1278.92,795.629 1295.69,840.209 1315.15,878.988 1346.5,907.662 1387.26,914.572 1438.16,900.728 1496.35,865.353 1555.04,810.162 1605.19,741.432 1637.78,669.541 1645.45,609.041 1626.16,571.138 1584.3,561.9 1527.97,577.724 1465.82,610.476 1406.79,650.219 1355.27,690.844 1313.79,729.804 1283.18,767.143 1262.36,804.353 1248.91,842.91 1239.63,884.117 1231.09,926.858 1218.31,970.18 1196.7,1007.38 1164.64,1034.2 1119.69,1050.65 1062.88,1053.03 996.335,1035.79 926.148,992.455 862.008,919.431 814.928,819.206 795.08,704.097 807.321,593.013 849.302,506.721 913.531,457.77 988.358,449.578 1064.18,474.777 1133.53,521.397 1192.98,578.255 1240.99,636.788 1277.88,691.693 1305.95,740.712 1329.17,783.384 1352.6,818.079 1383.83,841.285 1425.32,844.25 1472.22,825.552 1519.48,788.529 1559.86,739.074 1585.45,686.842 1590.68,643.231 1574.59,617.471 1540.77,612.93 1496.2,627.286 1449.01,654.116 1404.98,687.491 1369.32,722.543 1343.99,757.78 1329.83,792.975 1327.39,827.802 1338.52,860.147 1367.17,882.591 1407.86,884.857 1457.95,866.574 1512.38,828.06 1563.47,773.112 1602.56,709.603 1621.63,649.363 1616.25,604.963 1587.77,584.544 1541.9,588.738 1487.28,612.102 1432.28,646.201 1382.7,684.2 1342.13,722.351 1312.43,759.478 1293.17,796.716 1283.38,834.872 1281.94,873.893 1289.14,912.536 1309.39,946.984 1340.85,963.568 1384.3,962.621 1439.59,942.166 1503.21,900.283 1569.09,836.984 1628.08,756.749 1668.95,671.28 1683.13,595.919 1667.19,545.19 1623.73,526.861 1561.95,539.584 1491.58,573.941 1421.96,618.283 1359.11,663.623 1306.95,704.881 1265.95,741.845 1235.03,776.483 1211.59,811.403 1192.14,847.396 1170.6,884.891 1138.75,920.48 1096.79,941.486 1045.97,943.733 990.652,923.561 938.526,879.291 898.229,813.485 877.555,733.717 881.564,655.841 909.093,594.265 954.926,559.483 1009.58,555.169 1065.35,576.576 1115.69,615.616 1157.27,664.687 1188.14,717.456 1208.47,770.501 1219.23,821.656 1221.9,870.946 1216.63,918.536 1200.34,964.595 1172.65,999.051 1133.1,1021.52 1081.36,1030.34 1018.8,1020.66 951.337,986.465 887.445,923.478 838.564,834.327 813.913,727.959 819.396,622.476 854.64,535.879 911.995,484.395 981.597,471.25 1053.8,491.342 1120.6,533.926 1177.77,587.826 1223.84,644.798 1259.12,699.769 1285.65,750.468 1307,796.289 1327.77,835.314 1355.51,865.114 1395.24,876.823 1443.07,866.217 1495.95,834.735 1547.73,785.176 1589.64,724.746 1613.29,664.912 1613.71,617.658 1590.54,592.252 1549.18,591.383 1497.33,610.623 1443.22,642.377 1393.73,679.175 1352.85,716.644 1322.33,753.57 1302.47,790.361 1292.55,827.817 1291.94,866.288 1301.53,903.254 1325.51,933.341 1361.13,945.038 1408.94,937.947 1466.78,910.162 1529.98,860.87 1591.01,792.265 1639.48,712.661 1665.6,635.811 1663.7,575.984 1633.71,544.576 1582.01,544.082 1517.37,568.658 1450.18,607.611 1387.18,651.379 1333.61,693.275 1290.85,731.705 1258.68,767.726 1235.27,803.557 1217.49,841.077 1201.08,880.467 1179.37,921.064 1146.32,955.55 1102.5,975.179 1049.27,977.061 990.125,957.242 931.943,912.209 883.761,841.93 855.554,754.541 853.314,663.34 877.71,586.54 923.836,537.022 983.015,520.923 1045.54,535.254 1104.73,571.853 1155.24,620.922 1195.08,674.771 1224.37,728.849 1244.6,781.099 1258.15,830.348 1268.42,876.464 1279.75,919.03 1298.67,955.484 1327.28,975.434 1367.44,978.574 1419.88,963.313 1483.15,926.71 1551.44,867.691 1616.47,788.583 1666.28,700.008 1691.55,615.678 1686.32,552.068 1650.9,520.134 1592.91,522.395 1522.16,551.223 1448.82,594.767 1380.56,641.914 1322.08,685.695 1274.78,724.286 1238.33,758.885 1210.75,792.039 1188.56,826.006 1167.08,860.865 1139,894.941 1099.34,919.181 1051.6,924.536 999.608,908.012 950.514,868.381 912.461,808.271 892.957,735.437 896.597,664.164 922.281,608.458 964.828,577.874 1015.75,575.498 1067.22,597.062 1113.39,635.248 1150.75,683.003 1177.22,734.21 1192.91,785.963 1198.15,836.464 1192.64,884.999 1173.23,930.725 1140.17,963.513 1095.03,980.696 1040.04,979.448 979.811,955.575 921.54,905.581 875.42,831.218 850.478,741.076 852.202,649.84 880.677,574.567 929.645,529.112 990.496,517.295 1053.86,535.336 1112.65,574.333 1162.34,624.556 1201.43,678.887 1230.04,732.871 1249.86,784.501 1263.73,833.495 1275.05,878.598 1289.06,919.734 1312.67,952.045 1346.74,966.153 1392.26,962.176 1449.46,938.21 1514.88,891.973 1581.22,824.198 1637.83,741.886 1674.66,656.766 1683.77,584.119 1662.57,538.417 1615.5,525.829 1550.77,543.198 1479.78,580.187 1410.48,625.539 1349.36,670.261 1298.75,710.84 1259.24,747.271 1229.65,781.57 1207.09,816.203 1187.48,852.337 1164.68,889.587 1130.75,923.183 1087.22,940.866 1035.98,939.246 981.604,915.184 931.498,867.254 894.234,797.959 878.385,718.914 887.042,643.576 918.462,587.081 965.775,558.911 1020.92,560.078 1075.47,585.417 1124.06,626.97 1162.83,676.532 1190.97,728.879 1208.83,781.077 1217.53,832.229 1217.86,881.186 1209.16,928.886 1187.53,972.815 1154.27,1003.03 1109.31,1019.98 1052.54,1021.07 987.625,1000.66 921.522,953.244 864.908,878.056 827.894,780.777 818.367,674.359 839.006,578.833 885.499,511.105 949.801,480.008 1020.33,485.288 1089.33,518.267 1150.16,567.406 1200.51,623.294 1239.78,679.439 1269.15,732.346 1291.47,780.84 1310.77,823.93 1333.18,860.187 1366.74,883.881 1409.91,885.895 1461.27,866.493 1516.31,826.641 1567.54,770.388 1606.32,705.754 1624.4,645.393 1617.72,601.252 1587.86,581.837 1540.99,587.155 1485.31,611.599 1429.84,646.345 1379.82,684.834 1339.28,722.978 1309.5,760.077 1290.04,797.271 1279.77,835.641 1277.48,874.957 1283.01,914.359 1299.45,950.138 1327.13,970.766 1366.65,974.757 1418.5,960.408 1481.09,924.856 1548.76,867.027 1613.37,789.132 1663.03,701.638 1688.43,618.202 1683.63,555.017 1648.9,523.104 1591.7,524.981 1521.69,553.26 1449.08,596.226 1381.44,642.964 1323.53,686.527 1276.74,725.116 1240.78,759.917 1213.65,793.442 1191.91,827.903 1170.89,863.402 1143.25,898.368 1103.7,923.882 1055.97,930.649 1003.46,915.885 952.323,877.306 911.887,817.523 889.644,743.817 890.583,669.851 914.649,609.53 956.397,574.723 1007.7,568.588 1061.24,587.903 1109.31,624.811 1148.78,671.906 1177.83,723.403 1196.08,775.45 1204.16,826.195 1202.46,875.484 1189.24,922.516 1161.63,961.819 1121.93,986.196 1070.96,994.524 1011.7,982.935 949.798,946.896 893.804,884.087 853.966,798.287 838.93,701.885 852.052,611.399 891.04,543.527 947.63,509.447 1012.71,509.506 1077.13,537.1 1135.21,582.495 1182.92,635.852 1219.75,690.958 1246.62,744.424 1265.92,795.126 1280.73,841.443 1296.19,883.509 1319.6,918.51 1353.6,936.02 1398.89,934.087 1454.13,911.686 1515.74,867.868 1576.57,804.476 1627.2,728.134 1657.66,651.158 1661.04,588.812 1636.51,552.719 1588.43,547.014 1526.8,567.349 1460.72,603.838 1398.1,646.428 1343.47,688.749 1299.89,727.703 1267.06,764.277 1243.32,800.747 1226.18,838.317 1211.28,878.277 1192.99,919.717 1163.23,958.932 1123.28,983.54 1072.59,992.341 1013.68,981.421 952.057,946.236 896.18,884.476 856.09,799.514 840.65,703.942 853.219,613.827 891.526,546.14 947.519,511.819 1012.21,511.483 1076.24,538.657 1134.11,583.783 1181.61,636.949 1218.22,691.967 1244.87,745.458 1263.85,796.225 1278.25,842.767 1293.01,885.231 1315.14,921.022 1348.1,940.189 1391.99,940.109 1446.63,919.804 1508.82,877.692 1571.3,815.21 1624.4,738.897 1658.52,659.871 1665.92,593.69 1644.52,552.512 1599.03,542.629 1537.96,560.054 1470.8,595.55 1406.52,638.247 1350.03,680.948 1303.82,720.679 1268.55,757.572 1243.03,793.417 1224.39,830.271 1208.45,869.528 1189.76,910.287 1159.01,950.354 1118.86,974.642 1067.7,982.647 1009.1,970.126 948.715,932.887 895.349,869.38 859.377,785.464 847.957,691.601 864.14,607.142 904.341,546.59 961.26,518.691 1024.28,523.653 1086.2,554.221 1140.39,600.221 1184.55,653.392 1217.95,707.976 1241.57,760.821 1257.77,810.942 1269.73,857.831 1281.78,901.24 1299.99,938.67 1328.33,961.378 1367.97,966.517 1419.44,952.927 1481.57,917.912 1548.57,860.514 1611.38,784.273 1659.28,698.858 1683.06,617.636 1676.9,557.374 1641.61,527.927 1584.48,531.3 1515.67,559.888 1444.24,602.597 1378.64,648.333 1322.59,691.175 1277.58,729.513 1243.29,764.566 1217.67,798.743 1197.04,834.372 1176.82,871.109 1149.29,907.67 1110.22,934.156 1062.51,942.632 1008.93,930.21 955.634,894.244 910.845,835.091 883.535,759.604 879.598,680.235 899.883,612.915 940.193,569.549 992.556,556.043 1048.09,569.99 1100.45,604.434 1144.41,650.743 1177.98,702.191 1200.95,754.711 1214.16,806.421 1218.66,856.425 1214.86,904.554 1200.33,951.398 1173.66,988.195 1135.26,1012.33 1084.67,1022.65 1023.54,1014.66 957.333,982.683 893.989,922.198 845.115,835.761 819.886,732.28 824.158,628.771 857.723,543.525 913.332,492.208 981.496,478.45 1052.25,497.564 1118.07,539.259 1174.3,592.43 1219.53,648.97 1254.03,703.875 1279.79,754.899 1300.25,801.329 1319.97,841.504 1346.34,873.175 1384.24,887.577 1431.4,880.233 1485.4,851.493 1539.99,803.499 1586.79,742.314 1617.38,677.603 1624.73,623.229 1607.23,589.363 1568.73,581.253 1517.1,595.92 1460.32,626.121 1406.78,663.115 1360.54,701.794 1324.59,739.547 1299.42,776.638 1284.17,814.433 1277.61,853.145 1278.65,892.944 1288.36,931.566 1309.83,961.663 1342.72,975.201 1387.62,971.476 1444.73,948.119 1510.06,903.082 1577.32,836.378 1637.13,752.606 1677.61,664.759 1690.61,587.764 1672.79,536.995 1627.19,519.677 1563.14,534.03 1490.94,570.021 1419.53,615.819 1355.43,661.881 1302.07,703.37 1259.96,740.065 1227.98,774.002 1203.42,807.918 1182.74,842.628 1159.71,878.444 1126.39,911.163 1083.04,928.589 1032.84,926.103 980.343,901.06 932.769,852.257 899.809,785.273 887.713,709.229 899.443,640.254 932.162,590.999 979.643,569.202 1032.48,575.41 1083.94,603.747 1128.24,646.029 1162.88,695.534 1186.8,747.414 1200.18,798.844 1203.7,848.859 1196.83,897.406 1175.57,943.42 1141.77,974.733 1095.64,991.137 1039.75,989.377 978.299,965.112 918.552,914.59 870.215,838.193 843.535,745.471 844.057,650.051 872.034,571.071 921.552,521.819 984.227,507.208 1049.4,523.806 1110.77,562.684 1162.79,613.265 1204.1,668.061 1234.86,722.417 1256.8,774.228 1272.81,822.687 1286.83,866.91 1304.79,905.914 1333.63,933.371 1373.43,941.262 1423.86,929.338 1483.23,896.331 1546.13,842.108 1603.95,770.719 1646.85,691.219 1665.51,618.443 1655.6,566.117 1619.2,543.805 1563.34,551.051 1497.67,580.476 1431.8,621.169 1371.78,664.467 1321.23,705.653 1281.95,743.411 1252.88,779.603 1232.06,816.054 1215.89,854.276 1199.47,894.586 1175.12,936.083 1140.07,967.186 1094.01,983.388 1038.31,981.327 977.573,956.518 918.997,905.347 873.063,829.985 848.52,738.836 850.878,647.137 880.156,571.585 929.854,526.427 991.18,515.154 1055.03,533.779 1114.02,573.194 1163.91,623.73 1203.17,678.249 1231.96,732.281 1252.01,783.818 1266.27,832.693 1278.25,877.445 1293.51,917.93 1319.11,948.59 1354.8,960.323 1402.44,953.605 1460.5,926.615 1525.22,877.826 1589.08,808.889 1642.15,726.678 1674.16,643.727 1677.59,576.751 1651.58,537.742 1600.85,531.339 1535.65,552.786 1465.26,591.632 1398.53,636.53 1339.79,680.553 1292.15,720.251 1255.56,756.399 1228.34,791.349 1207.69,826.816 1188.73,864.348 1165.29,902.364 1129.9,935.02 1085.07,951.054 1032.37,947.772 976.538,921.754 925.193,871.387 887.105,799.101 871.08,716.883 880.259,638.483 912.802,579.615 961.697,549.941 1018.74,550.538 1075.19,576.028 1125.75,618.208 1166.39,668.467 1196.36,721.394 1216.19,773.98 1227.31,825.333 1231.13,874.19 1228.64,921.63 1218.4,967.285 1197.94,1005.6 1166.71,1033.06 1122.68,1050.16 1066.6,1053.52 1000.34,1037.59 929.903,995.731 865.056,924.224 816.842,825.493 795.223,710.153 805.699,598.629 846.292,510.397 909.794,459.131 984.209,448.931 1060.55,472.79 1130.3,518.614 1190.16,575.023 1238.61,633.38 1275.99,688.378 1304.49,737.728 1327.97,780.941 1351.2,816.134 1381.65,840.17 1422.8,844.51 1469.58,826.935 1517.02,790.77 1557.85,741.919 1584.5,689.331 1590.79,645.209 1575.74,618.402 1542.47,612.834 1498.41,626.381 1451.19,652.771 1407.1,685.783 1370.92,720.87 1345.08,756.115 1330.41,791.32 1327.45,826.238 1337.92,858.667 1366.09,881.858 1406.4,884.822 1456.33,867.19 1510.81,829.195 1562.09,774.623 1601.53,711.344 1621.21,650.798 1616.47,606.015 1588.55,584.967 1542.94,588.616 1488.56,611.561 1433.52,645.491 1383.87,683.379 1343.02,721.633 1313.11,758.819 1293.68,796.101 1283.8,834.189 1282.32,873.18 1289.52,911.757 1309.87,946.224 1341.49,962.738 1385.02,961.654 1440.47,940.982 1504.12,898.844 1569.89,835.319 1628.63,754.914 1668.9,669.827 1682.46,594.941 1665.95,545.023 1622.08,527.438 1560.08,540.724 1489.88,575.288 1420.43,619.69 1358.04,664.816 1306.28,705.921 1265.64,742.813 1235.05,777.456 1211.83,812.489 1192.51,848.627 1170.96,886.307 1138.96,921.951 1096.9,942.864 1045.9,945.035 990.328,924.738 937.953,880.265 897.438,814.175 876.576,733.926 880.508,655.591 908.08,593.524 954.042,558.361 1008.91,553.79 1064.98,575.095 1115.62,614.128 1157.49,663.224 1188.71,716.111 1209.35,769.181 1220.5,820.357 1223.67,869.665 1219.24,917.24 1204.57,963.417 1178.38,999.283 1140.7,1023.14 1090.15,1034.14 1029.25,1027.68 962.209,998.061 896.897,940.474 843.57,854.392 813.45,749.213 813.042,640.162 842.831,548.187 897.251,488.076 966.081,467.041 1038.93,481.15 1108.04,520.388 1168.4,573.469 1217.34,630.655 1255.26,686.494 1284,738.512 1306.32,784.734 1327.28,824.856 1353.38,856.001 1391.57,870.909 1437.89,863.369 1489.54,834.901 1540.6,788.306 1583.14,729.576 1607.87,670.918 1609.97,623.405 1588.85,597.217 1549.36,594.879 1498.78,612.769 1445.98,643.294 1397.12,679.492 1356.87,716.554 1326.93,753.216 1307.71,789.791 1298.7,826.961 1299.69,864.818 1312.23,900.197 1339.53,925.525 1378.91,932.177 1429.6,919.125 1488.43,885.083 1549.8,830.39 1605.2,759.324 1644.28,682.383 1658.77,613.928 1645.35,567.268 1606.27,549.791 1549.97,560.601 1485.62,591.406 1421.91,632.007 1364.84,674.377 1318.02,714.238 1282.04,751.447 1255.96,787.701 1237.44,825.248 1223.43,864.521 1209,906.2 1187.26,948.591 1154.58,981.663 1111.06,1000.86 1056.37,1003.9 993.632,985.552 930.177,941.037 875.939,869.869 840.564,777.523 831.733,677.257 851.87,587.311 896.635,524.504 957.96,496.747 1025.4,503.373 1090.79,536.142 1148.3,584.388 1195.53,639.341 1231.83,694.888 1258.36,747.709 1277.91,796.729 1294.45,841.428 1313.62,880.419 1344.78,909.617 1385.25,916.954 1436.16,903.566 1494.77,868.422 1554.16,813.143 1605.13,744.056 1638.64,671.6 1647.4,609.789 1629.1,570.648 1587.87,560.098 1531.46,575.113 1469.21,607.4 1409.4,647.268 1357.12,688.031 1314.86,726.995 1283.38,764.226 1261.7,801.187 1247.4,839.536 1237.31,880.408 1227.75,923.088 1213.45,966.346 1189.79,1003.08 1154.96,1029.18 1108.19,1043.53 1048.86,1042.58 981.402,1020.15 912.516,970.273 852.402,890.588 812.752,787.566 801.631,673.418 822.211,570.452 870.464,495.623 937.45,459.663 1011.77,462.253 1085.28,494.776 1150.54,544.813 1205,601.859 1248.12,658.859 1281.05,712.037 1306.57,760.096 1328.42,801.44 1352.87,834.972 1387.66,854.889 1431.29,852.766 1480.3,829.464 1529.19,788.038 1570.4,734.407 1595.39,679.451 1599,634.125 1580.43,608.464 1543.99,605.157 1496.43,621.372 1446.8,649.971 1400.76,684.643 1363.27,720.598 1336.08,756.534 1319.85,792.473 1314.62,828.547 1321.36,863.761 1343.54,892.746 1379.59,904.39 1427.17,895.917 1482.38,866.551 1539.69,817.188 1590.76,752.537 1625.52,683.683 1637.13,622.553 1622.57,582.847 1585.19,569.848 1531.81,582.058 1472.68,611.599 1414.8,649.787 1364.4,689.436 1323.85,727.864 1293.97,765.007 1274.01,802.147 1262.07,840.75 1255.92,881.34 1253.54,923.436 1253.51,965.094 1255.57,1005.18 1261.7,1041.88 1273.55,1064.77 1293.95,1076.67 1325.6,1077.74 1370.63,1066.03 1430.77,1037.17 1502.85,987.095 1581.85,912.63 1658.38,815.331 1720.26,703.773 1754.73,595.052 1753.71,509.334 1716.69,461.918 1650.05,457.656 1566.57,489.166 1477.07,541.908 1392.41,599.57 1317.12,651.981 1253.72,694.34 1202.91,726.494 1163.65,751.14 1133.3,771.618 1108.24,790.126 1084.72,806.092 1058.23,816.027 1026.75,812.35 999.383,792.242 981.615,761.068 976.922,726.544 986.128,698.081 1006.21,683.046 1032,684.177 1057.97,700.401 1078.38,727.294 1089.62,760.146 1088.23,793.296 1071.22,819.587 1042.84,828.125 1011.58,817.18 985.153,789.975 969.425,752.245 968.461,713.937 981.935,684.456 1006.3,670.459 1035.92,674.273 1064.35,693.553 1087.03,724.066 1099.71,759.945 1099.74,796.35 1084.03,827.252 1054.46,841.835 1019.53,835.716 987.22,810.82 964.157,771.735 955.797,727.286 963.875,687.561 986.215,662.109 1017.2,655.768 1050.6,667.96 1080.59,694.736 1102.71,730.752 1113.84,770.713 1111.55,810.178 1092.2,843.808 1059.5,859.182 1021.11,853.658 984.011,827.941 955.656,785.585 942.485,734.976 947.246,687.149 968.697,652.504 1001.69,638.137 1039.23,644.823 1075.39,669.097 1104.6,704.875 1124.01,747 1131.39,791.077 1124.44,833.096 1099.38,867.571 1061.89,881.955 1018.51,874.768 976.484,846.169 943.31,799.128 925.889,741.118 928.221,683.92 949.437,640.127 984.727,617.675 1027.24,618.942 1069.24,640.487 1105.96,676.56 1133.2,720.432 1149.33,767.507 1153.16,814.719 1142.44,859.705 1113.6,895.953 1073.05,912.133 1025.2,907.388 976.366,880.126 934.384,831.186 907.25,765.818 901.26,696.369 917.431,636.343 952.498,597.147 998.722,585.024 1048.29,597.968 1094.75,629.987 1133.32,673.681 1161.55,722.739 1178.83,773.363 1185.06,823.594 1179.44,871.983 1158.69,916.639 1123.54,947.239 1077.02,960.354 1022.56,953.355 965.564,922.848 913.975,867.16 877.799,791.154 864.35,705.4 876.762,626.268 912.637,568.043 964.478,540.485 1023.15,543.764 1081.24,571.893 1132.17,615.594 1173.25,666.89 1203.69,720.343 1224.16,772.945 1236.43,823.786 1242.53,872.231 1244.43,919.106 1243.19,963.441 1238.1,1006.19 1226.62,1042.72 1206.87,1069.96 1176.3,1090.39 1132.85,1103.63 1074.84,1106.15 1005.21,1091.34 928.785,1051.36 854.61,979.787 794.446,875.565 760.663,748.077 761.099,616.327 796.3,503.301 860.251,427.407 940.468,398.128 1026.38,410.625 1107.73,452.597 1179.99,510.331 1240.44,572.127 1288.65,630.313 1325.87,681.076 1354.85,723.274 1379.77,756.906 1405.04,779.837 1436.35,788.34 1472.83,777.457 1506.63,751.127 1531.15,717.844 1541.66,686.189 1535.84,664.688 1515.7,657.799 1486.16,665.336 1453.34,684.071 1423.72,709.175 1401.38,737.329 1389.86,765.462 1391.74,790.634 1410.62,807.533 1442.74,806.9 1480.35,788.541 1516.49,756.097 1543.3,717.063 1555.12,680.235 1549.19,654.892 1527.36,645.682 1494.44,652.744 1457.7,672.149 1423.17,698.886 1395.63,728.899 1378.13,759.871 1373.15,789.687 1383.3,814.756 1411.39,827.401 1449.76,820.288 1492.26,794.977 1532.02,755.273 1560.44,709.882 1571.96,667.965 1563.77,639.885 1538.26,630.228 1500.83,638.551 1459.07,660.209 1419.52,689.409 1386.91,721.805 1364.11,755.26 1353.1,788.467 1355.5,819.528 1374.21,844.138 1408.62,852.409 1452.46,840.558 1500.33,809.674 1545.11,763.602 1578.81,709.711 1593.74,660.04 1586.98,624.625 1559.89,610.032 1518.79,616.477 1471.2,638.735 1424.3,670.109 1383.77,704.953 1352.77,740.396 1332.6,775.827 1323.73,811.208 1326.87,845.813 1345.05,875.922 1378.66,890.81 1423.96,885.499 1476.94,859.434 1532.16,813.668 1581.48,752.885 1615.22,687.719 1626.72,629.731 1613.04,591.939 1577.42,579.547 1526.43,591.172 1469.92,619.449 1414.88,656.151 1367.16,694.687 1329.19,732.545 1301.9,769.601 1284.72,806.869 1276.19,845.402 1275.07,885.328 1281.6,925.055 1299.17,959.979 1327.47,978.78 1367.7,981.236 1420.37,965.441 1483.92,928.332 1552.53,868.773 1617.94,788.992 1668.02,699.725 1693.44,614.761 1688.2,550.616 1652.63,518.389 1594.34,520.585 1523.15,549.58 1449.36,593.384 1380.6,640.826 1321.66,684.792 1273.93,723.422 1237.09,757.914 1209.15,790.841 1186.66,824.455 1164.94,858.898 1136.74,892.427 1097.01,916.088 1049.65,920.754 998.445,903.694 950.362,863.799 913.442,803.685 895.35,732.111 900.151,662.194 926.564,608.7 968.983,580.437 1019.67,579.79 1070.14,602.444 1115.3,641.324 1151.09,688.871 1176.13,739.732 1190.37,791.029 1193.99,841.406 1186.16,889.496 1163.17,933.706 1126.69,962.992 1079.18,975.423 1023.14,968.305 963.905,937.635 909.64,881.387 869.669,801.98 853.22,712.038 863.661,626.117 898.909,561.425 951.621,528.03 1013.27,527.213 1074.27,553.077 1129.57,596.802 1174.6,648.725 1208.82,702.958 1233.05,756.263 1249.24,807.432 1260,855.235 1269.05,900.22 1280.97,941.194 1301.67,973.087 1332.27,988.224 1375.21,986.935 1430.13,967.113 1495.34,925.78 1564.97,861.768 1629.35,779.094 1677.55,687.712 1699.84,602.087 1690.46,540.289 1651.21,511.948 1589.34,518.06 1516.33,550.074 1441.04,596.002 1372.31,643.862 1313.39,687.738 1265.78,725.937 1229.14,759.798 1201.3,791.924 1178.43,824.707 1155.76,857.943 1125.67,889.467 1084.17,909.222 1036.48,908.81 986.762,886.114 942.669,841.268 912.331,779.268 901.926,709.882 913.914,647.259 945.278,604.086 989.654,586.766 1039.02,595.277 1086.02,623.987 1125.98,665.703 1156.24,714.341 1175.43,765.308 1183.26,815.671 1179.36,864.093 1160.65,909.684 1126.75,942.357 1081.61,957.293 1028.12,952.479 971.538,924.556 919.727,871.888 881.885,797.556 866.456,713.241 876.639,633.491 910.528,573.718 960.764,544.009 1018.93,545.052 1076.5,571.23 1127.91,614.003 1169.38,664.771 1200.19,718.037 1220.95,770.757 1233.26,822.027 1238.92,870.672 1239.7,917.7 1235.97,962.686 1224.82,1007.35 1205.33,1040.15 1175.32,1064.25 1132.8,1079.91 1076.28,1084.04 1008.6,1070.44 934.789,1031.87 863.646,962.51 806.498,861.431 775.893,740.281 778.375,615.331 814.029,510.918 876.237,443.052 953.876,419.102 1035.44,434.284 1112.81,476.837 1180.84,533.723 1236.76,593.739 1281.03,650.64 1315.47,701.635 1342.41,744.591 1366.7,779.426 1393.7,803.425 1431.11,811.004 1472.56,796.752 1512.23,765.856 1543.67,725.521 1560.53,685.092 1559.07,654.296 1540.04,639.844 1508.02,642.811 1469.31,660.198 1431.49,686.348 1399.11,717.115 1376.39,748.955 1365.16,780.444 1367.32,809.646 1386.23,831.977 1420.48,837.295 1463.3,822.701 1508.13,790.292 1547.42,745.397 1573.82,696.098 1581.05,654.212 1567.9,628.127 1537.21,622.054 1496.05,634.237 1451.61,659.03 1410.31,690.494 1376.66,724.457 1353.43,758.745 1341.7,792.82 1342.6,825.741 1358.92,853.874 1392.03,867.487 1435.7,860.65 1485.69,833.758 1535.64,789.116 1577.6,732.47 1602.59,675.208 1605.5,628.274 1585.59,602.114 1547.47,599.178 1498.16,616.247 1446.68,645.885 1398.93,681.439 1359.76,718.043 1330.9,754.416 1312.84,790.758 1305.3,827.544 1308.55,864.43 1324.96,897.534 1355.96,917.149 1399.29,917.599 1452.4,897.648 1511.43,856.742 1569.4,796.945 1617.27,724.695 1644.88,653.297 1646.49,595.74 1621.51,563.932 1575.12,560.578 1515.7,581.301 1453.31,616.504 1394.26,657.644 1344.21,698.149 1304.78,736.33 1275.88,773.063 1255.98,810.266 1242.67,849.249 1232.63,890.36 1221.5,933.36 1202.83,976.598 1174.51,1009.22 1134.7,1030.73 1082.39,1039.19 1019.41,1029.53 951.127,995.641 885.716,932.673 834.679,842.273 808.066,734.121 811.903,624.849 846.004,534.627 903.293,478.982 974.31,462.472 1047.9,480.557 1117.15,522.692 1176.46,576.761 1224.56,634.126 1261.74,689.483 1289.95,740.447 1312.46,785.868 1334.04,824.433 1361.73,853.419 1401.14,864.738 1448.47,853.588 1499.99,821.65 1548.62,773.13 1586.29,715.694 1605.51,660.157 1601.8,618.783 1576.27,599.187 1534.13,602.418 1483.68,623.718 1432.82,655.529 1387.26,691.606 1350.59,728.504 1324.78,764.949 1309.8,801.629 1305.45,838.653 1312.27,874.65 1333.81,905.264 1369.06,918.886 1415.5,912.905 1471.18,886.16 1530.91,838.557 1586.42,773.969 1628.34,700.946 1647.99,632.602 1640.73,582.768 1608.16,560.246 1556.51,565.469 1495.43,591.883 1433.63,629.743 1377.49,670.848 1330.39,711.008 1294.35,748.813 1268.56,785.856 1251.38,823.536 1239.77,863.17 1230.14,904.94 1217.69,948.483 1196.35,989.292 1165.03,1018.55 1121.2,1036.76 1065.77,1040.58 1000.85,1024.88 932.387,983.529 869.816,913.197 823.867,816.36 804.543,705.389 816.493,598.287 857.366,515.581 919.68,469.21 992.416,462.183 1065.84,487.425 1132.95,533.473 1190.33,589.653 1236.28,647.582 1271.38,702.411 1297.84,751.779 1319.72,795.249 1342.31,831.366 1373.68,856.508 1415.7,861.02 1464.29,843.561 1515.14,806.416 1561.12,754.175 1593.02,696.941 1604.72,645.303 1593.34,611.283 1561.77,599.837 1516.13,609.988 1465.35,635.494 1416.27,669.149 1374.27,705.339 1341.91,741.811 1320.39,778.175 1309.78,814.675 1309.97,851.083 1322.82,885.47 1351.21,909.032 1391.84,913.442 1442.82,897.701 1500.64,860.955 1558.47,804.963 1607.36,735.961 1638.2,664.399 1643.61,605.807 1622.57,570.629 1579.2,563.56 1522.44,580.984 1460.81,614.33 1402.51,654.168 1351.73,694.843 1311.71,733.332 1282.39,770.383 1262.41,807.942 1249.77,846.758 1241.26,887.933 1233.51,930.735 1221.84,974.122 1201.65,1011.63 1171.36,1038.87 1128.74,1056.33 1073.38,1061.03 1006.6,1047.01 934.891,1007.35 867.414,937.262 816.153,839.324 790.893,723.089 797.79,607.959 836.351,513.328 898.305,456.67 973.309,441.336 1050.9,461.706 1123.1,506.114 1185.21,562.118 1235.85,620.638 1275.33,676.134 1305.66,726.16 1330.22,769.786 1353.55,805.363 1382.48,830.142 1422.8,836.501 1468.08,820.713 1513.84,786.569 1553.08,739.97 1578.15,690.297 1583.58,648.625 1568.4,623.927 1536.08,619.54 1493.35,633.352 1448.19,659.28 1406.2,691.756 1372.66,726.011 1349.48,760.586 1337.74,794.987 1338.4,828.34 1354.25,857.516 1386.67,872.527 1430.18,867.261 1480.84,841.606 1532.25,797.554 1576.32,740.855 1604.84,680.766 1611.04,630.885 1593.89,600.563 1556.79,594.105 1507.87,608.859 1455.01,637.698 1405.29,673.183 1363.16,710.499 1331.48,747.264 1310.56,783.843 1299.99,821.126 1299.49,858.633 1310.19,894.607 1335.83,922.239 1374.03,931.297 1423.21,920.759 1481.16,889.368 1542.45,837.15 1598.66,768.154 1640.17,691.208 1657.68,621.439 1647.25,571.532 1611.09,551.006 1556.49,558.913 1492.24,588.159 1428.53,627.912 1370.59,670.375 1322.63,710.67 1285.66,748.186 1258.77,784.641 1239.89,821.949 1225.87,861.069 1212.11,902.481 1192.03,945.156 1161.25,979.879 1119.4,1001.31 1066.24,1007.24 1004.91,993.071 941.193,953.861 883.888,887.064 843.749,797.086 829.274,696.337 843.836,602.38 885.02,532.002 944.052,496.959 1011.5,497.195 1078.26,525.675 1138.39,572.12 1188.04,626.403 1226.69,682.069 1255.37,735.61 1276.61,785.859 1293.71,831.049 1312.41,870.976 1341.16,901.952 1380.13,912.604 1429.78,902.31 1486.73,870.674 1545.54,818.699 1597.63,751.408 1632.87,680.069 1644.29,617.023 1628.87,576.245 1590.1,563.116 1535,575.962 1474.03,606.531 1414.31,645.778 1362.17,686.201 1319.97,725.003 1288.46,762.153 1266.79,799.085 1252.79,837.486 1243.75,878.073 1236.39,920.702 1226.75,963.833 1209.1,1004.64 1181.76,1034.68 1142.88,1054.91 1091,1063.71 1027.68,1056.04 957.011,1025.18 887.238,965.341 829.253,875.625 793.986,762.034 790.144,643.667 818.887,539.513 874.51,468.853 946.69,439.722 1025.39,449.413 1100.17,487.303 1166.42,540.951 1221.65,600.051 1265.23,657.457 1298.48,709.416 1324.5,754.767 1347.85,792.984 1374.28,821.423 1412.92,834.278 1457.11,823.85 1503.28,793.695 1544.05,749.85 1572.2,700.896 1581.81,657.558 1570.69,629.213 1541.77,621.021 1501.31,631.435 1456.27,655.484 1414.34,686.47 1379.45,720.451 1354.74,755.008 1341.54,789.379 1340.89,822.906 1355.12,851.974 1386.52,868.087 1429.16,863.887 1479,839.367 1529.69,796.549 1573.18,741.133 1601.38,682.297 1607.59,633.382 1590.79,603.647 1554.31,597.331 1506.2,611.878 1454.3,640.289 1405.53,675.347 1364.4,712.283 1333.68,748.818 1313.78,785.234 1304.4,822.261 1305.57,859.204 1319.03,893.704 1347.7,917.212 1388.3,921.659 1439.78,906.061 1498.86,869.046 1558.52,812.116 1609.51,741.562 1642.64,667.92 1650.51,605.832 1630.97,566.889 1588.44,557.189 1531.04,573.165 1467.74,606.4 1407.34,646.814 1354.52,687.924 1311.78,727.055 1279.87,764.315 1257.74,801.211 1242.82,839.437 1231.61,880.333 1220.02,922.942 1201.74,966.004 1173.5,999.952 1133.9,1022.33 1082.15,1031.25 1019.7,1021.82 952.237,988.046 887.906,925.246 838.577,836.191 813.435,729.834 818.402,623.82 853.197,536.575 910.298,484.238 979.994,470.293 1052.29,489.808 1119.48,532.157 1176.98,585.981 1223.39,642.971 1258.99,698.011 1285.79,748.813 1307.29,794.625 1328.12,833.707 1355.69,863.575 1395.3,875.554 1442.99,865.167 1495.69,833.9 1547.27,784.581 1588.91,724.524 1612.37,665.057 1612.65,618.2 1589.45,593.071 1548.17,592.38 1496.55,611.644 1442.68,643.352 1393.54,680.028 1352.99,717.414 1322.81,754.303 1303.31,791.082 1293.81,828.494 1293.77,866.794 1304.28,903.358 1329.1,931.893 1365.86,942.197 1414.28,933.528 1473.01,903.735 1536.58,852.092 1596.22,782.301 1641.87,703.437 1664.78,628.053 1659.28,572.188 1626.37,544.944 1572.67,548.099 1508.13,574.722 1441,614.869 1379.96,658.098 1328.16,699.469 1287.16,737.628 1256.71,773.704 1234.81,809.791 1218.02,847.868 1201.99,887.776 1179.67,928.987 1146.26,962.436 1101.87,981.253 1047.94,982.437 987.991,961.843 929.009,915.804 880.147,844.235 851.428,755.106 849.031,662.117 873.652,583.486 920.463,532.428 980.482,515.423 1044.1,529.385 1104.36,565.977 1156.08,615.385 1197.05,669.576 1227.42,723.898 1248.76,776.244 1263.5,825.262 1275.38,870.89 1289.29,912.303 1312.77,946.103 1346.53,961.33 1391.62,958.263 1448.28,935.178 1513.12,889.878 1578.85,823.192 1634.96,742.044 1671.48,658.047 1680.54,586.382 1659.59,541.278 1613.03,528.882 1549.03,546.036 1478.8,582.59 1410.34,627.429 1349.99,671.779 1300.09,712.206 1261.26,748.722 1232.3,783.307 1210.34,818.374 1191.31,855.089 1169.14,893.061 1135.64,927.861 1092.55,946.831 1040.92,946.924 985.234,924.549 933.144,877.988 893.354,809.78 873.973,728.775 879.518,649.853 908.622,588.536 955.533,554.787 1011.34,551.566 1067.68,574.021 1118.57,614.009 1160.51,663.763 1191.54,716.67 1212.19,769.664 1223.6,820.894 1227.35,870.047 1224.14,917.541 1212.03,963.631 1188.97,1001.14 1154.18,1027.53 1107.4,1041.89 1048.19,1040.82 980.774,1018.14 912.057,967.9 852.542,888.226 813.473,785.36 802.96,671.61 824.071,569.501 872.529,495.876 939.664,460.898 1013.74,464.308 1087.04,497.423 1151.73,547.596 1205.66,604.618 1248.28,661.515 1280.76,714.559 1305.92,762.474 1327.6,803.822 1352.1,837.384 1387.12,857.136 1430.94,854.785 1480.28,831.247 1529.57,789.496 1571.25,735.461 1596.82,679.754 1600.91,633.726 1582.66,607.276 1546.19,603.384 1498.5,619.266 1448.39,647.819 1401.54,682.75 1363.31,718.887 1335.38,754.936 1318.35,790.98 1312.19,827.289 1317.61,862.974 1337.74,893.417 1372.58,907.795 1418.48,902.215 1472.95,875.98 1530.76,829.463 1583.92,766.671 1623.3,695.934 1639.92,631.857 1630.34,586.227 1596.51,567.484 1545.52,575.04 1485.71,602.324 1426.54,639.632 1373,680.12 1329.62,719.088 1296.99,756.375 1274.4,793.397 1260.1,831.902 1251.89,871.984 1246.99,913.989 1242.86,956.601 1236.24,999.474 1223.45,1036.24 1202.29,1063.76 1170.09,1084.23 1124.68,1096.88 1065.56,1097.7 994.451,1079.7 918.071,1035.06 845.699,957.633 790.667,849.993 763.514,722.561 770.765,594.977 811.802,489.81 878.333,424.888 959.793,404.937 1043.72,424.293 1122.99,470.438 1191.39,528.892 1247.77,589.394 1292.44,645.733 1327.19,695.213 1354.7,736.486 1379.13,768.853 1405.71,790.176 1440.43,795.372 1478.65,780.419 1513.56,750.691 1538.57,714.505 1548.67,680.9 1541.63,658.332 1519.68,651.445 1488.07,659.692 1452.96,679.562 1421.16,705.865 1396.6,735.331 1382.82,764.924 1382.07,792.339 1397.56,813.233 1428.78,818.197 1467.71,804.18 1507.78,773.776 1541.05,733.188 1560.71,691.229 1562.37,657.772 1545.77,639.822 1515.01,639.895 1476.87,655.088 1437.8,680.386 1403.93,710.531 1378.66,742.686 1364.66,774.866 1363.8,805.355 1378.83,830.122 1410.6,840.089 1452.02,830.121 1497.33,801.582 1539.54,758.344 1570.24,708.763 1583.12,663.079 1575.29,631.677 1548.69,619.879 1509,627.601 1464.28,649.728 1420.81,680.262 1384.32,713.881 1357.42,748.392 1341.71,782.921 1338.15,816.657 1348.48,847.396 1377.28,868.46 1418.19,868.8 1467.15,848.664 1518.81,809.292 1565.71,754.824 1598.22,695.55 1610.11,642.177 1598.43,606.966 1566.06,594.977 1519.13,605.264 1466.99,631.289 1416.35,665.645 1372.86,702.391 1339.01,739.211 1315.92,775.79 1303.49,812.607 1301.22,849.832 1310.08,886.214 1334.01,915.778 1370.8,927.045 1418.65,918.771 1475.64,889.686 1536.47,839.667 1592.75,772.637 1634.96,697.315 1654.17,627.472 1645.89,576.823 1611.91,554.46 1558.75,560.457 1496.03,587.967 1432.81,626.827 1375.32,668.706 1326.99,709.262 1289.84,747.055 1262.91,783.832 1244.4,821.171 1231.06,860.445 1218.75,901.94 1201.44,945.13 1173.95,982.251 1135.61,1006.92 1085.43,1017.73 1024.81,1010.23 959.214,978.833 896.488,919.111 848.245,833.852 823.423,731.756 827.827,629.943 861.25,546.165 916.382,496.148 983.717,483.235 1053.64,502.701 1118.43,544.304 1173.72,597.235 1218.06,653.547 1251.73,708.322 1276.71,759.355 1296.47,806.093 1315.52,846.756 1341.26,879.308 1378.51,894.825 1425.88,888.682 1480.29,861.111 1536.58,813.482 1586.3,751.076 1620.04,684.442 1631.03,625.663 1616.47,587.544 1579.74,575.455 1527.66,587.717 1469.97,616.775 1413.9,654.127 1365.19,693.135 1326.29,731.247 1298.06,768.383 1279.86,805.665 1269.98,844.302 1266.74,884.69 1269.37,925.652 1279.3,964.308 1298.97,992.203 1329.17,1005.04 1371.8,1002.43 1427.2,981.788 1494.05,939.333 1565.85,873.783 1633.47,788.008 1684.85,692.821 1710.21,602.791 1703.37,535.592 1664.82,502.496 1602.81,505.964 1527.68,537.502 1449.95,584.219 1377.57,634.043 1315.29,679.352 1264.51,718.069 1224.88,751.422 1194.43,782.158 1169.79,812.681 1146.42,843.28 1117.54,871.886 1077.25,890.259 1032.12,888.405 986.588,865.062 947.616,821.188 922.933,762.77 917.832,700.448 933.255,647.711 965.599,614.658 1008.31,606.22 1053.23,620.753 1094.83,652.831 1127.95,695.127 1150.7,742.407 1161.96,790.996 1160.71,838.568 1143.97,883.036 1110.8,914.66 1066.91,926.798 1016.37,917.917 965.527,886.023 922.431,831.747 895.681,761.493 891.133,687.32 909.701,624.228 947.478,583.667 996.829,571.399 1049.21,585.258 1098.45,618.802 1139.37,663.869 1169.96,714.149 1189.81,765.748 1199.32,816.787 1198.62,866.317 1186.17,913.54 1158.6,953.853 1119.08,978.368 1068.05,986.419 1009.25,974.013 948.426,936.92 894.049,872.932 857.212,788.275 845.006,693.538 860.557,607.45 900.659,544.917 957.609,515.468 1021.24,519.212 1084.27,549.285 1139.49,595.194 1184.62,648.44 1218.98,703.151 1243.53,756.119 1260.67,806.33 1273.59,852.977 1286.95,895.972 1307.26,932.414 1338.06,952.953 1380.29,955.15 1433.85,937.768 1495.92,899.112 1560.69,839.158 1619.26,762.233 1661.14,678.429 1676.92,604.053 1663.14,552.63 1622.3,532.845 1562.74,543.518 1493.76,576.233 1425.54,619.241 1363.31,664.169 1311.86,705.349 1271.55,742.59 1241.33,777.803 1218.81,813.346 1200.45,850.241 1180.54,888.911 1150.62,927.013 1110.32,951.48 1060.75,958.372 1004.82,944.273 948.986,906.037 901.831,843.819 872.31,763.396 867.249,678.881 887.613,605.774 929.611,557.241 984.233,540.505 1043.06,552.874 1098.65,586.917 1146.52,634.132 1183.73,686.625 1210.32,740.061 1227.45,792.47 1236.76,842.397 1240.38,890.329 1239.61,936.481 1234.03,981.123 1220.9,1021.09 1199.07,1050.59 1166.08,1072.2 1119.69,1085.2 1060.41,1085.36 990.116,1066.08 915.177,1019.68 846.085,941.787 794.634,834.775 771.21,708.67 782.078,586.666 825.359,488.639 892.8,430.738 972.548,416.841 1054.88,440.07 1130.49,487.273 1195.74,545.566 1249.18,605.357 1291.14,660.846 1323.56,709.571 1349.91,750.961 1374.16,783.174 1402.53,803.955 1440.66,806.751 1481.32,788.914 1519.22,755.741 1547.09,715.449 1559.36,677.391 1553.33,651.088 1530.86,641.401 1496.8,648.538 1458.75,668.358 1422.72,695.722 1393.63,726.374 1374.44,758.052 1367.47,788.922 1375.02,816.003 1400.8,832.798 1438.81,829.84 1482.67,807.57 1525.14,769.661 1558.66,722.905 1576.32,676.942 1574.05,642.271 1552.71,625.882 1517.09,628.809 1474.17,647.443 1431.62,675.503 1394.35,708.205 1366.44,742.069 1349.62,775.931 1344.97,809.06 1354.58,839.352 1382.46,859.519 1422.7,859.354 1471.06,838.604 1521.01,799.183 1564.51,746.743 1593.72,690.129 1602.14,641.514 1587.83,610.503 1554.21,602.393 1508.35,614.844 1457.69,641.788 1410.17,675.632 1369.79,711.965 1339.63,748.278 1320.49,784.487 1312.3,821.166 1315.52,856.934 1332.7,888.992 1364.95,906.849 1408.86,905.106 1462.56,882.548 1520.95,838.966 1575.79,778.182 1617.91,708.521 1639.11,641.59 1634.11,592.24 1604.2,568.59 1555,572.002 1496.42,596.398 1436.4,632.745 1381.99,672.718 1336.48,712.199 1301.58,750.12 1277.23,787.313 1261.77,825.21 1252.65,865.037 1247.28,906.595 1242.96,949.594 1236.39,993.467 1223.79,1031.48 1202.92,1059.84 1171.13,1080.9 1126.27,1094.07 1067.65,1095.49 997.201,1078.35 921.308,1034.93 849.151,959.181 793.583,852.795 765.625,726.583 771.829,599.199 811.695,494.016 877.316,428.259 958.402,407.265 1041.9,425.758 1121.16,471.396 1189.5,529.566 1245.81,589.986 1290.44,646.433 1325.16,696.187 1352.59,737.762 1377.03,770.563 1403.7,792.347 1438.84,797.943 1477.47,783.222 1513.44,753.124 1539.55,716.203 1550.79,681.182 1544.58,657.419 1523.03,649.351 1491.12,656.861 1455.53,676.279 1422.64,702.603 1396.82,732.138 1381.3,762.409 1378.67,790.853 1391.84,813.629 1421.76,821.763 1460.5,810.566 1501.43,782.361 1537.3,742.242 1560.7,698.663 1566.37,661.713 1553.26,639.699 1524.58,635.811 1486.39,648.412 1446.33,672.199 1409.8,702.253 1381.69,734.345 1364.2,766.804 1359,798.252 1368.3,826.023 1395.71,843.059 1435.07,840.125 1480.68,817.592 1526.19,778.045 1563.04,728.52 1584.07,678.653 1584.63,639.522 1564.57,618.765 1528.62,618.896 1484.2,636.162 1438.16,664.573 1397.36,697.751 1365.06,732.586 1343.39,767.781 1333.47,802.717 1336.17,836.16 1354.45,864.716 1388.52,877.702 1433.32,870.412 1484.95,842.745 1537.01,796.738 1581.32,738.214 1609.38,677.111 1614.76,626.597 1596.49,596.439 1558.12,590.607 1507.93,606.24 1454.09,635.861 1403.4,672.026 1360.58,709.655 1328.18,746.607 1306.48,783.304 1294.89,820.768 1292.85,858.84 1300.89,896.111 1323.74,928.387 1358.24,941.911 1405.21,936.63 1461.96,910.859 1524.46,863.704 1585.34,797.22 1635.05,718.159 1662.66,641.435 1662.57,580.29 1634.44,547.463 1584.1,545.249 1520.16,568.546 1453.51,606.627 1390.32,650.283 1336.65,692.197 1293.81,730.737 1261.58,766.917 1238.19,802.955 1220.73,840.534 1204.93,880.159 1184.48,921.131 1152.59,957.291 1110.41,978.685 1057.97,983.259 998.326,966.641 938.417,924.849 887.479,857.673 854.754,770.38 847.777,677.435 868.352,594.698 911.973,538.759 970.19,516.322 1034.35,525.903 1095.15,559.39 1148.35,607.287 1191.42,661.667 1223.5,716.651 1245.91,769.368 1261.26,818.732 1273.28,865.271 1286.38,907.434 1307.8,942.991 1339.36,961.136 1382.52,961.299 1437.27,941.914 1500.46,901.137 1566.14,838.938 1625.23,759.733 1666.88,674.392 1681.98,598.902 1667.08,547.327 1624.77,528.016 1563.77,539.688 1493.61,573.423 1424.23,617.358 1361.13,662.78 1308.83,704.152 1267.72,741.26 1236.72,776.06 1213.36,811.029 1194.07,847.162 1172.95,884.841 1141.68,921.076 1100.02,943.137 1049.5,946.596 994.212,928.026 940.758,884.779 898.976,819.669 876.508,740.133 878.521,660.866 904.733,596.418 949.42,559.056 1004,552.054 1060.95,571.792 1112.29,609.839 1154.92,658.255 1187.1,710.894 1208.69,763.75 1220.83,814.988 1225.04,864.606 1221.91,912.226 1209.41,958.876 1185.49,996.747 1150.04,1022.8 1102.47,1036.49 1043.3,1034.18 976.077,1009.71 908.702,957.646 851.668,877.151 815.333,774.017 807.883,663.372 831.563,564.354 881.374,495.634 948.476,465.267 1021.93,472.064 1093.03,506.75 1155.87,557.484 1208.03,614.533 1248.94,671.174 1279.84,723.82 1303.71,771.267 1324.81,812.643 1349.31,845.977 1384.99,865.147 1429.48,862.104 1480,837.781 1530.84,794.862 1574.2,739.295 1601.9,680.757 1607.59,632.153 1590.3,602.981 1553.45,597.207 1505.07,612.197 1453.18,640.84 1404.41,676.065 1363.52,712.963 1333,749.481 1313.27,785.892 1304.03,822.903 1305.3,859.902 1318.86,894.389 1347.6,917.821 1388.23,922.197 1439.78,906.533 1498.95,869.431 1558.71,812.386 1609.79,741.695 1643.01,667.908 1650.94,605.649 1631.44,566.576 1588.9,556.778 1531.42,572.724 1468.04,605.968 1407.51,646.436 1354.57,687.586 1311.7,726.73 1279.67,763.973 1257.41,800.833 1242.35,839.023 1230.98,879.866 1219.17,922.447 1200.5,965.477 1171.85,999.184 1131.73,1021.25 1079.69,1029.59 1016.98,1019.31 949.341,984.187 886.079,920.619 837.93,831.013 814.168,724.287 820.671,619.478 856.527,534.381 914.392,484.103 983.991,472.164 1056.21,493.203 1122.52,536.225 1179.24,590.312 1224.88,647.311 1259.74,702.19 1285.91,752.712 1307.08,798.445 1327.86,837.295 1355.97,866.844 1395.88,877.92 1443.99,866.768 1497.11,834.736 1549.04,784.623 1590.85,723.858 1614.32,663.786 1614.42,616.561 1590.86,591.301 1549.12,590.721 1497.02,610.233 1442.64,642.237 1393.03,679.155 1352.04,716.705 1321.4,753.683 1301.43,790.516 1291.36,828.025 1290.45,866.59 1299.49,903.834 1323.02,935.025 1357.98,947.55 1405.39,941.422 1462.7,914.857 1525.91,866.812 1587.57,799.272 1638.02,719.062 1666.41,640.777 1666.84,578.207 1638.86,544.16 1588.12,541.248 1523.63,564.366 1455.97,602.782 1391.82,646.81 1336.81,689.255 1292.74,728.013 1259.35,764.106 1234.87,799.841 1216.45,836.832 1199.6,875.875 1177.92,916.01 1144.79,950.764 1100.84,970.467 1047.78,972.061 989.159,951.792 931.839,906.322 884.797,835.669 858.308,749.296 857.667,659.749 883.288,585.594 929.658,539.284 988.8,525.753 1050.37,541.95 1108.28,579.58 1157.05,628.731 1195.28,682.388 1223.03,736.155 1241.79,788.049 1253.99,837.464 1262.61,883.739 1271.58,927.094 1286.41,965.54 1310.25,989.465 1345.48,997.754 1392.92,989.253 1453.18,960.874 1521.66,910.336 1591.69,837.549 1653.25,747.611 1693.96,654.644 1705.71,573.802 1685.23,521.702 1636.27,505.179 1568.26,521.79 1492.36,560.609 1417.33,609.115 1350.17,656.898 1294,699.038 1249.3,735.251 1214.93,767.686 1188.16,799.236 1165.48,830.928 1140.7,862.871 1106.06,890.529 1062.45,901.77 1014.5,891.826 968.203,859.564 931.647,807.799 911.646,743.143 912.969,679.227 934.906,628.518 972.987,600.436 1018.91,598.41 1065.6,618.737 1107.08,654.818 1139.96,700.403 1161.85,749.636 1172.26,799.597 1170.4,848.074 1153.71,893.245 1120.98,926.472 1076.35,941.302 1024.13,935.382 969.804,905.979 921.857,852.796 889.255,781.114 878.654,701.295 892.693,629.365 928.062,578.993 978.013,557.405 1033.41,564.609 1086.9,594.231 1133.15,637.878 1169.66,688.595 1195.45,741.371 1210.97,793.328 1217.49,843.584 1215.65,892.549 1203.85,939.865 1179.22,980.046 1143.2,1006.75 1094.7,1020.09 1035.9,1016.08 970.809,989.458 907.035,935.662 854.537,854.281 824.028,753.579 822.256,648.896 849.895,559.786 901.926,500.966 968.083,480.075 1038.57,493.368 1105.43,531.329 1163.94,583.326 1211.14,639.754 1247.4,695.345 1274.55,747.705 1295.27,794.826 1314.5,836.615 1338.67,870.455 1374.67,889.247 1420.3,886.202 1473.27,861.845 1528.66,817.493 1578.86,757.438 1614.14,691.905 1627.43,633.075 1615.65,593.37 1581.21,578.877 1531.24,588.827 1474.77,616.135 1418.89,652.737 1370.28,691.371 1331.41,729.27 1303.17,766.258 1285.03,803.417 1275.57,841.961 1273.51,881.772 1278.69,921.98 1293.86,958.208 1320.1,980.034 1357.8,985.557 1408.25,973.411 1469.53,941.012 1537.54,886.365 1604.36,811.034 1659.56,722.227 1692.28,633.395 1694.86,562.083 1666.47,520.988 1612.23,514.835 1542.89,538.302 1468.1,580.051 1397.2,627.634 1334.56,673.413 1283.16,713.713 1243.1,749.141 1212.75,782.143 1189.16,814.866 1167.3,848.944 1141.1,882.361 1102.66,909.02 1056.29,916.799 1005.53,902.828 957.27,866.005 919.543,809.029 899.552,738.909 902.136,670.148 926.312,615.941 967.245,585.908 1016.37,583.404 1066.24,604.356 1110.84,641.682 1146.82,688.714 1171.84,739.295 1185.86,790.549 1188.84,840.518 1179.8,888.296 1154.74,931.341 1116.89,957.994 1067.79,967.322 1010.96,955.738 952.655,919.44 902.385,858.465 868.995,777.993 859.616,690.011 876.657,610.955 916.268,556.117 970.993,532.696 1031.47,540.2 1089.73,571.434 1140.54,617.19 1181.41,669.843 1211.55,723.97 1231.83,776.541 1244.4,826.667 1251.93,874.669 1257.08,920.1 1262.88,962.346 1273.81,999.923 1292.65,1023.73 1321.86,1033.93 1363.39,1030 1418.8,1008.98 1485.74,967.384 1559.69,902.461 1631.95,815.669 1691.16,714.873 1725.58,614.893 1726.97,535.277 1694.55,489.877 1634.21,483.869 1557.47,510.94 1474.51,558.296 1395.98,611.139 1326.3,660.43 1267.97,702.028 1221.67,735.967 1186.13,764.745 1158.32,791.314 1133.8,817.46 1107.53,841.606 1072.52,858.485 1031.9,857.282 992.68,835.737 961.325,796.757 943.887,746.753 944.392,696.993 962.18,658.571 993.03,639.073 1030.42,641.019 1067.28,661.487 1098.79,695.374 1120.84,736.562 1131.3,780.471 1128.16,823.445 1107.81,860.927 1073.11,880.819 1030.94,879.673 987.729,856.994 950.785,814.005 928.386,757.996 925.008,698.852 941.416,649.937 973.485,620.939 1014.75,615.589 1057.75,632.028 1096.4,664.501 1126.65,706.588 1146.34,753.28 1154.06,800.855 1148.27,846.596 1124.9,887.338 1087.5,910.045 1041.41,912.33 991.983,892.536 946.412,850.021 913.485,789.031 900.013,719.066 908.968,654.123 938.407,606.683 981.962,585.181 1031.37,590.123 1080.11,616.806 1121.68,657.27 1153.7,705.097 1174.92,755.63 1185.12,806.055 1184.07,855.165 1169.56,901.892 1139.35,938.941 1096.92,959.078 1044.61,960.362 987.228,939.188 931.728,892.543 888.435,823.236 865.303,738.989 867.638,654.878 895.281,586.114 942.108,545.909 999.408,537.468 1059.14,556.955 1113.48,595.634 1158.98,644.938 1193.99,698.353 1218.51,751.716 1234,803.151 1242.7,852.636 1246.73,899.513 1248.01,944.801 1247.51,989.036 1245.06,1029.2 1238.76,1063.87 1226.59,1089.43 1205.7,1109.37 1173.31,1124.82 1127.27,1134.39 1065.82,1133.57 992.4,1114.93 912.27,1069.87 835.001,991.475 772.957,878.537 739.279,741.976 741.668,601.229 780.414,481.356 849.177,401.116 934.403,370.654 1025.04,384.178 1110.82,428.365 1187.13,488.497 1251.14,551.931 1302.51,610.608 1342.33,660.579 1372.96,700.881 1397.92,731.959 1420.6,752.72 1445.16,761.423 1473.62,754.581 1498.1,735.279 1513.36,711.694 1516.03,692.071 1506.13,681.953 1486.64,683.491 1462.85,695.346 1440.49,714.023 1424.13,736.094 1417.95,757.44 1424.93,773.685 1446.92,777.706 1474.69,766.058 1501.06,743.079 1519.31,715.506 1524.89,691.072 1516.6,676.579 1497.05,674.787 1471.1,684.87 1444.76,703.48 1423.35,726.633 1410.84,750.885 1410.5,772.72 1425.6,786.53 1453.06,784.57 1484.46,767.106 1512.55,738.807 1530.32,707.606 1533.81,681.534 1522.25,667.013 1499.01,666.806 1469.76,679.04 1440.31,700.004 1416.28,725.366 1401.3,752.188 1398.7,777.022 1411.48,795.265 1439.2,798.594 1473.58,784.512 1507.42,756.484 1533.29,721.236 1545.34,687.429 1540.87,663.63 1521.3,654.597 1491.15,660.845 1457.42,678.849 1425.89,704.053 1401.39,732.46 1387.08,761.566 1385.75,788.666 1400.48,809.009 1431.15,813.724 1469.38,799.512 1508.17,769.422 1539.66,730.024 1557.6,689.501 1557.53,658.364 1540.04,642.807 1509.14,644.532 1471.65,660.669 1434.36,685.965 1402.38,715.979 1379.59,747.518 1368.35,778.653 1370.61,807.394 1389.87,828.99 1424.01,833.227 1466.14,817.932 1509.82,785.379 1547.65,740.841 1571.93,693.308 1577.29,653.351 1562.72,629.716 1531.64,625.608 1490.48,639.059 1447.16,664.249 1407.18,695.87 1375.66,729.363 1354.58,763.249 1345.21,796.738 1348.98,828.364 1369.47,853.787 1404.99,861.899 1450.31,849.695 1500.18,817.86 1547.29,770.157 1583.55,713.95 1601.31,660.518 1596.58,620.957 1570.62,603.101 1529.01,607.349 1479.25,629.065 1429.89,660.619 1385.83,696.442 1351.25,732.727 1327.43,768.777 1314.54,805.033 1312.67,841.572 1323.18,875.894 1349.9,901.685 1389.08,908.267 1438.83,894.72 1495.71,860.159 1552.96,806.289 1601.68,739.256 1633,669.194 1639.55,611.078 1619.91,575.419 1578.21,567.418 1522.85,583.648 1462.16,616.074 1404.81,655.166 1354.92,695.321 1315.43,733.794 1286.71,770.976 1267.57,808.567 1256.03,847.439 1249.32,888.603 1244.89,931.081 1239.96,973.774 1230.62,1015.18 1214.12,1047.48 1187.83,1071.9 1148.89,1089.24 1096.78,1096.81 1031.23,1089.31 956.766,1059.01 881.3,998.583 816.454,905.596 774.565,786.842 764.479,656.004 789.368,538.416 844.558,452.853 919.958,411.248 1003.23,412.867 1085.36,447.592 1158.91,501.33 1220.91,561.691 1270.89,620.515 1309.93,673.518 1340.57,719.315 1365.73,756.232 1390.76,783.698 1421.51,797.784 1459.66,792.147 1497.66,768.306 1528.95,733.549 1547.59,696.559 1549.5,666.913 1534.61,651.188 1506.59,651.767 1472.06,666.201 1437.26,689.895 1407.73,718.294 1387.09,748.573 1378.3,778.039 1383.66,804.046 1407.64,820.534 1443.25,817.466 1484.01,796.165 1522.97,760.33 1552.57,716.939 1566.13,676.139 1560.87,647.102 1538.04,635.396 1503.12,641.51 1463.22,661.177 1424.38,689.275 1392.52,720.684 1370.32,753.17 1359.77,785.303 1362.68,815.08 1382.26,837.855 1417.45,843.569 1461.33,829.016 1508.02,795.808 1549.22,749.541 1577.51,698.569 1586.75,653.884 1574.79,624.833 1544.68,616.668 1502.89,627.579 1456.46,652.339 1413.19,684.016 1376.97,718.591 1350.96,753.61 1336.32,788.521 1333.79,823.005 1345.25,854.087 1374.88,874.885 1416.26,874.993 1465.91,854.661 1518.59,814.897 1566.82,759.744 1601.44,698.4 1615.27,642.873 1605.24,604.745 1573.34,590.222 1526.5,598.933 1473.22,624.419 1420.54,659.147 1374.84,696.435 1338.78,733.548 1313.36,770.195 1298.37,807.121 1293.02,845 1297.37,882.851 1314.47,917.899 1345.14,938.192 1387.35,939.827 1441.07,921.498 1502.69,881.502 1565.65,820.506 1619.81,745.119 1655.5,666.48 1665.17,598.798 1646.2,555.819 1602.68,543.458 1542.35,559.006 1475.96,593.14 1411.28,635.567 1354.45,678.223 1307.84,717.983 1272.1,754.881 1246.14,790.702 1227.24,827.588 1211.63,866.631 1193.88,907.607 1164.18,949.564 1125.08,975.685 1075.49,985.834 1017.66,976.426 956.933,943.08 901.64,883.578 861.48,800.766 845.559,707.414 857.212,618.877 894.238,552.288 948.904,518.209 1012.41,517.577 1075.27,544.161 1132.19,588.714 1178.77,641.391 1214.49,696.116 1240.25,749.563 1258.2,800.508 1271.27,847.583 1283.98,891.084 1302.49,928.932 1331.3,952.452 1371.49,957.837 1422.97,944.094 1484.21,909.143 1549.7,852.289 1610.4,777.481 1656.06,694.055 1677.43,615.796 1669.17,559.018 1632.98,532.953 1575.33,538.501 1507.47,567.923 1437.95,610.183 1374.54,654.982 1320.56,697.15 1277.58,735.323 1245.28,770.751 1221.48,805.702 1202.39,842.219 1183.1,880.274 1155.59,918.578 1117.13,945.773 1068.92,955.841 1013.42,945.169 957.141,910.419 908.747,851.716 876.854,774.122 868.506,690.23 885.842,614.977 924.827,563.984 977.808,543.553 1036.41,552.756 1092.04,584.452 1140.32,630.08 1178.7,682.472 1206.2,736.245 1223.73,788.679 1233.11,838.787 1236.28,887.378 1234.1,934.01 1225.36,979.041 1207.33,1017.22 1179.05,1045.04 1138.8,1063.54 1085.06,1070.54 1020.15,1060.55 948.461,1026.72 878.404,963.335 820.983,869.555 787.691,753.452 786.304,633.096 817.553,529.343 875.929,459.624 949.961,432.773 1029.62,444.71 1105.11,484.364 1171.99,539.365 1227.42,598.969 1271.13,656.286 1304.64,707.874 1330.89,752.308 1354.72,789.399 1381.62,816.038 1421.77,826.415 1465.12,813.453 1508.83,782.246 1546.27,738.721 1569.81,692.486 1574.54,653.656 1559.55,631.206 1528.55,627.974 1487.7,641.908 1445.1,667.204 1406.31,698.514 1375.91,731.749 1356.02,765.383 1348.02,798.468 1353.53,829.192 1376.45,852.535 1413.63,857.305 1459.45,841.828 1508.53,807.382 1553.68,757.944 1585.96,702.631 1598.87,652.258 1589.46,618.008 1559.93,605.374 1516.41,613.969 1467.39,637.966 1419.4,670.675 1378.51,706.125 1347.19,742.047 1326.72,777.93 1317.38,813.839 1319.53,849.216 1335.8,881.167 1367.78,899.417 1411.28,897.811 1464.02,875.566 1520.92,832.826 1574.04,773.424 1614.41,705.537 1633.7,641.621 1627.4,594.769 1596.99,573.442 1548.44,578.14 1490.82,602.912 1432.7,638.715 1380.09,678.127 1336.49,717.229 1303.85,754.721 1281.51,792.015 1268.09,830.249 1261.48,870.096 1259.83,911.299 1262.39,952.598 1271.09,992.287 1287.64,1019.02 1314.08,1032.28 1352.9,1031.79 1404.81,1015.17 1469.63,978.498 1543.53,918.084 1617.82,834.55 1680.66,735.564 1720.71,634.622 1729.16,549.119 1703.32,496.139 1648.23,482.326 1573.19,503.855 1491.35,547.92 1410.73,601.047 1339.34,651.325 1279.28,694.132 1231.09,729.128 1193.65,758.632 1164.29,785.718 1139.63,811.865 1114.09,837.006 1081.47,856.419 1041.73,859.96 1001.74,843.281 967.434,807.594 946.197,759.525 942.187,708.254 956.195,665.881 984.446,641.353 1020.88,638.112 1058.7,654.604 1091.87,685.602 1116.58,725.411 1130.3,769.268 1130.9,813.067 1115.53,852.565 1083.41,878.256 1042.01,882.652 997.877,865.111 958.78,827.037 931.939,773.127 923.389,713.695 934.96,660.584 963.779,625.564 1003.38,614.049 1046.84,625.331 1087.16,654.289 1120.31,694.972 1142.94,741.017 1153.92,788.722 1151.87,835.595 1133.8,878.113 1099.71,906.47 1055.04,914.791 1005.14,901.023 957.526,864.414 920.302,807.74 900.771,738.298 903.62,670.196 927.862,616.784 968.577,587.469 1017.43,585.409 1066.85,606.569 1111,643.96 1146.4,690.834 1170.88,741.236 1184.33,792.292 1186.62,842.128 1176.53,889.63 1150.05,931.622 1111.04,956.633 1061.52,963.845 1004.98,949.94 948.151,911.642 899.842,849.04 868.913,767.18 862.748,680.811 882.541,604.989 924.255,554.177 979.354,535.257 1039.51,546.268 1096.36,579.636 1145.76,626.805 1184.63,679.701 1212.76,733.563 1231.38,786.245 1242.31,836.111 1248.19,883.927 1251.23,929.434 1253.42,972.495 1256.73,1012.17 1264.15,1045.54 1277.75,1065.92 1300.4,1075.61 1334.85,1074.26 1383.42,1059.2 1445.97,1026.32 1520.77,970.502 1600.99,889.352 1675.25,787.073 1730.79,675.353 1756.65,570.963 1746.23,494.339 1700.44,457.976 1628.85,464.155 1542.9,502.564 1454.53,557.508 1371.81,614.643 1300.19,664.228 1240.93,703.398 1193.73,733.262 1156.95,756.91 1128.19,777.196 1103.96,795.546 1079.97,810.919 1051.69,818.761 1019.99,811.177 993.876,787.942 977.994,754.341 976.014,719.646 987.69,692.703 1009.76,680.022 1036.68,683.98 1062.37,702.439 1082.25,731.362 1092.07,765.013 1088.96,798.129 1070.04,823.51 1040.35,830.366 1014.75,821.649 "/>
</svg>
